M48
; DRILL file KiCad 10.0.6 date 2026-09-29T21:42:59
; FORMAT={-:-/ absolute / metric / decimal}
; #@! TF.CreationDate,2026-09-29T21:42:59+02:00
; #@! TF.GenerationSoftware,Kicad,Pcbnew,10.0.6
; #@! TF.FileFunction,NonPlated,1,2,NPTH
FMAT,2
METRIC
; #@! TA.AperFunction,NonPlated,NPTH,ComponentDrill
T1C0.900
; #@! TA.AperFunction,NonPlated,NPTH,ComponentDrill
T2C2.200
; #@! TA.AperFunction,NonPlated,NPTH,ComponentDrill
T3C3.000
; #@! TA.AperFunction,NonPlated,NPTH,ComponentDrill
T4C5.000
%
G90
G05
T1
X165.575Y-63.2
X165.575Y-66.2
T2
X109.4Y-73.4
X147.6Y-52.0
X184.6Y-100.0
T3
X95.077Y-77.292
X100.077Y-75.092
X105.077Y-77.292
X114.0Y-53.25
X114.0Y-79.75
X119.0Y-51.05
X119.0Y-81.95
X124.0Y-79.75
X124.0Y-53.25
X133.0Y-49.25
X133.0Y-75.75
X138.0Y-47.05
X138.0Y-77.95
X143.0Y-75.75
X143.0Y-49.25
X152.0Y-55.25
X152.0Y-74.25
X157.0Y-53.05
X157.0Y-72.05
X162.0Y-55.25
X162.0Y-74.25
X168.156Y-106.401
X172.898Y-109.112
X178.101Y-107.447
X187.886Y-109.349
X192.086Y-112.841
X197.498Y-112.105
T4
X100.077Y-81.042
X119.0Y-57.0
X119.0Y-76.0
X138.0Y-53.0
X138.0Y-72.0
X157.0Y-59.0
X157.0Y-78.0
X173.52Y-103.194
X193.726Y-107.122
M30
