%TF.GenerationSoftware,KiCad,Pcbnew,10.0.6*%
%TF.CreationDate,2026-09-30T11:10:58+02:00*%
%TF.ProjectId,2nr9_v2,326e7239-5f76-4322-9e6b-696361645f70,v1.0.0*%
%TF.SameCoordinates,Original*%
%TF.FileFunction,Soldermask,Top*%
%TF.FilePolarity,Negative*%
%FSLAX46Y46*%
G04 Gerber Fmt 4.6, Leading zero omitted, Abs format (unit mm)*
G04 Created by KiCad (PCBNEW 10.0.6) date 2026-09-30 11:10:58*
%MOMM*%
%LPD*%
G01*
G04 APERTURE LIST*
G04 Aperture macros list*
%AMRoundRect*
0 Rectangle with rounded corners*
0 $1 Rounding radius*
0 $2 $3 $4 $5 $6 $7 $8 $9 X,Y pos of 4 corners*
0 Add a 4 corners polygon primitive as box body*
4,1,4,$2,$3,$4,$5,$6,$7,$8,$9,$2,$3,0*
0 Add four circle primitives for the rounded corners*
1,1,$1+$1,$2,$3*
1,1,$1+$1,$4,$5*
1,1,$1+$1,$6,$7*
1,1,$1+$1,$8,$9*
0 Add four rect primitives between the rounded corners*
20,1,$1+$1,$2,$3,$4,$5,0*
20,1,$1+$1,$4,$5,$6,$7,0*
20,1,$1+$1,$6,$7,$8,$9,0*
20,1,$1+$1,$8,$9,$2,$3,0*%
%AMFreePoly0*
4,1,14,1.335355,1.335355,1.350000,1.300000,1.350000,-0.117000,1.335355,-0.152355,0.152355,-1.335355,0.117000,-1.350000,-1.300000,-1.350000,-1.335355,-1.335355,-1.350000,-1.300000,-1.350000,1.300000,-1.335355,1.335355,-1.300000,1.350000,1.300000,1.350000,1.335355,1.335355,1.335355,1.335355,$1*%
%AMFreePoly1*
4,1,16,-0.214645,0.660355,-0.210957,0.656235,0.289043,0.031235,0.299694,-0.005522,0.289043,-0.031235,-0.210957,-0.656235,-0.244478,-0.674694,-0.250000,-0.675000,-0.500000,-0.675000,-0.535355,-0.660355,-0.550000,-0.625000,-0.550000,0.625000,-0.535355,0.660355,-0.500000,0.675000,-0.250000,0.675000,-0.214645,0.660355,-0.214645,0.660355,$1*%
%AMFreePoly2*
4,1,16,0.535355,0.660355,0.550000,0.625000,0.550000,-0.625000,0.535355,-0.660355,0.500000,-0.675000,-0.650000,-0.675000,-0.685355,-0.660355,-0.700000,-0.625000,-0.689043,-0.593765,-0.214031,0.000000,-0.689043,0.593765,-0.699694,0.630522,-0.681235,0.664043,-0.650000,0.675000,0.500000,0.675000,0.535355,0.660355,0.535355,0.660355,$1*%
G04 Aperture macros list end*
%ADD10C,0.000000*%
%ADD11C,3.100000*%
%ADD12C,5.100000*%
%ADD13FreePoly0,0.000000*%
%ADD14RoundRect,0.050000X-1.300000X-1.300000X1.300000X-1.300000X1.300000X1.300000X-1.300000X1.300000X0*%
%ADD15FreePoly0,180.000000*%
%ADD16RoundRect,0.050000X1.000000X1.400000X-1.000000X1.400000X-1.000000X-1.400000X1.000000X-1.400000X0*%
%ADD17C,2.300000*%
%ADD18C,1.800000*%
%ADD19RoundRect,0.050000X0.400000X-0.500000X0.400000X0.500000X-0.400000X0.500000X-0.400000X-0.500000X0*%
%ADD20C,1.000000*%
%ADD21RoundRect,0.050000X-0.750000X0.350000X-0.750000X-0.350000X0.750000X-0.350000X0.750000X0.350000X0*%
%ADD22RoundRect,0.050000X0.750000X-0.350000X0.750000X0.350000X-0.750000X0.350000X-0.750000X-0.350000X0*%
%ADD23FreePoly0,174.000000*%
%ADD24RoundRect,0.050000X1.428765X1.156991X-1.156991X1.428765X-1.428765X-1.156991X1.156991X-1.428765X0*%
%ADD25RoundRect,0.050000X-1.000000X-1.400000X1.000000X-1.400000X1.000000X1.400000X-1.000000X1.400000X0*%
%ADD26FreePoly0,164.000000*%
%ADD27RoundRect,0.050000X1.607969X0.891312X-0.891312X1.607969X-1.607969X-0.891312X0.891312X-1.607969X0*%
%ADD28RoundRect,0.350000X0.700000X0.700000X-0.700000X0.700000X-0.700000X-0.700000X0.700000X-0.700000X0*%
%ADD29RoundRect,0.050000X1.300000X1.300000X-1.300000X1.300000X-1.300000X-1.300000X1.300000X-1.300000X0*%
%ADD30FreePoly1,90.000000*%
%ADD31FreePoly1,270.000000*%
%ADD32C,0.900000*%
%ADD33FreePoly2,90.000000*%
%ADD34FreePoly2,270.000000*%
G04 APERTURE END LIST*
D10*
%TO.C,REF\u002A\u002A*%
G36*
X200982449Y-105395092D02*
G01*
X200875104Y-105395092D01*
X200875104Y-104859912D01*
X200982449Y-104859912D01*
X200982449Y-105395092D01*
G37*
G36*
X201089764Y-104859912D02*
G01*
X200982449Y-104859912D01*
X200982449Y-104752567D01*
X201089764Y-104752567D01*
X201089764Y-104859912D01*
G37*
G36*
X201089764Y-105611293D02*
G01*
X200982449Y-105611293D01*
X200982449Y-105396633D01*
X201089764Y-105396633D01*
X201089764Y-105611293D01*
G37*
G36*
X201197110Y-104752567D02*
G01*
X201089764Y-104752567D01*
X201089764Y-104645259D01*
X201197110Y-104645259D01*
X201197110Y-104752567D01*
G37*
G36*
X201197110Y-105717151D02*
G01*
X201089764Y-105717151D01*
X201089764Y-105609790D01*
X201197110Y-105609790D01*
X201197110Y-105717151D01*
G37*
G36*
X201624982Y-105824451D02*
G01*
X201197110Y-105824451D01*
X201197110Y-105717151D01*
X201624982Y-105717151D01*
X201624982Y-105824451D01*
G37*
G36*
X201732327Y-105717151D02*
G01*
X201624982Y-105717151D01*
X201624982Y-105609790D01*
X201732327Y-105609790D01*
X201732327Y-105717151D01*
G37*
G36*
X201839642Y-105609790D02*
G01*
X201732327Y-105609790D01*
X201732327Y-105502445D01*
X201839642Y-105502445D01*
X201839642Y-105609790D01*
G37*
G36*
X202054349Y-104752567D02*
G01*
X201839642Y-104752567D01*
X201839642Y-104645259D01*
X202054349Y-104645259D01*
X202054349Y-104752567D01*
G37*
G36*
X202374860Y-105289280D02*
G01*
X202267499Y-105289280D01*
X202267499Y-104967266D01*
X202374860Y-104967266D01*
X202374860Y-105289280D01*
G37*
G36*
X202589566Y-105396633D02*
G01*
X202374860Y-105396633D01*
X202374860Y-105289280D01*
X202589566Y-105289280D01*
X202589566Y-105396633D01*
G37*
G36*
X202267499Y-104968769D02*
G01*
X202160199Y-104968769D01*
X202160199Y-104646755D01*
X202052838Y-104646755D01*
X202052838Y-104539402D01*
X202267499Y-104539402D01*
X202267499Y-104968769D01*
G37*
G36*
X202696866Y-104324741D02*
G01*
X202589566Y-104324741D01*
X202589566Y-104432056D01*
X202482205Y-104432056D01*
X202482205Y-104752567D01*
X202589566Y-104752567D01*
X202589566Y-105289280D01*
X202374860Y-105289280D01*
X202374860Y-104967273D01*
X202267499Y-104967273D01*
X202267499Y-104539409D01*
X202054334Y-104539409D01*
X202054334Y-104645267D01*
X201839627Y-104645267D01*
X201839627Y-104432056D01*
X201946988Y-104432056D01*
X201946988Y-104324741D01*
X202267499Y-104324741D01*
X202267499Y-104217395D01*
X202482205Y-104217395D01*
X202482205Y-104110035D01*
X202696866Y-104110035D01*
X202696866Y-104324741D01*
G37*
G36*
X201624982Y-104859912D02*
G01*
X201302960Y-104859912D01*
X201302960Y-104967273D01*
X201197110Y-104967273D01*
X201197110Y-105289280D01*
X201302960Y-105289280D01*
X201302960Y-105502445D01*
X201517621Y-105502445D01*
X201517621Y-105396625D01*
X201624982Y-105396625D01*
X201624982Y-105181926D01*
X201839642Y-105181926D01*
X201839642Y-105502445D01*
X201732327Y-105502445D01*
X201732327Y-105609790D01*
X201624982Y-105609790D01*
X201624982Y-105717151D01*
X201197110Y-105717151D01*
X201197110Y-105609790D01*
X201089764Y-105609790D01*
X201089764Y-105396633D01*
X200982449Y-105396633D01*
X200982449Y-104859912D01*
X201089764Y-104859912D01*
X201089764Y-104752567D01*
X201197110Y-104752567D01*
X201197110Y-104645252D01*
X201624982Y-104645252D01*
X201624982Y-104859912D01*
G37*
G36*
X202910062Y-106466983D02*
G01*
X203124738Y-106466983D01*
X203124738Y-106789035D01*
X203017377Y-106789035D01*
X203017377Y-106896343D01*
X202910062Y-106896343D01*
X202910062Y-107216861D01*
X202804227Y-107216861D01*
X202804227Y-107324207D01*
X202374860Y-107324207D01*
X202374860Y-107431568D01*
X202267499Y-107431568D01*
X202267499Y-107538868D01*
X202160199Y-107538868D01*
X202160199Y-107646228D01*
X201624982Y-107646228D01*
X201624982Y-107538868D01*
X201410275Y-107538868D01*
X201410275Y-107431568D01*
X201517621Y-107431568D01*
X201517621Y-107324207D01*
X201732327Y-107324207D01*
X201732327Y-107216861D01*
X201946988Y-107216861D01*
X201946988Y-107109500D01*
X202160199Y-107109500D01*
X202160199Y-107002201D01*
X202267499Y-107002201D01*
X202267499Y-106896343D01*
X202374860Y-106896343D01*
X202374860Y-106789035D01*
X202589566Y-106789035D01*
X202589566Y-106681682D01*
X202696866Y-106681682D01*
X202696866Y-106574329D01*
X202804227Y-106574329D01*
X202804227Y-106359668D01*
X202910062Y-106359668D01*
X202910062Y-106466983D01*
G37*
G36*
X199803174Y-106252323D02*
G01*
X200017880Y-106252323D01*
X200017880Y-106466983D01*
X200125226Y-106466983D01*
X200125226Y-106681682D01*
X200232587Y-106681682D01*
X200232587Y-107859378D01*
X200125226Y-107859378D01*
X200125226Y-107966739D01*
X200017880Y-107966739D01*
X200017880Y-108074085D01*
X199910519Y-108074085D01*
X199910519Y-108181400D01*
X199803174Y-108181400D01*
X199803174Y-108288745D01*
X199053296Y-108288745D01*
X199053296Y-108181400D01*
X198840131Y-108181400D01*
X198840131Y-108074085D01*
X198732770Y-108074085D01*
X198732770Y-107966739D01*
X198625470Y-107966739D01*
X198625470Y-107859378D01*
X198410764Y-107859378D01*
X198410764Y-107753574D01*
X198303403Y-107753574D01*
X198303403Y-107538868D01*
X198196103Y-107538868D01*
X198196103Y-107431560D01*
X198088742Y-107431560D01*
X198088742Y-107216861D01*
X198196103Y-107216861D01*
X198196103Y-107109500D01*
X198410764Y-107109500D01*
X198410764Y-106359668D01*
X198518109Y-106359668D01*
X198518109Y-106252323D01*
X199053281Y-106252323D01*
X199053281Y-106359668D01*
X199160642Y-106359668D01*
X199160642Y-106466983D01*
X199375348Y-106466983D01*
X199375348Y-106359668D01*
X199482648Y-106359668D01*
X199482648Y-106252323D01*
X199590009Y-106252323D01*
X199590009Y-106146465D01*
X199803174Y-106146465D01*
X199803174Y-106252323D01*
G37*
G36*
X201411816Y-101323734D02*
G01*
X201626477Y-101323734D01*
X201626477Y-101431095D01*
X202376355Y-101431095D01*
X202376355Y-101323734D01*
X202591061Y-101323734D01*
X202591061Y-101216434D01*
X202913083Y-101216434D01*
X202913083Y-101644252D01*
X202805722Y-101644252D01*
X202805722Y-101751606D01*
X202698422Y-101751606D01*
X202698422Y-101966266D01*
X202591061Y-101966266D01*
X202591061Y-102073619D01*
X202483716Y-102073619D01*
X202483716Y-102180973D01*
X202376355Y-102180973D01*
X202376355Y-102288280D01*
X202269055Y-102288280D01*
X202269055Y-102395633D01*
X202161694Y-102395633D01*
X202161694Y-102502987D01*
X202054349Y-102502987D01*
X202054349Y-102610340D01*
X201839642Y-102610340D01*
X201839642Y-102717647D01*
X201517621Y-102717647D01*
X201517621Y-102825000D01*
X200447446Y-102825000D01*
X200447446Y-102717647D01*
X200340085Y-102717647D01*
X200340085Y-102502987D01*
X200447446Y-102502987D01*
X200447446Y-102288288D01*
X200554807Y-102288288D01*
X200554807Y-102073627D01*
X200662152Y-102073627D01*
X200662152Y-101860462D01*
X200662152Y-101753109D01*
X200662152Y-101751606D01*
X200769467Y-101751606D01*
X200769467Y-101645755D01*
X201195828Y-101645755D01*
X201195828Y-101753109D01*
X201410489Y-101753109D01*
X201410489Y-101860462D01*
X201517835Y-101860462D01*
X201517835Y-101753109D01*
X201410489Y-101753109D01*
X201410489Y-101645755D01*
X201195828Y-101645755D01*
X200769467Y-101645755D01*
X200769467Y-101323742D01*
X200876813Y-101323742D01*
X200876813Y-101216434D01*
X201412030Y-101216434D01*
X201411816Y-101323734D01*
G37*
%TD*%
D11*
%TO.C,S1*%
X105077075Y-77291758D03*
X100077075Y-75091758D03*
D12*
X100077075Y-81041758D03*
D11*
X95077075Y-77291757D03*
D13*
X103352075Y-75091758D03*
D14*
X91802075Y-77291758D03*
%TD*%
D11*
%TO.C,S4*%
X142999999Y-75750000D03*
X138000000Y-77950000D03*
D12*
X138000000Y-72000000D03*
D11*
X133000001Y-75750000D03*
D15*
X134725000Y-77950000D03*
D16*
X145750000Y-75750000D03*
%TD*%
D17*
%TO.C,MH1*%
X109400000Y-73400000D03*
%TD*%
D18*
%TO.C,RST1*%
X137450000Y-83590000D03*
X130950000Y-83590000D03*
%TD*%
D17*
%TO.C,MH3*%
X184600000Y-100000000D03*
%TD*%
%TO.C,MH2*%
X147600000Y-52000000D03*
%TD*%
D19*
%TO.C,PWR1*%
X164465000Y-61050000D03*
X164465000Y-68350000D03*
D20*
X165575000Y-63200000D03*
X165575000Y-66200000D03*
D19*
X166675000Y-61050000D03*
X166675000Y-68350000D03*
D21*
X163815000Y-66950000D03*
X163815000Y-63950000D03*
D22*
X163815000Y-62450000D03*
%TD*%
D11*
%TO.C,S7*%
X152000000Y-55250000D03*
X157000000Y-53050000D03*
D12*
X157000000Y-59000000D03*
D11*
X162000000Y-55250000D03*
D13*
X160275000Y-53050000D03*
D14*
X148725000Y-55250000D03*
%TD*%
D11*
%TO.C,S8*%
X178100908Y-107446537D03*
X172898336Y-109111843D03*
D12*
X173520280Y-103194438D03*
D11*
X168155689Y-106401253D03*
D23*
X169641276Y-108769513D03*
D24*
X181357967Y-107788868D03*
%TD*%
D11*
%TO.C,S6*%
X152000000Y-74200000D03*
X157000000Y-72000000D03*
D12*
X157000000Y-77950000D03*
D11*
X162000000Y-74200000D03*
D13*
X160275000Y-72000000D03*
D25*
X149250000Y-74200000D03*
%TD*%
D11*
%TO.C,S3*%
X114000000Y-53250000D03*
X119000000Y-51050000D03*
D12*
X119000000Y-57000000D03*
D11*
X124000000Y-53250000D03*
D13*
X122275000Y-51050000D03*
D14*
X110725000Y-53250000D03*
%TD*%
D11*
%TO.C,S9*%
X197498427Y-112104903D03*
X192085717Y-112841492D03*
D12*
X193725759Y-107121985D03*
D11*
X187885810Y-109348531D03*
D26*
X188937585Y-111938780D03*
D27*
X200646558Y-113007615D03*
%TD*%
D11*
%TO.C,S5*%
X133000000Y-49250000D03*
X138000000Y-47050000D03*
D12*
X138000000Y-53000000D03*
D11*
X143000000Y-49250000D03*
D13*
X141275000Y-47050000D03*
D14*
X129725000Y-49250000D03*
%TD*%
D28*
%TO.C,BAT -*%
X148800000Y-61200000D03*
%TD*%
%TO.C,BAT +*%
X149600000Y-67000000D03*
%TD*%
D11*
%TO.C,S2*%
X123999999Y-79750000D03*
X119000000Y-81950000D03*
D12*
X119000000Y-76000000D03*
D11*
X114000001Y-79750000D03*
D15*
X115725000Y-81950000D03*
D29*
X127275000Y-79750000D03*
%TD*%
D30*
%TO.C,MCU1*%
X169700000Y-95930000D03*
D18*
X169700000Y-98050000D03*
D30*
X167160000Y-95930000D03*
D18*
X167160000Y-98050000D03*
D30*
X164620000Y-95930000D03*
D18*
X164620000Y-98050000D03*
D30*
X162080000Y-95930000D03*
D18*
X162080000Y-98050000D03*
X159540000Y-98050000D03*
X157000000Y-98050000D03*
X154460000Y-98050000D03*
X151920000Y-98050000D03*
X149380000Y-98050000D03*
X146840000Y-98050000D03*
X144300000Y-98050000D03*
X141760000Y-98050000D03*
X141760000Y-82810000D03*
X144300000Y-82810000D03*
X146840000Y-82810000D03*
X149380000Y-82810000D03*
X151920000Y-82810000D03*
X154460000Y-82810000D03*
X157000000Y-82810000D03*
X159540000Y-82810000D03*
X162080000Y-82810000D03*
D31*
X162080000Y-84930000D03*
D18*
X164620000Y-82810000D03*
D31*
X164620000Y-84930000D03*
D18*
X167160000Y-82810000D03*
D31*
X167160000Y-84930000D03*
D18*
X169700000Y-82810000D03*
D31*
X169700000Y-84930000D03*
D32*
X169700000Y-93830000D03*
D33*
X169700000Y-95205000D03*
D32*
X167160000Y-93830000D03*
D33*
X167160000Y-95205000D03*
D32*
X164620000Y-93830000D03*
D33*
X164620000Y-95205000D03*
D32*
X162080000Y-93830000D03*
D33*
X162080000Y-95205000D03*
D34*
X162080000Y-85655000D03*
D32*
X162080000Y-87030000D03*
D34*
X164620000Y-85655000D03*
D32*
X164620000Y-87030000D03*
D34*
X167160000Y-85655000D03*
D32*
X167160000Y-87030000D03*
D34*
X169700000Y-85655000D03*
D32*
X169700000Y-87030000D03*
%TD*%
M02*
