%TF.GenerationSoftware,KiCad,Pcbnew,10.0.6*%
%TF.CreationDate,2026-09-30T11:10:58+02:00*%
%TF.ProjectId,2nr9_v2,326e7239-5f76-4322-9e6b-696361645f70,v1.0.0*%
%TF.SameCoordinates,Original*%
%TF.FileFunction,Paste,Bot*%
%TF.FilePolarity,Positive*%
%FSLAX46Y46*%
G04 Gerber Fmt 4.6, Leading zero omitted, Abs format (unit mm)*
G04 Created by KiCad (PCBNEW 10.0.6) date 2026-09-30 11:10:58*
%MOMM*%
%LPD*%
G01*
G04 APERTURE LIST*
G04 Aperture macros list*
%AMRoundRect*
0 Rectangle with rounded corners*
0 $1 Rounding radius*
0 $2 $3 $4 $5 $6 $7 $8 $9 X,Y pos of 4 corners*
0 Add a 4 corners polygon primitive as box body*
4,1,4,$2,$3,$4,$5,$6,$7,$8,$9,$2,$3,0*
0 Add four circle primitives for the rounded corners*
1,1,$1+$1,$2,$3*
1,1,$1+$1,$4,$5*
1,1,$1+$1,$6,$7*
1,1,$1+$1,$8,$9*
0 Add four rect primitives between the rounded corners*
20,1,$1+$1,$2,$3,$4,$5,0*
20,1,$1+$1,$4,$5,$6,$7,0*
20,1,$1+$1,$6,$7,$8,$9,0*
20,1,$1+$1,$8,$9,$2,$3,0*%
%AMRotRect*
0 Rectangle, with rotation*
0 The origin of the aperture is its center*
0 $1 length*
0 $2 width*
0 $3 Rotation angle, in degrees counterclockwise*
0 Add horizontal line*
21,1,$1,$2,0,0,$3*%
%AMOutline5P*
0 Free polygon, 5 corners , with rotation*
0 The origin of the aperture is its center*
0 number of corners: always 5*
0 $1 to $10 corner X, Y*
0 $11 Rotation angle, in degrees counterclockwise*
0 create outline with 5 corners*
4,1,5,$1,$2,$3,$4,$5,$6,$7,$8,$9,$10,$1,$2,$11*%
%AMOutline6P*
0 Free polygon, 6 corners , with rotation*
0 The origin of the aperture is its center*
0 number of corners: always 6*
0 $1 to $12 corner X, Y*
0 $13 Rotation angle, in degrees counterclockwise*
0 create outline with 6 corners*
4,1,6,$1,$2,$3,$4,$5,$6,$7,$8,$9,$10,$11,$12,$1,$2,$13*%
%AMOutline7P*
0 Free polygon, 7 corners , with rotation*
0 The origin of the aperture is its center*
0 number of corners: always 7*
0 $1 to $14 corner X, Y*
0 $15 Rotation angle, in degrees counterclockwise*
0 create outline with 7 corners*
4,1,7,$1,$2,$3,$4,$5,$6,$7,$8,$9,$10,$11,$12,$13,$14,$1,$2,$15*%
%AMOutline8P*
0 Free polygon, 8 corners , with rotation*
0 The origin of the aperture is its center*
0 number of corners: always 8*
0 $1 to $16 corner X, Y*
0 $17 Rotation angle, in degrees counterclockwise*
0 create outline with 8 corners*
4,1,8,$1,$2,$3,$4,$5,$6,$7,$8,$9,$10,$11,$12,$13,$14,$15,$16,$1,$2,$17*%
%AMFreePoly0*
4,1,6,0.250000,0.000000,-0.250000,-0.625000,-0.500000,-0.625000,-0.500000,0.625000,-0.250000,0.625000,0.250000,0.000000,0.250000,0.000000,$1*%
%AMFreePoly1*
4,1,6,0.500000,-0.625000,-0.650000,-0.625000,-0.150000,0.000000,-0.650000,0.625000,0.500000,0.625000,0.500000,-0.625000,0.500000,-0.625000,$1*%
G04 Aperture macros list end*
%ADD10Outline5P,-1.300000X1.300000X1.300000X1.300000X1.300000X-1.300000X-0.117000X-1.300000X-1.300000X-0.117000X0.000000*%
%ADD11R,2.000000X2.800000*%
%ADD12Outline5P,-1.300000X1.300000X1.300000X1.300000X1.300000X-1.300000X-0.117000X-1.300000X-1.300000X-0.117000X180.000000*%
%ADD13R,1.800000X2.600000*%
%ADD14RoundRect,0.300000X-0.700000X-0.700000X0.700000X-0.700000X0.700000X0.700000X-0.700000X0.700000X0*%
%ADD15R,0.800000X1.000000*%
%ADD16R,1.500000X0.700000*%
%ADD17R,2.600000X2.600000*%
%ADD18Outline5P,-1.300000X1.300000X1.300000X1.300000X1.300000X-1.300000X-0.117000X-1.300000X-1.300000X-0.117000X174.000000*%
%ADD19RotRect,2.600000X2.600000X174.000000*%
%ADD20Outline5P,-1.300000X1.300000X1.300000X1.300000X1.300000X-1.300000X-0.117000X-1.300000X-1.300000X-0.117000X164.000000*%
%ADD21RotRect,2.600000X2.600000X164.000000*%
%ADD22R,2.000000X2.600000*%
%ADD23FreePoly0,90.000000*%
%ADD24FreePoly0,270.000000*%
%ADD25FreePoly1,270.000000*%
%ADD26FreePoly1,90.000000*%
G04 APERTURE END LIST*
D10*
%TO.C,S1*%
X96802075Y-75091758D03*
D11*
X107850000Y-77291758D03*
%TD*%
D12*
%TO.C,S4*%
X141275000Y-77950000D03*
D13*
X130400000Y-75750000D03*
%TD*%
D14*
%TO.C,BAT -*%
X148800000Y-61200000D03*
%TD*%
%TO.C,BAT+*%
X149600000Y-67000000D03*
%TD*%
D15*
%TO.C,PWR1*%
X164465000Y-61050000D03*
X164465000Y-68350000D03*
X166675000Y-61050000D03*
X166675000Y-68350000D03*
D16*
X163815000Y-62450000D03*
X163815000Y-65450000D03*
X163815000Y-66950000D03*
%TD*%
D10*
%TO.C,S7*%
X153725000Y-53050000D03*
D17*
X165275000Y-55250000D03*
%TD*%
D18*
%TO.C,S8*%
X176155395Y-109454174D03*
D19*
X164898630Y-106058922D03*
%TD*%
D10*
%TO.C,S6*%
X153725000Y-72000000D03*
D17*
X165275000Y-74200000D03*
%TD*%
D10*
%TO.C,S3*%
X115725000Y-51050000D03*
D17*
X127275000Y-53250000D03*
%TD*%
D20*
%TO.C,S9*%
X195233849Y-113744204D03*
D21*
X184737678Y-108445817D03*
%TD*%
D10*
%TO.C,S5*%
X134725000Y-47050000D03*
D17*
X146275000Y-49250000D03*
%TD*%
D12*
%TO.C,S2*%
X122275000Y-81950000D03*
D22*
X111100000Y-79750000D03*
%TD*%
D23*
%TO.C,MCU1*%
X169700000Y-95930000D03*
X167160000Y-95930000D03*
X164620000Y-95930000D03*
X162080000Y-95930000D03*
D24*
X162080000Y-84930000D03*
X164620000Y-84930000D03*
X167160000Y-84930000D03*
X169700000Y-84930000D03*
D25*
X169700000Y-85655000D03*
X167160000Y-85655000D03*
X164620000Y-85655000D03*
X162080000Y-85655000D03*
D26*
X162080000Y-95205000D03*
X164620000Y-95205000D03*
X167160000Y-95205000D03*
X169700000Y-95205000D03*
%TD*%
M02*
