%TF.GenerationSoftware,KiCad,Pcbnew,10.0.6*%
%TF.CreationDate,2026-09-29T21:42:56+02:00*%
%TF.ProjectId,2nr9_purox,326e7239-5f70-4757-926f-782e6b696361,v1.0.0*%
%TF.SameCoordinates,Original*%
%TF.FileFunction,Paste,Top*%
%TF.FilePolarity,Positive*%
%FSLAX46Y46*%
G04 Gerber Fmt 4.6, Leading zero omitted, Abs format (unit mm)*
G04 Created by KiCad (PCBNEW 10.0.6) date 2026-09-29 21:42:56*
%MOMM*%
%LPD*%
G01*
G04 APERTURE LIST*
G04 Aperture macros list*
%AMRotRect*
0 Rectangle, with rotation*
0 The origin of the aperture is its center*
0 $1 length*
0 $2 width*
0 $3 Rotation angle, in degrees counterclockwise*
0 Add horizontal line*
21,1,$1,$2,0,0,$3*%
%AMOutline5P*
0 Free polygon, 5 corners , with rotation*
0 The origin of the aperture is its center*
0 number of corners: always 5*
0 $1 to $10 corner X, Y*
0 $11 Rotation angle, in degrees counterclockwise*
0 create outline with 5 corners*
4,1,5,$1,$2,$3,$4,$5,$6,$7,$8,$9,$10,$1,$2,$11*%
%AMOutline6P*
0 Free polygon, 6 corners , with rotation*
0 The origin of the aperture is its center*
0 number of corners: always 6*
0 $1 to $12 corner X, Y*
0 $13 Rotation angle, in degrees counterclockwise*
0 create outline with 6 corners*
4,1,6,$1,$2,$3,$4,$5,$6,$7,$8,$9,$10,$11,$12,$1,$2,$13*%
%AMOutline7P*
0 Free polygon, 7 corners , with rotation*
0 The origin of the aperture is its center*
0 number of corners: always 7*
0 $1 to $14 corner X, Y*
0 $15 Rotation angle, in degrees counterclockwise*
0 create outline with 7 corners*
4,1,7,$1,$2,$3,$4,$5,$6,$7,$8,$9,$10,$11,$12,$13,$14,$1,$2,$15*%
%AMOutline8P*
0 Free polygon, 8 corners , with rotation*
0 The origin of the aperture is its center*
0 number of corners: always 8*
0 $1 to $16 corner X, Y*
0 $17 Rotation angle, in degrees counterclockwise*
0 create outline with 8 corners*
4,1,8,$1,$2,$3,$4,$5,$6,$7,$8,$9,$10,$11,$12,$13,$14,$15,$16,$1,$2,$17*%
%AMFreePoly0*
4,1,6,0.250000,0.000000,-0.250000,-0.625000,-0.500000,-0.625000,-0.500000,0.625000,-0.250000,0.625000,0.250000,0.000000,0.250000,0.000000,$1*%
%AMFreePoly1*
4,1,6,0.500000,-0.625000,-0.650000,-0.625000,-0.150000,0.000000,-0.650000,0.625000,0.500000,0.625000,0.500000,-0.625000,0.500000,-0.625000,$1*%
G04 Aperture macros list end*
%ADD10Outline5P,-1.300000X1.300000X1.300000X1.300000X1.300000X-0.117000X0.117000X-1.300000X-1.300000X-1.300000X0.000000*%
%ADD11R,2.600000X2.600000*%
%ADD12R,0.800000X1.000000*%
%ADD13R,1.500000X0.700000*%
%ADD14Outline5P,-1.300000X1.300000X1.300000X1.300000X1.300000X-0.117000X0.117000X-1.300000X-1.300000X-1.300000X174.000000*%
%ADD15RotRect,2.600000X2.600000X174.000000*%
%ADD16Outline5P,-1.300000X1.300000X1.300000X1.300000X1.300000X-0.117000X0.117000X-1.300000X-1.300000X-1.300000X180.000000*%
%ADD17Outline5P,-1.300000X1.300000X1.300000X1.300000X1.300000X-0.117000X0.117000X-1.300000X-1.300000X-1.300000X164.000000*%
%ADD18RotRect,2.600000X2.600000X164.000000*%
%ADD19FreePoly0,90.000000*%
%ADD20FreePoly0,270.000000*%
%ADD21FreePoly1,90.000000*%
%ADD22FreePoly1,270.000000*%
G04 APERTURE END LIST*
D10*
%TO.C,S1*%
X96802075Y-75091758D03*
D11*
X108352075Y-77291758D03*
%TD*%
D12*
%TO.C,PWR1*%
X164465000Y-61050000D03*
X164465000Y-68350000D03*
X166675000Y-61050000D03*
X166675000Y-68350000D03*
D13*
X163815000Y-66950000D03*
X163815000Y-63950000D03*
X163815000Y-62450000D03*
%TD*%
D10*
%TO.C,S7*%
X160275000Y-53050000D03*
D11*
X148725000Y-55250000D03*
%TD*%
D14*
%TO.C,S8*%
X169641276Y-108769513D03*
D15*
X181357967Y-107788868D03*
%TD*%
D10*
%TO.C,S6*%
X160275000Y-72050000D03*
D11*
X148725000Y-74250000D03*
%TD*%
D16*
%TO.C,S4*%
X141275000Y-77950000D03*
D11*
X129725000Y-75750000D03*
%TD*%
D10*
%TO.C,S3*%
X122275000Y-51050000D03*
D11*
X110725000Y-53250000D03*
%TD*%
D17*
%TO.C,S9*%
X188937585Y-111938780D03*
D18*
X200646558Y-113007615D03*
%TD*%
D10*
%TO.C,S5*%
X141275000Y-47050000D03*
D11*
X129725000Y-49250000D03*
%TD*%
D16*
%TO.C,S2*%
X115725000Y-81950000D03*
D11*
X127275000Y-79750000D03*
%TD*%
D19*
%TO.C,MCU1*%
X169700000Y-95930000D03*
X167160000Y-95930000D03*
X164620000Y-95930000D03*
X162080000Y-95930000D03*
D20*
X162080000Y-84930000D03*
X164620000Y-84930000D03*
X167160000Y-84930000D03*
X169700000Y-84930000D03*
D21*
X169700000Y-95205000D03*
X167160000Y-95205000D03*
X164620000Y-95205000D03*
X162080000Y-95205000D03*
D22*
X162080000Y-85655000D03*
X164620000Y-85655000D03*
X167160000Y-85655000D03*
X169700000Y-85655000D03*
%TD*%
M02*
