%TF.GenerationSoftware,KiCad,Pcbnew,10.0.6*%
%TF.CreationDate,2026-09-29T21:42:56+02:00*%
%TF.ProjectId,2nr9_purox,326e7239-5f70-4757-926f-782e6b696361,v1.0.0*%
%TF.SameCoordinates,Original*%
%TF.FileFunction,Soldermask,Bot*%
%TF.FilePolarity,Negative*%
%FSLAX46Y46*%
G04 Gerber Fmt 4.6, Leading zero omitted, Abs format (unit mm)*
G04 Created by KiCad (PCBNEW 10.0.6) date 2026-09-29 21:42:56*
%MOMM*%
%LPD*%
G01*
G04 APERTURE LIST*
G04 Aperture macros list*
%AMRoundRect*
0 Rectangle with rounded corners*
0 $1 Rounding radius*
0 $2 $3 $4 $5 $6 $7 $8 $9 X,Y pos of 4 corners*
0 Add a 4 corners polygon primitive as box body*
4,1,4,$2,$3,$4,$5,$6,$7,$8,$9,$2,$3,0*
0 Add four circle primitives for the rounded corners*
1,1,$1+$1,$2,$3*
1,1,$1+$1,$4,$5*
1,1,$1+$1,$6,$7*
1,1,$1+$1,$8,$9*
0 Add four rect primitives between the rounded corners*
20,1,$1+$1,$2,$3,$4,$5,0*
20,1,$1+$1,$4,$5,$6,$7,0*
20,1,$1+$1,$6,$7,$8,$9,0*
20,1,$1+$1,$8,$9,$2,$3,0*%
%AMFreePoly0*
4,1,14,1.335355,1.335355,1.350000,1.300000,1.350000,-1.300000,1.335355,-1.335355,1.300000,-1.350000,-0.117000,-1.350000,-0.152355,-1.335355,-1.335355,-0.152355,-1.350000,-0.117000,-1.350000,1.300000,-1.335355,1.335355,-1.300000,1.350000,1.300000,1.350000,1.335355,1.335355,1.335355,1.335355,$1*%
%AMFreePoly1*
4,1,16,-0.214645,0.660355,-0.210957,0.656235,0.289043,0.031235,0.299694,-0.005522,0.289043,-0.031235,-0.210957,-0.656235,-0.244478,-0.674694,-0.250000,-0.675000,-0.500000,-0.675000,-0.535355,-0.660355,-0.550000,-0.625000,-0.550000,0.625000,-0.535355,0.660355,-0.500000,0.675000,-0.250000,0.675000,-0.214645,0.660355,-0.214645,0.660355,$1*%
%AMFreePoly2*
4,1,16,0.535355,0.660355,0.550000,0.625000,0.550000,-0.625000,0.535355,-0.660355,0.500000,-0.675000,-0.650000,-0.675000,-0.685355,-0.660355,-0.700000,-0.625000,-0.689043,-0.593765,-0.214031,0.000000,-0.689043,0.593765,-0.699694,0.630522,-0.681235,0.664043,-0.650000,0.675000,0.500000,0.675000,0.535355,0.660355,0.535355,0.660355,$1*%
G04 Aperture macros list end*
%ADD10C,0.000000*%
%ADD11C,2.300000*%
%ADD12RoundRect,0.350000X-0.700000X-0.700000X0.700000X-0.700000X0.700000X0.700000X-0.700000X0.700000X0*%
%ADD13C,1.800000*%
%ADD14C,3.100000*%
%ADD15C,5.100000*%
%ADD16FreePoly0,0.000000*%
%ADD17RoundRect,0.050000X-1.300000X-1.300000X1.300000X-1.300000X1.300000X1.300000X-1.300000X1.300000X0*%
%ADD18RoundRect,0.050000X-0.400000X0.500000X-0.400000X-0.500000X0.400000X-0.500000X0.400000X0.500000X0*%
%ADD19C,1.000000*%
%ADD20RoundRect,0.050000X-0.750000X0.350000X-0.750000X-0.350000X0.750000X-0.350000X0.750000X0.350000X0*%
%ADD21RoundRect,0.050000X0.750000X-0.350000X0.750000X0.350000X-0.750000X0.350000X-0.750000X-0.350000X0*%
%ADD22FreePoly0,174.000000*%
%ADD23RoundRect,0.050000X1.428765X1.156991X-1.156991X1.428765X-1.428765X-1.156991X1.156991X-1.428765X0*%
%ADD24FreePoly0,180.000000*%
%ADD25RoundRect,0.050000X1.300000X1.300000X-1.300000X1.300000X-1.300000X-1.300000X1.300000X-1.300000X0*%
%ADD26FreePoly0,164.000000*%
%ADD27RoundRect,0.050000X1.607969X0.891312X-0.891312X1.607969X-1.607969X-0.891312X0.891312X-1.607969X0*%
%ADD28RoundRect,0.350000X0.700000X0.700000X-0.700000X0.700000X-0.700000X-0.700000X0.700000X-0.700000X0*%
%ADD29FreePoly1,90.000000*%
%ADD30FreePoly1,270.000000*%
%ADD31FreePoly2,270.000000*%
%ADD32C,0.900000*%
%ADD33FreePoly2,90.000000*%
G04 APERTURE END LIST*
D10*
%TO.C,REF\u002A\u002A*%
G36*
X198025140Y-105396633D02*
G01*
X197810434Y-105396633D01*
X197810434Y-105289280D01*
X198025140Y-105289280D01*
X198025140Y-105396633D01*
G37*
G36*
X198132501Y-105289280D02*
G01*
X198025140Y-105289280D01*
X198025140Y-104967266D01*
X198132501Y-104967266D01*
X198132501Y-105289280D01*
G37*
G36*
X198560358Y-104752567D02*
G01*
X198345651Y-104752567D01*
X198345651Y-104645259D01*
X198560358Y-104645259D01*
X198560358Y-104752567D01*
G37*
G36*
X198667673Y-105609790D02*
G01*
X198560358Y-105609790D01*
X198560358Y-105502445D01*
X198667673Y-105502445D01*
X198667673Y-105609790D01*
G37*
G36*
X198775018Y-105717151D02*
G01*
X198667673Y-105717151D01*
X198667673Y-105609790D01*
X198775018Y-105609790D01*
X198775018Y-105717151D01*
G37*
G36*
X199202890Y-105824451D02*
G01*
X198775018Y-105824451D01*
X198775018Y-105717151D01*
X199202890Y-105717151D01*
X199202890Y-105824451D01*
G37*
G36*
X199310236Y-104752567D02*
G01*
X199202890Y-104752567D01*
X199202890Y-104645259D01*
X199310236Y-104645259D01*
X199310236Y-104752567D01*
G37*
G36*
X199310236Y-105717151D02*
G01*
X199202890Y-105717151D01*
X199202890Y-105609790D01*
X199310236Y-105609790D01*
X199310236Y-105717151D01*
G37*
G36*
X199417551Y-104859912D02*
G01*
X199310236Y-104859912D01*
X199310236Y-104752567D01*
X199417551Y-104752567D01*
X199417551Y-104859912D01*
G37*
G36*
X199417551Y-105611293D02*
G01*
X199310236Y-105611293D01*
X199310236Y-105396633D01*
X199417551Y-105396633D01*
X199417551Y-105611293D01*
G37*
G36*
X199524896Y-105395092D02*
G01*
X199417551Y-105395092D01*
X199417551Y-104859912D01*
X199524896Y-104859912D01*
X199524896Y-105395092D01*
G37*
G36*
X198347162Y-104646755D02*
G01*
X198239801Y-104646755D01*
X198239801Y-104968769D01*
X198132501Y-104968769D01*
X198132501Y-104539402D01*
X198347162Y-104539402D01*
X198347162Y-104646755D01*
G37*
G36*
X197917795Y-104217395D02*
G01*
X198132501Y-104217395D01*
X198132501Y-104324741D01*
X198453012Y-104324741D01*
X198453012Y-104432056D01*
X198560373Y-104432056D01*
X198560373Y-104645267D01*
X198345666Y-104645267D01*
X198345666Y-104539409D01*
X198132501Y-104539409D01*
X198132501Y-104967273D01*
X198025140Y-104967273D01*
X198025140Y-105289280D01*
X197810434Y-105289280D01*
X197810434Y-104752567D01*
X197917795Y-104752567D01*
X197917795Y-104432056D01*
X197810434Y-104432056D01*
X197810434Y-104324741D01*
X197703134Y-104324741D01*
X197703134Y-104110035D01*
X197917795Y-104110035D01*
X197917795Y-104217395D01*
G37*
G36*
X199202890Y-104752567D02*
G01*
X199310236Y-104752567D01*
X199310236Y-104859912D01*
X199417551Y-104859912D01*
X199417551Y-105396633D01*
X199310236Y-105396633D01*
X199310236Y-105609790D01*
X199202890Y-105609790D01*
X199202890Y-105717151D01*
X198775018Y-105717151D01*
X198775018Y-105609790D01*
X198667673Y-105609790D01*
X198667673Y-105502445D01*
X198560358Y-105502445D01*
X198560358Y-105181926D01*
X198775018Y-105181926D01*
X198775018Y-105396625D01*
X198882379Y-105396625D01*
X198882379Y-105502445D01*
X199097040Y-105502445D01*
X199097040Y-105289280D01*
X199202890Y-105289280D01*
X199202890Y-104967273D01*
X199097040Y-104967273D01*
X199097040Y-104859912D01*
X198775018Y-104859912D01*
X198775018Y-104645252D01*
X199202890Y-104645252D01*
X199202890Y-104752567D01*
G37*
G36*
X197595773Y-106574329D02*
G01*
X197703134Y-106574329D01*
X197703134Y-106681682D01*
X197810434Y-106681682D01*
X197810434Y-106789035D01*
X198025140Y-106789035D01*
X198025140Y-106896343D01*
X198132501Y-106896343D01*
X198132501Y-107002201D01*
X198239801Y-107002201D01*
X198239801Y-107109500D01*
X198453012Y-107109500D01*
X198453012Y-107216861D01*
X198667673Y-107216861D01*
X198667673Y-107324207D01*
X198882379Y-107324207D01*
X198882379Y-107431568D01*
X198989725Y-107431568D01*
X198989725Y-107538868D01*
X198775018Y-107538868D01*
X198775018Y-107646228D01*
X198239801Y-107646228D01*
X198239801Y-107538868D01*
X198132501Y-107538868D01*
X198132501Y-107431568D01*
X198025140Y-107431568D01*
X198025140Y-107324207D01*
X197595773Y-107324207D01*
X197595773Y-107216861D01*
X197489938Y-107216861D01*
X197489938Y-106896343D01*
X197382623Y-106896343D01*
X197382623Y-106789035D01*
X197275262Y-106789035D01*
X197275262Y-106466983D01*
X197489938Y-106466983D01*
X197489938Y-106359668D01*
X197595773Y-106359668D01*
X197595773Y-106574329D01*
G37*
G36*
X200809991Y-106252323D02*
G01*
X200917352Y-106252323D01*
X200917352Y-106359668D01*
X201024652Y-106359668D01*
X201024652Y-106466983D01*
X201239358Y-106466983D01*
X201239358Y-106359668D01*
X201346719Y-106359668D01*
X201346719Y-106252323D01*
X201881891Y-106252323D01*
X201881891Y-106359668D01*
X201989236Y-106359668D01*
X201989236Y-107109500D01*
X202203897Y-107109500D01*
X202203897Y-107216861D01*
X202311258Y-107216861D01*
X202311258Y-107431560D01*
X202203897Y-107431560D01*
X202203897Y-107538868D01*
X202096597Y-107538868D01*
X202096597Y-107753574D01*
X201989236Y-107753574D01*
X201989236Y-107859378D01*
X201774530Y-107859378D01*
X201774530Y-107966739D01*
X201667230Y-107966739D01*
X201667230Y-108074085D01*
X201559869Y-108074085D01*
X201559869Y-108181400D01*
X201346704Y-108181400D01*
X201346704Y-108288745D01*
X200596826Y-108288745D01*
X200596826Y-108181400D01*
X200489481Y-108181400D01*
X200489481Y-108074085D01*
X200382120Y-108074085D01*
X200382120Y-107966739D01*
X200274774Y-107966739D01*
X200274774Y-107859378D01*
X200167413Y-107859378D01*
X200167413Y-106681682D01*
X200274774Y-106681682D01*
X200274774Y-106466983D01*
X200382120Y-106466983D01*
X200382120Y-106252323D01*
X200596826Y-106252323D01*
X200596826Y-106146465D01*
X200809991Y-106146465D01*
X200809991Y-106252323D01*
G37*
G36*
X199737848Y-101860462D02*
G01*
X199737848Y-102073627D01*
X199845193Y-102073627D01*
X199845193Y-102288288D01*
X199952554Y-102288288D01*
X199952554Y-102502987D01*
X200059915Y-102502987D01*
X200059915Y-102717647D01*
X199952554Y-102717647D01*
X199952554Y-102825000D01*
X198882379Y-102825000D01*
X198882379Y-102717647D01*
X198560358Y-102717647D01*
X198560358Y-102610340D01*
X198345651Y-102610340D01*
X198345651Y-102502987D01*
X198238306Y-102502987D01*
X198238306Y-102395633D01*
X198130945Y-102395633D01*
X198130945Y-102288280D01*
X198023645Y-102288280D01*
X198023645Y-102180973D01*
X197916284Y-102180973D01*
X197916284Y-102073619D01*
X197808939Y-102073619D01*
X197808939Y-101966266D01*
X197701578Y-101966266D01*
X197701578Y-101753109D01*
X198882165Y-101753109D01*
X198882165Y-101860462D01*
X198989511Y-101860462D01*
X198989511Y-101753109D01*
X199204172Y-101753109D01*
X199204172Y-101645755D01*
X198989511Y-101645755D01*
X198989511Y-101753109D01*
X198882165Y-101753109D01*
X197701578Y-101753109D01*
X197701578Y-101751606D01*
X197594278Y-101751606D01*
X197594278Y-101644252D01*
X197486917Y-101644252D01*
X197486917Y-101216434D01*
X197808939Y-101216434D01*
X197808939Y-101323734D01*
X198023645Y-101323734D01*
X198023645Y-101431095D01*
X198773523Y-101431095D01*
X198773523Y-101323734D01*
X198988184Y-101323734D01*
X198987970Y-101216434D01*
X199523187Y-101216434D01*
X199523187Y-101323742D01*
X199630533Y-101323742D01*
X199630533Y-101645755D01*
X199630533Y-101751606D01*
X199737848Y-101751606D01*
X199737848Y-101753109D01*
X199737848Y-101860462D01*
G37*
%TD*%
D11*
%TO.C,MH2*%
X147600000Y-52000000D03*
%TD*%
D12*
%TO.C,BAT -*%
X148800000Y-61200000D03*
%TD*%
D11*
%TO.C,MH1*%
X109400000Y-73400000D03*
%TD*%
D13*
%TO.C,RST1*%
X137450000Y-83590000D03*
X130950000Y-83590000D03*
%TD*%
D12*
%TO.C,BAT+*%
X149600000Y-67000000D03*
%TD*%
D11*
%TO.C,MH3*%
X184600000Y-100000000D03*
%TD*%
D14*
%TO.C,S1*%
X95077075Y-77291758D03*
X100077075Y-75091758D03*
D15*
X100077075Y-81041758D03*
D14*
X105077075Y-77291757D03*
D16*
X103352075Y-75091758D03*
D17*
X91802075Y-77291758D03*
%TD*%
D18*
%TO.C,PWR1*%
X164465000Y-61050000D03*
X164465000Y-68350000D03*
D19*
X165575000Y-63200000D03*
X165575000Y-66200000D03*
D18*
X166675000Y-61050000D03*
X166675000Y-68350000D03*
D20*
X163815000Y-62450000D03*
X163815000Y-65450000D03*
D21*
X163815000Y-66950000D03*
%TD*%
D14*
%TO.C,S7*%
X152000000Y-55250000D03*
X157000000Y-53050000D03*
D15*
X157000000Y-59000000D03*
D14*
X162000000Y-55250000D03*
D16*
X153725000Y-53050000D03*
D17*
X165275000Y-55250000D03*
%TD*%
D14*
%TO.C,S8*%
X178100908Y-107446537D03*
X172898336Y-109111843D03*
D15*
X173520280Y-103194438D03*
D14*
X168155689Y-106401253D03*
D22*
X176155395Y-109454174D03*
D23*
X164898630Y-106058922D03*
%TD*%
D14*
%TO.C,S6*%
X152000000Y-74250000D03*
X157000000Y-72050000D03*
D15*
X157000000Y-78000000D03*
D14*
X162000000Y-74250000D03*
D16*
X153725000Y-72050000D03*
D17*
X165275000Y-74250000D03*
%TD*%
D14*
%TO.C,S4*%
X142999999Y-75750000D03*
X138000000Y-77950000D03*
D15*
X138000000Y-72000000D03*
D14*
X133000001Y-75750000D03*
D24*
X134725000Y-77950000D03*
D25*
X146275000Y-75750000D03*
%TD*%
D14*
%TO.C,S3*%
X114000000Y-53250000D03*
X119000000Y-51050000D03*
D15*
X119000000Y-57000000D03*
D14*
X124000000Y-53250000D03*
D16*
X115725000Y-51050000D03*
D17*
X127275000Y-53250000D03*
%TD*%
D14*
%TO.C,S9*%
X197498427Y-112104903D03*
X192085717Y-112841492D03*
D15*
X193725759Y-107121985D03*
D14*
X187885810Y-109348531D03*
D26*
X195233849Y-113744204D03*
D27*
X184737678Y-108445817D03*
%TD*%
D14*
%TO.C,S5*%
X133000000Y-49250000D03*
X138000000Y-47050000D03*
D15*
X138000000Y-53000000D03*
D14*
X143000000Y-49250000D03*
D16*
X134725000Y-47050000D03*
D17*
X146275000Y-49250000D03*
%TD*%
D28*
%TO.C,BAT -*%
X148800000Y-61200000D03*
%TD*%
%TO.C,BAT +*%
X149600000Y-67000000D03*
%TD*%
D14*
%TO.C,S2*%
X123999999Y-79750000D03*
X119000000Y-81950000D03*
D15*
X119000000Y-76000000D03*
D14*
X114000001Y-79750000D03*
D24*
X122275000Y-81950000D03*
D25*
X110725000Y-79750000D03*
%TD*%
D29*
%TO.C,MCU1*%
X169700000Y-95930000D03*
D13*
X169700000Y-98050000D03*
D29*
X167160000Y-95930000D03*
D13*
X167160000Y-98050000D03*
D29*
X164620000Y-95930000D03*
D13*
X164620000Y-98050000D03*
D29*
X162080000Y-95930000D03*
D13*
X162080000Y-98050000D03*
X159540000Y-98050000D03*
X157000000Y-98050000D03*
X154460000Y-98050000D03*
X151920000Y-98050000D03*
X149380000Y-98050000D03*
X146840000Y-98050000D03*
X144300000Y-98050000D03*
X141760000Y-98050000D03*
X141760000Y-82810000D03*
X144300000Y-82810000D03*
X146840000Y-82810000D03*
X149380000Y-82810000D03*
X151920000Y-82810000D03*
X154460000Y-82810000D03*
X157000000Y-82810000D03*
X159540000Y-82810000D03*
X162080000Y-82810000D03*
D30*
X162080000Y-84930000D03*
D13*
X164620000Y-82810000D03*
D30*
X164620000Y-84930000D03*
D13*
X167160000Y-82810000D03*
D30*
X167160000Y-84930000D03*
D13*
X169700000Y-82810000D03*
D30*
X169700000Y-84930000D03*
D31*
X169700000Y-85655000D03*
D32*
X169700000Y-93830000D03*
D31*
X167160000Y-85655000D03*
D32*
X167160000Y-93830000D03*
D31*
X164620000Y-85655000D03*
D32*
X164620000Y-93830000D03*
D31*
X162080000Y-85655000D03*
D32*
X162080000Y-93830000D03*
X162080000Y-87030000D03*
D33*
X162080000Y-95205000D03*
D32*
X164620000Y-87030000D03*
D33*
X164620000Y-95205000D03*
D32*
X167160000Y-87030000D03*
D33*
X167160000Y-95205000D03*
D32*
X169700000Y-87030000D03*
D33*
X169700000Y-95205000D03*
%TD*%
M02*
