M48
; DRILL file KiCad 10.0.6 date 2026-09-30T11:10:55
; FORMAT={-:-/ absolute / metric / decimal}
; #@! TF.CreationDate,2026-09-30T11:10:55+02:00
; #@! TF.GenerationSoftware,Kicad,Pcbnew,10.0.6
; #@! TF.FileFunction,Plated,1,2,PTH
FMAT,2
METRIC
; #@! TA.AperFunction,Plated,PTH,ViaDrill
T1C0.300
; #@! TA.AperFunction,Plated,PTH,ViaDrill
T2C0.400
; #@! TA.AperFunction,Plated,PTH,ComponentDrill
T3C0.400
; #@! TA.AperFunction,Plated,PTH,ComponentDrill
T4C1.000
%
G90
G05
T1
X99.999Y-77.167
X99.999Y-77.967
X119.0Y-53.125
X119.0Y-53.925
X119.0Y-79.075
X119.0Y-79.875
X124.2Y-48.6
X127.4Y-50.0
X138.0Y-49.125
X138.0Y-49.925
X138.125Y-75.05
X138.125Y-75.85
X147.8Y-71.2
X149.0Y-70.2
X150.4Y-69.2
X151.4Y-63.2
X155.6Y-63.2
X157.0Y-55.125
X157.0Y-55.925
X157.0Y-74.125
X157.0Y-74.925
X159.8Y-85.0
X159.8Y-88.6
X161.0Y-68.8
X165.6Y-71.6
X168.4Y-90.0
X168.4Y-95.4
X168.4Y-100.2
X173.115Y-107.048
X173.199Y-106.253
X192.658Y-110.847
X192.878Y-110.078
T2
X160.4Y-66.2
X163.815Y-63.95
X163.815Y-66.95
T3
X162.08Y-87.03
X162.08Y-93.83
X164.62Y-87.03
X164.62Y-93.83
X167.16Y-87.03
X167.16Y-93.83
X169.7Y-87.03
X169.7Y-93.83
T4
X130.95Y-83.59
X137.45Y-83.59
X141.76Y-82.81
X141.76Y-98.05
X144.3Y-82.81
X144.3Y-98.05
X146.84Y-82.81
X146.84Y-98.05
X148.8Y-61.2
X149.38Y-82.81
X149.38Y-98.05
X149.6Y-67.0
X151.92Y-82.81
X151.92Y-98.05
X154.46Y-82.81
X154.46Y-98.05
X157.0Y-82.81
X157.0Y-98.05
X159.54Y-82.81
X159.54Y-98.05
X162.08Y-82.81
X162.08Y-98.05
X164.62Y-82.81
X164.62Y-98.05
X167.16Y-82.81
X167.16Y-98.05
X169.7Y-82.81
X169.7Y-98.05
M30
