%TF.GenerationSoftware,KiCad,Pcbnew,10.0.6*%
%TF.CreationDate,2026-09-30T11:10:58+02:00*%
%TF.ProjectId,2nr9_v2,326e7239-5f76-4322-9e6b-696361645f70,v1.0.0*%
%TF.SameCoordinates,Original*%
%TF.FileFunction,Legend,Bot*%
%TF.FilePolarity,Positive*%
%FSLAX46Y46*%
G04 Gerber Fmt 4.6, Leading zero omitted, Abs format (unit mm)*
G04 Created by KiCad (PCBNEW 10.0.6) date 2026-09-30 11:10:58*
%MOMM*%
%LPD*%
G01*
G04 APERTURE LIST*
%ADD10C,0.150000*%
%ADD11C,0.100000*%
%ADD12C,0.120000*%
%ADD13C,0.000000*%
G04 APERTURE END LIST*
D10*
X134747619Y-84044819D02*
X135080952Y-83568628D01*
X135319047Y-84044819D02*
X135319047Y-83044819D01*
X135319047Y-83044819D02*
X134938095Y-83044819D01*
X134938095Y-83044819D02*
X134842857Y-83092438D01*
X134842857Y-83092438D02*
X134795238Y-83140057D01*
X134795238Y-83140057D02*
X134747619Y-83235295D01*
X134747619Y-83235295D02*
X134747619Y-83378152D01*
X134747619Y-83378152D02*
X134795238Y-83473390D01*
X134795238Y-83473390D02*
X134842857Y-83521009D01*
X134842857Y-83521009D02*
X134938095Y-83568628D01*
X134938095Y-83568628D02*
X135319047Y-83568628D01*
X134366666Y-83997200D02*
X134223809Y-84044819D01*
X134223809Y-84044819D02*
X133985714Y-84044819D01*
X133985714Y-84044819D02*
X133890476Y-83997200D01*
X133890476Y-83997200D02*
X133842857Y-83949580D01*
X133842857Y-83949580D02*
X133795238Y-83854342D01*
X133795238Y-83854342D02*
X133795238Y-83759104D01*
X133795238Y-83759104D02*
X133842857Y-83663866D01*
X133842857Y-83663866D02*
X133890476Y-83616247D01*
X133890476Y-83616247D02*
X133985714Y-83568628D01*
X133985714Y-83568628D02*
X134176190Y-83521009D01*
X134176190Y-83521009D02*
X134271428Y-83473390D01*
X134271428Y-83473390D02*
X134319047Y-83425771D01*
X134319047Y-83425771D02*
X134366666Y-83330533D01*
X134366666Y-83330533D02*
X134366666Y-83235295D01*
X134366666Y-83235295D02*
X134319047Y-83140057D01*
X134319047Y-83140057D02*
X134271428Y-83092438D01*
X134271428Y-83092438D02*
X134176190Y-83044819D01*
X134176190Y-83044819D02*
X133938095Y-83044819D01*
X133938095Y-83044819D02*
X133795238Y-83092438D01*
X133509523Y-83044819D02*
X132938095Y-83044819D01*
X133223809Y-84044819D02*
X133223809Y-83044819D01*
X166502380Y-59154819D02*
X166311904Y-59154819D01*
X166311904Y-59154819D02*
X166216666Y-59202438D01*
X166216666Y-59202438D02*
X166121428Y-59297676D01*
X166121428Y-59297676D02*
X166073809Y-59488152D01*
X166073809Y-59488152D02*
X166073809Y-59821485D01*
X166073809Y-59821485D02*
X166121428Y-60011961D01*
X166121428Y-60011961D02*
X166216666Y-60107200D01*
X166216666Y-60107200D02*
X166311904Y-60154819D01*
X166311904Y-60154819D02*
X166502380Y-60154819D01*
X166502380Y-60154819D02*
X166597618Y-60107200D01*
X166597618Y-60107200D02*
X166692856Y-60011961D01*
X166692856Y-60011961D02*
X166740475Y-59821485D01*
X166740475Y-59821485D02*
X166740475Y-59488152D01*
X166740475Y-59488152D02*
X166692856Y-59297676D01*
X166692856Y-59297676D02*
X166597618Y-59202438D01*
X166597618Y-59202438D02*
X166502380Y-59154819D01*
X165311904Y-59631009D02*
X165645237Y-59631009D01*
X165645237Y-60154819D02*
X165645237Y-59154819D01*
X165645237Y-59154819D02*
X165169047Y-59154819D01*
X164454761Y-59631009D02*
X164788094Y-59631009D01*
X164788094Y-60154819D02*
X164788094Y-59154819D01*
X164788094Y-59154819D02*
X164311904Y-59154819D01*
X166169047Y-69154819D02*
X165978571Y-69154819D01*
X165978571Y-69154819D02*
X165883333Y-69202438D01*
X165883333Y-69202438D02*
X165788095Y-69297676D01*
X165788095Y-69297676D02*
X165740476Y-69488152D01*
X165740476Y-69488152D02*
X165740476Y-69821485D01*
X165740476Y-69821485D02*
X165788095Y-70011961D01*
X165788095Y-70011961D02*
X165883333Y-70107200D01*
X165883333Y-70107200D02*
X165978571Y-70154819D01*
X165978571Y-70154819D02*
X166169047Y-70154819D01*
X166169047Y-70154819D02*
X166264285Y-70107200D01*
X166264285Y-70107200D02*
X166359523Y-70011961D01*
X166359523Y-70011961D02*
X166407142Y-69821485D01*
X166407142Y-69821485D02*
X166407142Y-69488152D01*
X166407142Y-69488152D02*
X166359523Y-69297676D01*
X166359523Y-69297676D02*
X166264285Y-69202438D01*
X166264285Y-69202438D02*
X166169047Y-69154819D01*
X165311904Y-70154819D02*
X165311904Y-69154819D01*
X165311904Y-69154819D02*
X164740476Y-70154819D01*
X164740476Y-70154819D02*
X164740476Y-69154819D01*
D11*
X150538095Y-60633609D02*
X150395238Y-60681228D01*
X150395238Y-60681228D02*
X150347619Y-60728847D01*
X150347619Y-60728847D02*
X150300000Y-60824085D01*
X150300000Y-60824085D02*
X150300000Y-60966942D01*
X150300000Y-60966942D02*
X150347619Y-61062180D01*
X150347619Y-61062180D02*
X150395238Y-61109800D01*
X150395238Y-61109800D02*
X150490476Y-61157419D01*
X150490476Y-61157419D02*
X150871428Y-61157419D01*
X150871428Y-61157419D02*
X150871428Y-60157419D01*
X150871428Y-60157419D02*
X150538095Y-60157419D01*
X150538095Y-60157419D02*
X150442857Y-60205038D01*
X150442857Y-60205038D02*
X150395238Y-60252657D01*
X150395238Y-60252657D02*
X150347619Y-60347895D01*
X150347619Y-60347895D02*
X150347619Y-60443133D01*
X150347619Y-60443133D02*
X150395238Y-60538371D01*
X150395238Y-60538371D02*
X150442857Y-60585990D01*
X150442857Y-60585990D02*
X150538095Y-60633609D01*
X150538095Y-60633609D02*
X150871428Y-60633609D01*
X149919047Y-60871704D02*
X149442857Y-60871704D01*
X150014285Y-61157419D02*
X149680952Y-60157419D01*
X149680952Y-60157419D02*
X149347619Y-61157419D01*
X149157142Y-60157419D02*
X148585714Y-60157419D01*
X148871428Y-61157419D02*
X148871428Y-60157419D01*
X147490475Y-60776466D02*
X146728571Y-60776466D01*
X151338095Y-66433609D02*
X151195238Y-66481228D01*
X151195238Y-66481228D02*
X151147619Y-66528847D01*
X151147619Y-66528847D02*
X151100000Y-66624085D01*
X151100000Y-66624085D02*
X151100000Y-66766942D01*
X151100000Y-66766942D02*
X151147619Y-66862180D01*
X151147619Y-66862180D02*
X151195238Y-66909800D01*
X151195238Y-66909800D02*
X151290476Y-66957419D01*
X151290476Y-66957419D02*
X151671428Y-66957419D01*
X151671428Y-66957419D02*
X151671428Y-65957419D01*
X151671428Y-65957419D02*
X151338095Y-65957419D01*
X151338095Y-65957419D02*
X151242857Y-66005038D01*
X151242857Y-66005038D02*
X151195238Y-66052657D01*
X151195238Y-66052657D02*
X151147619Y-66147895D01*
X151147619Y-66147895D02*
X151147619Y-66243133D01*
X151147619Y-66243133D02*
X151195238Y-66338371D01*
X151195238Y-66338371D02*
X151242857Y-66385990D01*
X151242857Y-66385990D02*
X151338095Y-66433609D01*
X151338095Y-66433609D02*
X151671428Y-66433609D01*
X150719047Y-66671704D02*
X150242857Y-66671704D01*
X150814285Y-66957419D02*
X150480952Y-65957419D01*
X150480952Y-65957419D02*
X150147619Y-66957419D01*
X149957142Y-65957419D02*
X149385714Y-65957419D01*
X149671428Y-66957419D02*
X149671428Y-65957419D01*
X148290475Y-66576466D02*
X147528571Y-66576466D01*
X147909523Y-66957419D02*
X147909523Y-66195514D01*
D10*
X142214819Y-85221905D02*
X141214819Y-85221905D01*
X141214819Y-85221905D02*
X141214819Y-85602857D01*
X141214819Y-85602857D02*
X141262438Y-85698095D01*
X141262438Y-85698095D02*
X141310057Y-85745714D01*
X141310057Y-85745714D02*
X141405295Y-85793333D01*
X141405295Y-85793333D02*
X141548152Y-85793333D01*
X141548152Y-85793333D02*
X141643390Y-85745714D01*
X141643390Y-85745714D02*
X141691009Y-85698095D01*
X141691009Y-85698095D02*
X141738628Y-85602857D01*
X141738628Y-85602857D02*
X141738628Y-85221905D01*
X142214819Y-86269524D02*
X142214819Y-86460000D01*
X142214819Y-86460000D02*
X142167200Y-86555238D01*
X142167200Y-86555238D02*
X142119580Y-86602857D01*
X142119580Y-86602857D02*
X141976723Y-86698095D01*
X141976723Y-86698095D02*
X141786247Y-86745714D01*
X141786247Y-86745714D02*
X141405295Y-86745714D01*
X141405295Y-86745714D02*
X141310057Y-86698095D01*
X141310057Y-86698095D02*
X141262438Y-86650476D01*
X141262438Y-86650476D02*
X141214819Y-86555238D01*
X141214819Y-86555238D02*
X141214819Y-86364762D01*
X141214819Y-86364762D02*
X141262438Y-86269524D01*
X141262438Y-86269524D02*
X141310057Y-86221905D01*
X141310057Y-86221905D02*
X141405295Y-86174286D01*
X141405295Y-86174286D02*
X141643390Y-86174286D01*
X141643390Y-86174286D02*
X141738628Y-86221905D01*
X141738628Y-86221905D02*
X141786247Y-86269524D01*
X141786247Y-86269524D02*
X141833866Y-86364762D01*
X141833866Y-86364762D02*
X141833866Y-86555238D01*
X141833866Y-86555238D02*
X141786247Y-86650476D01*
X141786247Y-86650476D02*
X141738628Y-86698095D01*
X141738628Y-86698095D02*
X141643390Y-86745714D01*
X142214819Y-93685714D02*
X141214819Y-93685714D01*
X141214819Y-93685714D02*
X141214819Y-94066666D01*
X141214819Y-94066666D02*
X141262438Y-94161904D01*
X141262438Y-94161904D02*
X141310057Y-94209523D01*
X141310057Y-94209523D02*
X141405295Y-94257142D01*
X141405295Y-94257142D02*
X141548152Y-94257142D01*
X141548152Y-94257142D02*
X141643390Y-94209523D01*
X141643390Y-94209523D02*
X141691009Y-94161904D01*
X141691009Y-94161904D02*
X141738628Y-94066666D01*
X141738628Y-94066666D02*
X141738628Y-93685714D01*
X142214819Y-95209523D02*
X142214819Y-94638095D01*
X142214819Y-94923809D02*
X141214819Y-94923809D01*
X141214819Y-94923809D02*
X141357676Y-94828571D01*
X141357676Y-94828571D02*
X141452914Y-94733333D01*
X141452914Y-94733333D02*
X141500533Y-94638095D01*
X141214819Y-95828571D02*
X141214819Y-95923809D01*
X141214819Y-95923809D02*
X141262438Y-96019047D01*
X141262438Y-96019047D02*
X141310057Y-96066666D01*
X141310057Y-96066666D02*
X141405295Y-96114285D01*
X141405295Y-96114285D02*
X141595771Y-96161904D01*
X141595771Y-96161904D02*
X141833866Y-96161904D01*
X141833866Y-96161904D02*
X142024342Y-96114285D01*
X142024342Y-96114285D02*
X142119580Y-96066666D01*
X142119580Y-96066666D02*
X142167200Y-96019047D01*
X142167200Y-96019047D02*
X142214819Y-95923809D01*
X142214819Y-95923809D02*
X142214819Y-95828571D01*
X142214819Y-95828571D02*
X142167200Y-95733333D01*
X142167200Y-95733333D02*
X142119580Y-95685714D01*
X142119580Y-95685714D02*
X142024342Y-95638095D01*
X142024342Y-95638095D02*
X141833866Y-95590476D01*
X141833866Y-95590476D02*
X141595771Y-95590476D01*
X141595771Y-95590476D02*
X141405295Y-95638095D01*
X141405295Y-95638095D02*
X141310057Y-95685714D01*
X141310057Y-95685714D02*
X141262438Y-95733333D01*
X141262438Y-95733333D02*
X141214819Y-95828571D01*
X144754819Y-85221905D02*
X143754819Y-85221905D01*
X143754819Y-85221905D02*
X143754819Y-85602857D01*
X143754819Y-85602857D02*
X143802438Y-85698095D01*
X143802438Y-85698095D02*
X143850057Y-85745714D01*
X143850057Y-85745714D02*
X143945295Y-85793333D01*
X143945295Y-85793333D02*
X144088152Y-85793333D01*
X144088152Y-85793333D02*
X144183390Y-85745714D01*
X144183390Y-85745714D02*
X144231009Y-85698095D01*
X144231009Y-85698095D02*
X144278628Y-85602857D01*
X144278628Y-85602857D02*
X144278628Y-85221905D01*
X144183390Y-86364762D02*
X144135771Y-86269524D01*
X144135771Y-86269524D02*
X144088152Y-86221905D01*
X144088152Y-86221905D02*
X143992914Y-86174286D01*
X143992914Y-86174286D02*
X143945295Y-86174286D01*
X143945295Y-86174286D02*
X143850057Y-86221905D01*
X143850057Y-86221905D02*
X143802438Y-86269524D01*
X143802438Y-86269524D02*
X143754819Y-86364762D01*
X143754819Y-86364762D02*
X143754819Y-86555238D01*
X143754819Y-86555238D02*
X143802438Y-86650476D01*
X143802438Y-86650476D02*
X143850057Y-86698095D01*
X143850057Y-86698095D02*
X143945295Y-86745714D01*
X143945295Y-86745714D02*
X143992914Y-86745714D01*
X143992914Y-86745714D02*
X144088152Y-86698095D01*
X144088152Y-86698095D02*
X144135771Y-86650476D01*
X144135771Y-86650476D02*
X144183390Y-86555238D01*
X144183390Y-86555238D02*
X144183390Y-86364762D01*
X144183390Y-86364762D02*
X144231009Y-86269524D01*
X144231009Y-86269524D02*
X144278628Y-86221905D01*
X144278628Y-86221905D02*
X144373866Y-86174286D01*
X144373866Y-86174286D02*
X144564342Y-86174286D01*
X144564342Y-86174286D02*
X144659580Y-86221905D01*
X144659580Y-86221905D02*
X144707200Y-86269524D01*
X144707200Y-86269524D02*
X144754819Y-86364762D01*
X144754819Y-86364762D02*
X144754819Y-86555238D01*
X144754819Y-86555238D02*
X144707200Y-86650476D01*
X144707200Y-86650476D02*
X144659580Y-86698095D01*
X144659580Y-86698095D02*
X144564342Y-86745714D01*
X144564342Y-86745714D02*
X144373866Y-86745714D01*
X144373866Y-86745714D02*
X144278628Y-86698095D01*
X144278628Y-86698095D02*
X144231009Y-86650476D01*
X144231009Y-86650476D02*
X144183390Y-86555238D01*
X144754819Y-93685714D02*
X143754819Y-93685714D01*
X143754819Y-93685714D02*
X143754819Y-94066666D01*
X143754819Y-94066666D02*
X143802438Y-94161904D01*
X143802438Y-94161904D02*
X143850057Y-94209523D01*
X143850057Y-94209523D02*
X143945295Y-94257142D01*
X143945295Y-94257142D02*
X144088152Y-94257142D01*
X144088152Y-94257142D02*
X144183390Y-94209523D01*
X144183390Y-94209523D02*
X144231009Y-94161904D01*
X144231009Y-94161904D02*
X144278628Y-94066666D01*
X144278628Y-94066666D02*
X144278628Y-93685714D01*
X144754819Y-95209523D02*
X144754819Y-94638095D01*
X144754819Y-94923809D02*
X143754819Y-94923809D01*
X143754819Y-94923809D02*
X143897676Y-94828571D01*
X143897676Y-94828571D02*
X143992914Y-94733333D01*
X143992914Y-94733333D02*
X144040533Y-94638095D01*
X143754819Y-96066666D02*
X143754819Y-95876190D01*
X143754819Y-95876190D02*
X143802438Y-95780952D01*
X143802438Y-95780952D02*
X143850057Y-95733333D01*
X143850057Y-95733333D02*
X143992914Y-95638095D01*
X143992914Y-95638095D02*
X144183390Y-95590476D01*
X144183390Y-95590476D02*
X144564342Y-95590476D01*
X144564342Y-95590476D02*
X144659580Y-95638095D01*
X144659580Y-95638095D02*
X144707200Y-95685714D01*
X144707200Y-95685714D02*
X144754819Y-95780952D01*
X144754819Y-95780952D02*
X144754819Y-95971428D01*
X144754819Y-95971428D02*
X144707200Y-96066666D01*
X144707200Y-96066666D02*
X144659580Y-96114285D01*
X144659580Y-96114285D02*
X144564342Y-96161904D01*
X144564342Y-96161904D02*
X144326247Y-96161904D01*
X144326247Y-96161904D02*
X144231009Y-96114285D01*
X144231009Y-96114285D02*
X144183390Y-96066666D01*
X144183390Y-96066666D02*
X144135771Y-95971428D01*
X144135771Y-95971428D02*
X144135771Y-95780952D01*
X144135771Y-95780952D02*
X144183390Y-95685714D01*
X144183390Y-95685714D02*
X144231009Y-95638095D01*
X144231009Y-95638095D02*
X144326247Y-95590476D01*
X147294819Y-85221905D02*
X146294819Y-85221905D01*
X146294819Y-85221905D02*
X146294819Y-85602857D01*
X146294819Y-85602857D02*
X146342438Y-85698095D01*
X146342438Y-85698095D02*
X146390057Y-85745714D01*
X146390057Y-85745714D02*
X146485295Y-85793333D01*
X146485295Y-85793333D02*
X146628152Y-85793333D01*
X146628152Y-85793333D02*
X146723390Y-85745714D01*
X146723390Y-85745714D02*
X146771009Y-85698095D01*
X146771009Y-85698095D02*
X146818628Y-85602857D01*
X146818628Y-85602857D02*
X146818628Y-85221905D01*
X146294819Y-86126667D02*
X146294819Y-86793333D01*
X146294819Y-86793333D02*
X147294819Y-86364762D01*
X147294819Y-93685714D02*
X146294819Y-93685714D01*
X146294819Y-93685714D02*
X146294819Y-94066666D01*
X146294819Y-94066666D02*
X146342438Y-94161904D01*
X146342438Y-94161904D02*
X146390057Y-94209523D01*
X146390057Y-94209523D02*
X146485295Y-94257142D01*
X146485295Y-94257142D02*
X146628152Y-94257142D01*
X146628152Y-94257142D02*
X146723390Y-94209523D01*
X146723390Y-94209523D02*
X146771009Y-94161904D01*
X146771009Y-94161904D02*
X146818628Y-94066666D01*
X146818628Y-94066666D02*
X146818628Y-93685714D01*
X147294819Y-95209523D02*
X147294819Y-94638095D01*
X147294819Y-94923809D02*
X146294819Y-94923809D01*
X146294819Y-94923809D02*
X146437676Y-94828571D01*
X146437676Y-94828571D02*
X146532914Y-94733333D01*
X146532914Y-94733333D02*
X146580533Y-94638095D01*
X146628152Y-96066666D02*
X147294819Y-96066666D01*
X146247200Y-95828571D02*
X146961485Y-95590476D01*
X146961485Y-95590476D02*
X146961485Y-96209523D01*
X149834819Y-85221905D02*
X148834819Y-85221905D01*
X148834819Y-85221905D02*
X148834819Y-85602857D01*
X148834819Y-85602857D02*
X148882438Y-85698095D01*
X148882438Y-85698095D02*
X148930057Y-85745714D01*
X148930057Y-85745714D02*
X149025295Y-85793333D01*
X149025295Y-85793333D02*
X149168152Y-85793333D01*
X149168152Y-85793333D02*
X149263390Y-85745714D01*
X149263390Y-85745714D02*
X149311009Y-85698095D01*
X149311009Y-85698095D02*
X149358628Y-85602857D01*
X149358628Y-85602857D02*
X149358628Y-85221905D01*
X148834819Y-86650476D02*
X148834819Y-86460000D01*
X148834819Y-86460000D02*
X148882438Y-86364762D01*
X148882438Y-86364762D02*
X148930057Y-86317143D01*
X148930057Y-86317143D02*
X149072914Y-86221905D01*
X149072914Y-86221905D02*
X149263390Y-86174286D01*
X149263390Y-86174286D02*
X149644342Y-86174286D01*
X149644342Y-86174286D02*
X149739580Y-86221905D01*
X149739580Y-86221905D02*
X149787200Y-86269524D01*
X149787200Y-86269524D02*
X149834819Y-86364762D01*
X149834819Y-86364762D02*
X149834819Y-86555238D01*
X149834819Y-86555238D02*
X149787200Y-86650476D01*
X149787200Y-86650476D02*
X149739580Y-86698095D01*
X149739580Y-86698095D02*
X149644342Y-86745714D01*
X149644342Y-86745714D02*
X149406247Y-86745714D01*
X149406247Y-86745714D02*
X149311009Y-86698095D01*
X149311009Y-86698095D02*
X149263390Y-86650476D01*
X149263390Y-86650476D02*
X149215771Y-86555238D01*
X149215771Y-86555238D02*
X149215771Y-86364762D01*
X149215771Y-86364762D02*
X149263390Y-86269524D01*
X149263390Y-86269524D02*
X149311009Y-86221905D01*
X149311009Y-86221905D02*
X149406247Y-86174286D01*
X149834819Y-93685714D02*
X148834819Y-93685714D01*
X148834819Y-93685714D02*
X148834819Y-94066666D01*
X148834819Y-94066666D02*
X148882438Y-94161904D01*
X148882438Y-94161904D02*
X148930057Y-94209523D01*
X148930057Y-94209523D02*
X149025295Y-94257142D01*
X149025295Y-94257142D02*
X149168152Y-94257142D01*
X149168152Y-94257142D02*
X149263390Y-94209523D01*
X149263390Y-94209523D02*
X149311009Y-94161904D01*
X149311009Y-94161904D02*
X149358628Y-94066666D01*
X149358628Y-94066666D02*
X149358628Y-93685714D01*
X149834819Y-95209523D02*
X149834819Y-94638095D01*
X149834819Y-94923809D02*
X148834819Y-94923809D01*
X148834819Y-94923809D02*
X148977676Y-94828571D01*
X148977676Y-94828571D02*
X149072914Y-94733333D01*
X149072914Y-94733333D02*
X149120533Y-94638095D01*
X148834819Y-96114285D02*
X148834819Y-95638095D01*
X148834819Y-95638095D02*
X149311009Y-95590476D01*
X149311009Y-95590476D02*
X149263390Y-95638095D01*
X149263390Y-95638095D02*
X149215771Y-95733333D01*
X149215771Y-95733333D02*
X149215771Y-95971428D01*
X149215771Y-95971428D02*
X149263390Y-96066666D01*
X149263390Y-96066666D02*
X149311009Y-96114285D01*
X149311009Y-96114285D02*
X149406247Y-96161904D01*
X149406247Y-96161904D02*
X149644342Y-96161904D01*
X149644342Y-96161904D02*
X149739580Y-96114285D01*
X149739580Y-96114285D02*
X149787200Y-96066666D01*
X149787200Y-96066666D02*
X149834819Y-95971428D01*
X149834819Y-95971428D02*
X149834819Y-95733333D01*
X149834819Y-95733333D02*
X149787200Y-95638095D01*
X149787200Y-95638095D02*
X149739580Y-95590476D01*
X152374819Y-85221905D02*
X151374819Y-85221905D01*
X151374819Y-85221905D02*
X151374819Y-85602857D01*
X151374819Y-85602857D02*
X151422438Y-85698095D01*
X151422438Y-85698095D02*
X151470057Y-85745714D01*
X151470057Y-85745714D02*
X151565295Y-85793333D01*
X151565295Y-85793333D02*
X151708152Y-85793333D01*
X151708152Y-85793333D02*
X151803390Y-85745714D01*
X151803390Y-85745714D02*
X151851009Y-85698095D01*
X151851009Y-85698095D02*
X151898628Y-85602857D01*
X151898628Y-85602857D02*
X151898628Y-85221905D01*
X151374819Y-86698095D02*
X151374819Y-86221905D01*
X151374819Y-86221905D02*
X151851009Y-86174286D01*
X151851009Y-86174286D02*
X151803390Y-86221905D01*
X151803390Y-86221905D02*
X151755771Y-86317143D01*
X151755771Y-86317143D02*
X151755771Y-86555238D01*
X151755771Y-86555238D02*
X151803390Y-86650476D01*
X151803390Y-86650476D02*
X151851009Y-86698095D01*
X151851009Y-86698095D02*
X151946247Y-86745714D01*
X151946247Y-86745714D02*
X152184342Y-86745714D01*
X152184342Y-86745714D02*
X152279580Y-86698095D01*
X152279580Y-86698095D02*
X152327200Y-86650476D01*
X152327200Y-86650476D02*
X152374819Y-86555238D01*
X152374819Y-86555238D02*
X152374819Y-86317143D01*
X152374819Y-86317143D02*
X152327200Y-86221905D01*
X152327200Y-86221905D02*
X152279580Y-86174286D01*
X152374819Y-93685714D02*
X151374819Y-93685714D01*
X151374819Y-93685714D02*
X151374819Y-94066666D01*
X151374819Y-94066666D02*
X151422438Y-94161904D01*
X151422438Y-94161904D02*
X151470057Y-94209523D01*
X151470057Y-94209523D02*
X151565295Y-94257142D01*
X151565295Y-94257142D02*
X151708152Y-94257142D01*
X151708152Y-94257142D02*
X151803390Y-94209523D01*
X151803390Y-94209523D02*
X151851009Y-94161904D01*
X151851009Y-94161904D02*
X151898628Y-94066666D01*
X151898628Y-94066666D02*
X151898628Y-93685714D01*
X152374819Y-95209523D02*
X152374819Y-94638095D01*
X152374819Y-94923809D02*
X151374819Y-94923809D01*
X151374819Y-94923809D02*
X151517676Y-94828571D01*
X151517676Y-94828571D02*
X151612914Y-94733333D01*
X151612914Y-94733333D02*
X151660533Y-94638095D01*
X151803390Y-95780952D02*
X151755771Y-95685714D01*
X151755771Y-95685714D02*
X151708152Y-95638095D01*
X151708152Y-95638095D02*
X151612914Y-95590476D01*
X151612914Y-95590476D02*
X151565295Y-95590476D01*
X151565295Y-95590476D02*
X151470057Y-95638095D01*
X151470057Y-95638095D02*
X151422438Y-95685714D01*
X151422438Y-95685714D02*
X151374819Y-95780952D01*
X151374819Y-95780952D02*
X151374819Y-95971428D01*
X151374819Y-95971428D02*
X151422438Y-96066666D01*
X151422438Y-96066666D02*
X151470057Y-96114285D01*
X151470057Y-96114285D02*
X151565295Y-96161904D01*
X151565295Y-96161904D02*
X151612914Y-96161904D01*
X151612914Y-96161904D02*
X151708152Y-96114285D01*
X151708152Y-96114285D02*
X151755771Y-96066666D01*
X151755771Y-96066666D02*
X151803390Y-95971428D01*
X151803390Y-95971428D02*
X151803390Y-95780952D01*
X151803390Y-95780952D02*
X151851009Y-95685714D01*
X151851009Y-95685714D02*
X151898628Y-95638095D01*
X151898628Y-95638095D02*
X151993866Y-95590476D01*
X151993866Y-95590476D02*
X152184342Y-95590476D01*
X152184342Y-95590476D02*
X152279580Y-95638095D01*
X152279580Y-95638095D02*
X152327200Y-95685714D01*
X152327200Y-95685714D02*
X152374819Y-95780952D01*
X152374819Y-95780952D02*
X152374819Y-95971428D01*
X152374819Y-95971428D02*
X152327200Y-96066666D01*
X152327200Y-96066666D02*
X152279580Y-96114285D01*
X152279580Y-96114285D02*
X152184342Y-96161904D01*
X152184342Y-96161904D02*
X151993866Y-96161904D01*
X151993866Y-96161904D02*
X151898628Y-96114285D01*
X151898628Y-96114285D02*
X151851009Y-96066666D01*
X151851009Y-96066666D02*
X151803390Y-95971428D01*
X154914819Y-85221905D02*
X153914819Y-85221905D01*
X153914819Y-85221905D02*
X153914819Y-85602857D01*
X153914819Y-85602857D02*
X153962438Y-85698095D01*
X153962438Y-85698095D02*
X154010057Y-85745714D01*
X154010057Y-85745714D02*
X154105295Y-85793333D01*
X154105295Y-85793333D02*
X154248152Y-85793333D01*
X154248152Y-85793333D02*
X154343390Y-85745714D01*
X154343390Y-85745714D02*
X154391009Y-85698095D01*
X154391009Y-85698095D02*
X154438628Y-85602857D01*
X154438628Y-85602857D02*
X154438628Y-85221905D01*
X154248152Y-86650476D02*
X154914819Y-86650476D01*
X153867200Y-86412381D02*
X154581485Y-86174286D01*
X154581485Y-86174286D02*
X154581485Y-86793333D01*
X154914819Y-93685714D02*
X153914819Y-93685714D01*
X153914819Y-93685714D02*
X153914819Y-94066666D01*
X153914819Y-94066666D02*
X153962438Y-94161904D01*
X153962438Y-94161904D02*
X154010057Y-94209523D01*
X154010057Y-94209523D02*
X154105295Y-94257142D01*
X154105295Y-94257142D02*
X154248152Y-94257142D01*
X154248152Y-94257142D02*
X154343390Y-94209523D01*
X154343390Y-94209523D02*
X154391009Y-94161904D01*
X154391009Y-94161904D02*
X154438628Y-94066666D01*
X154438628Y-94066666D02*
X154438628Y-93685714D01*
X154914819Y-95209523D02*
X154914819Y-94638095D01*
X154914819Y-94923809D02*
X153914819Y-94923809D01*
X153914819Y-94923809D02*
X154057676Y-94828571D01*
X154057676Y-94828571D02*
X154152914Y-94733333D01*
X154152914Y-94733333D02*
X154200533Y-94638095D01*
X154914819Y-95685714D02*
X154914819Y-95876190D01*
X154914819Y-95876190D02*
X154867200Y-95971428D01*
X154867200Y-95971428D02*
X154819580Y-96019047D01*
X154819580Y-96019047D02*
X154676723Y-96114285D01*
X154676723Y-96114285D02*
X154486247Y-96161904D01*
X154486247Y-96161904D02*
X154105295Y-96161904D01*
X154105295Y-96161904D02*
X154010057Y-96114285D01*
X154010057Y-96114285D02*
X153962438Y-96066666D01*
X153962438Y-96066666D02*
X153914819Y-95971428D01*
X153914819Y-95971428D02*
X153914819Y-95780952D01*
X153914819Y-95780952D02*
X153962438Y-95685714D01*
X153962438Y-95685714D02*
X154010057Y-95638095D01*
X154010057Y-95638095D02*
X154105295Y-95590476D01*
X154105295Y-95590476D02*
X154343390Y-95590476D01*
X154343390Y-95590476D02*
X154438628Y-95638095D01*
X154438628Y-95638095D02*
X154486247Y-95685714D01*
X154486247Y-95685714D02*
X154533866Y-95780952D01*
X154533866Y-95780952D02*
X154533866Y-95971428D01*
X154533866Y-95971428D02*
X154486247Y-96066666D01*
X154486247Y-96066666D02*
X154438628Y-96114285D01*
X154438628Y-96114285D02*
X154343390Y-96161904D01*
X157454819Y-85221905D02*
X156454819Y-85221905D01*
X156454819Y-85221905D02*
X156454819Y-85602857D01*
X156454819Y-85602857D02*
X156502438Y-85698095D01*
X156502438Y-85698095D02*
X156550057Y-85745714D01*
X156550057Y-85745714D02*
X156645295Y-85793333D01*
X156645295Y-85793333D02*
X156788152Y-85793333D01*
X156788152Y-85793333D02*
X156883390Y-85745714D01*
X156883390Y-85745714D02*
X156931009Y-85698095D01*
X156931009Y-85698095D02*
X156978628Y-85602857D01*
X156978628Y-85602857D02*
X156978628Y-85221905D01*
X156454819Y-86126667D02*
X156454819Y-86745714D01*
X156454819Y-86745714D02*
X156835771Y-86412381D01*
X156835771Y-86412381D02*
X156835771Y-86555238D01*
X156835771Y-86555238D02*
X156883390Y-86650476D01*
X156883390Y-86650476D02*
X156931009Y-86698095D01*
X156931009Y-86698095D02*
X157026247Y-86745714D01*
X157026247Y-86745714D02*
X157264342Y-86745714D01*
X157264342Y-86745714D02*
X157359580Y-86698095D01*
X157359580Y-86698095D02*
X157407200Y-86650476D01*
X157407200Y-86650476D02*
X157454819Y-86555238D01*
X157454819Y-86555238D02*
X157454819Y-86269524D01*
X157454819Y-86269524D02*
X157407200Y-86174286D01*
X157407200Y-86174286D02*
X157359580Y-86126667D01*
X157454819Y-93685714D02*
X156454819Y-93685714D01*
X156454819Y-93685714D02*
X156454819Y-94066666D01*
X156454819Y-94066666D02*
X156502438Y-94161904D01*
X156502438Y-94161904D02*
X156550057Y-94209523D01*
X156550057Y-94209523D02*
X156645295Y-94257142D01*
X156645295Y-94257142D02*
X156788152Y-94257142D01*
X156788152Y-94257142D02*
X156883390Y-94209523D01*
X156883390Y-94209523D02*
X156931009Y-94161904D01*
X156931009Y-94161904D02*
X156978628Y-94066666D01*
X156978628Y-94066666D02*
X156978628Y-93685714D01*
X156550057Y-94638095D02*
X156502438Y-94685714D01*
X156502438Y-94685714D02*
X156454819Y-94780952D01*
X156454819Y-94780952D02*
X156454819Y-95019047D01*
X156454819Y-95019047D02*
X156502438Y-95114285D01*
X156502438Y-95114285D02*
X156550057Y-95161904D01*
X156550057Y-95161904D02*
X156645295Y-95209523D01*
X156645295Y-95209523D02*
X156740533Y-95209523D01*
X156740533Y-95209523D02*
X156883390Y-95161904D01*
X156883390Y-95161904D02*
X157454819Y-94590476D01*
X157454819Y-94590476D02*
X157454819Y-95209523D01*
X156454819Y-95828571D02*
X156454819Y-95923809D01*
X156454819Y-95923809D02*
X156502438Y-96019047D01*
X156502438Y-96019047D02*
X156550057Y-96066666D01*
X156550057Y-96066666D02*
X156645295Y-96114285D01*
X156645295Y-96114285D02*
X156835771Y-96161904D01*
X156835771Y-96161904D02*
X157073866Y-96161904D01*
X157073866Y-96161904D02*
X157264342Y-96114285D01*
X157264342Y-96114285D02*
X157359580Y-96066666D01*
X157359580Y-96066666D02*
X157407200Y-96019047D01*
X157407200Y-96019047D02*
X157454819Y-95923809D01*
X157454819Y-95923809D02*
X157454819Y-95828571D01*
X157454819Y-95828571D02*
X157407200Y-95733333D01*
X157407200Y-95733333D02*
X157359580Y-95685714D01*
X157359580Y-95685714D02*
X157264342Y-95638095D01*
X157264342Y-95638095D02*
X157073866Y-95590476D01*
X157073866Y-95590476D02*
X156835771Y-95590476D01*
X156835771Y-95590476D02*
X156645295Y-95638095D01*
X156645295Y-95638095D02*
X156550057Y-95685714D01*
X156550057Y-95685714D02*
X156502438Y-95733333D01*
X156502438Y-95733333D02*
X156454819Y-95828571D01*
X159994819Y-85221905D02*
X158994819Y-85221905D01*
X158994819Y-85221905D02*
X158994819Y-85602857D01*
X158994819Y-85602857D02*
X159042438Y-85698095D01*
X159042438Y-85698095D02*
X159090057Y-85745714D01*
X159090057Y-85745714D02*
X159185295Y-85793333D01*
X159185295Y-85793333D02*
X159328152Y-85793333D01*
X159328152Y-85793333D02*
X159423390Y-85745714D01*
X159423390Y-85745714D02*
X159471009Y-85698095D01*
X159471009Y-85698095D02*
X159518628Y-85602857D01*
X159518628Y-85602857D02*
X159518628Y-85221905D01*
X159090057Y-86174286D02*
X159042438Y-86221905D01*
X159042438Y-86221905D02*
X158994819Y-86317143D01*
X158994819Y-86317143D02*
X158994819Y-86555238D01*
X158994819Y-86555238D02*
X159042438Y-86650476D01*
X159042438Y-86650476D02*
X159090057Y-86698095D01*
X159090057Y-86698095D02*
X159185295Y-86745714D01*
X159185295Y-86745714D02*
X159280533Y-86745714D01*
X159280533Y-86745714D02*
X159423390Y-86698095D01*
X159423390Y-86698095D02*
X159994819Y-86126667D01*
X159994819Y-86126667D02*
X159994819Y-86745714D01*
X159994819Y-93685714D02*
X158994819Y-93685714D01*
X158994819Y-93685714D02*
X158994819Y-94066666D01*
X158994819Y-94066666D02*
X159042438Y-94161904D01*
X159042438Y-94161904D02*
X159090057Y-94209523D01*
X159090057Y-94209523D02*
X159185295Y-94257142D01*
X159185295Y-94257142D02*
X159328152Y-94257142D01*
X159328152Y-94257142D02*
X159423390Y-94209523D01*
X159423390Y-94209523D02*
X159471009Y-94161904D01*
X159471009Y-94161904D02*
X159518628Y-94066666D01*
X159518628Y-94066666D02*
X159518628Y-93685714D01*
X159090057Y-94638095D02*
X159042438Y-94685714D01*
X159042438Y-94685714D02*
X158994819Y-94780952D01*
X158994819Y-94780952D02*
X158994819Y-95019047D01*
X158994819Y-95019047D02*
X159042438Y-95114285D01*
X159042438Y-95114285D02*
X159090057Y-95161904D01*
X159090057Y-95161904D02*
X159185295Y-95209523D01*
X159185295Y-95209523D02*
X159280533Y-95209523D01*
X159280533Y-95209523D02*
X159423390Y-95161904D01*
X159423390Y-95161904D02*
X159994819Y-94590476D01*
X159994819Y-94590476D02*
X159994819Y-95209523D01*
X159994819Y-96161904D02*
X159994819Y-95590476D01*
X159994819Y-95876190D02*
X158994819Y-95876190D01*
X158994819Y-95876190D02*
X159137676Y-95780952D01*
X159137676Y-95780952D02*
X159232914Y-95685714D01*
X159232914Y-95685714D02*
X159280533Y-95590476D01*
X161582438Y-88218095D02*
X161534819Y-88122857D01*
X161534819Y-88122857D02*
X161534819Y-87980000D01*
X161534819Y-87980000D02*
X161582438Y-87837143D01*
X161582438Y-87837143D02*
X161677676Y-87741905D01*
X161677676Y-87741905D02*
X161772914Y-87694286D01*
X161772914Y-87694286D02*
X161963390Y-87646667D01*
X161963390Y-87646667D02*
X162106247Y-87646667D01*
X162106247Y-87646667D02*
X162296723Y-87694286D01*
X162296723Y-87694286D02*
X162391961Y-87741905D01*
X162391961Y-87741905D02*
X162487200Y-87837143D01*
X162487200Y-87837143D02*
X162534819Y-87980000D01*
X162534819Y-87980000D02*
X162534819Y-88075238D01*
X162534819Y-88075238D02*
X162487200Y-88218095D01*
X162487200Y-88218095D02*
X162439580Y-88265714D01*
X162439580Y-88265714D02*
X162106247Y-88265714D01*
X162106247Y-88265714D02*
X162106247Y-88075238D01*
X162534819Y-88694286D02*
X161534819Y-88694286D01*
X161534819Y-88694286D02*
X162534819Y-89265714D01*
X162534819Y-89265714D02*
X161534819Y-89265714D01*
X162534819Y-89741905D02*
X161534819Y-89741905D01*
X161534819Y-89741905D02*
X161534819Y-89980000D01*
X161534819Y-89980000D02*
X161582438Y-90122857D01*
X161582438Y-90122857D02*
X161677676Y-90218095D01*
X161677676Y-90218095D02*
X161772914Y-90265714D01*
X161772914Y-90265714D02*
X161963390Y-90313333D01*
X161963390Y-90313333D02*
X162106247Y-90313333D01*
X162106247Y-90313333D02*
X162296723Y-90265714D01*
X162296723Y-90265714D02*
X162391961Y-90218095D01*
X162391961Y-90218095D02*
X162487200Y-90122857D01*
X162487200Y-90122857D02*
X162534819Y-89980000D01*
X162534819Y-89980000D02*
X162534819Y-89741905D01*
X161534819Y-90546667D02*
X162534819Y-90880000D01*
X162534819Y-90880000D02*
X161534819Y-91213333D01*
X162439580Y-92118095D02*
X162487200Y-92070476D01*
X162487200Y-92070476D02*
X162534819Y-91927619D01*
X162534819Y-91927619D02*
X162534819Y-91832381D01*
X162534819Y-91832381D02*
X162487200Y-91689524D01*
X162487200Y-91689524D02*
X162391961Y-91594286D01*
X162391961Y-91594286D02*
X162296723Y-91546667D01*
X162296723Y-91546667D02*
X162106247Y-91499048D01*
X162106247Y-91499048D02*
X161963390Y-91499048D01*
X161963390Y-91499048D02*
X161772914Y-91546667D01*
X161772914Y-91546667D02*
X161677676Y-91594286D01*
X161677676Y-91594286D02*
X161582438Y-91689524D01*
X161582438Y-91689524D02*
X161534819Y-91832381D01*
X161534819Y-91832381D02*
X161534819Y-91927619D01*
X161534819Y-91927619D02*
X161582438Y-92070476D01*
X161582438Y-92070476D02*
X161630057Y-92118095D01*
X162439580Y-93118095D02*
X162487200Y-93070476D01*
X162487200Y-93070476D02*
X162534819Y-92927619D01*
X162534819Y-92927619D02*
X162534819Y-92832381D01*
X162534819Y-92832381D02*
X162487200Y-92689524D01*
X162487200Y-92689524D02*
X162391961Y-92594286D01*
X162391961Y-92594286D02*
X162296723Y-92546667D01*
X162296723Y-92546667D02*
X162106247Y-92499048D01*
X162106247Y-92499048D02*
X161963390Y-92499048D01*
X161963390Y-92499048D02*
X161772914Y-92546667D01*
X161772914Y-92546667D02*
X161677676Y-92594286D01*
X161677676Y-92594286D02*
X161582438Y-92689524D01*
X161582438Y-92689524D02*
X161534819Y-92832381D01*
X161534819Y-92832381D02*
X161534819Y-92927619D01*
X161534819Y-92927619D02*
X161582438Y-93070476D01*
X161582438Y-93070476D02*
X161630057Y-93118095D01*
X164122438Y-88218095D02*
X164074819Y-88122857D01*
X164074819Y-88122857D02*
X164074819Y-87980000D01*
X164074819Y-87980000D02*
X164122438Y-87837143D01*
X164122438Y-87837143D02*
X164217676Y-87741905D01*
X164217676Y-87741905D02*
X164312914Y-87694286D01*
X164312914Y-87694286D02*
X164503390Y-87646667D01*
X164503390Y-87646667D02*
X164646247Y-87646667D01*
X164646247Y-87646667D02*
X164836723Y-87694286D01*
X164836723Y-87694286D02*
X164931961Y-87741905D01*
X164931961Y-87741905D02*
X165027200Y-87837143D01*
X165027200Y-87837143D02*
X165074819Y-87980000D01*
X165074819Y-87980000D02*
X165074819Y-88075238D01*
X165074819Y-88075238D02*
X165027200Y-88218095D01*
X165027200Y-88218095D02*
X164979580Y-88265714D01*
X164979580Y-88265714D02*
X164646247Y-88265714D01*
X164646247Y-88265714D02*
X164646247Y-88075238D01*
X165074819Y-88694286D02*
X164074819Y-88694286D01*
X164074819Y-88694286D02*
X165074819Y-89265714D01*
X165074819Y-89265714D02*
X164074819Y-89265714D01*
X165074819Y-89741905D02*
X164074819Y-89741905D01*
X164074819Y-89741905D02*
X164074819Y-89980000D01*
X164074819Y-89980000D02*
X164122438Y-90122857D01*
X164122438Y-90122857D02*
X164217676Y-90218095D01*
X164217676Y-90218095D02*
X164312914Y-90265714D01*
X164312914Y-90265714D02*
X164503390Y-90313333D01*
X164503390Y-90313333D02*
X164646247Y-90313333D01*
X164646247Y-90313333D02*
X164836723Y-90265714D01*
X164836723Y-90265714D02*
X164931961Y-90218095D01*
X164931961Y-90218095D02*
X165027200Y-90122857D01*
X165027200Y-90122857D02*
X165074819Y-89980000D01*
X165074819Y-89980000D02*
X165074819Y-89741905D01*
X165074819Y-91332380D02*
X164598628Y-90999047D01*
X165074819Y-90760952D02*
X164074819Y-90760952D01*
X164074819Y-90760952D02*
X164074819Y-91141904D01*
X164074819Y-91141904D02*
X164122438Y-91237142D01*
X164122438Y-91237142D02*
X164170057Y-91284761D01*
X164170057Y-91284761D02*
X164265295Y-91332380D01*
X164265295Y-91332380D02*
X164408152Y-91332380D01*
X164408152Y-91332380D02*
X164503390Y-91284761D01*
X164503390Y-91284761D02*
X164551009Y-91237142D01*
X164551009Y-91237142D02*
X164598628Y-91141904D01*
X164598628Y-91141904D02*
X164598628Y-90760952D01*
X165027200Y-91713333D02*
X165074819Y-91856190D01*
X165074819Y-91856190D02*
X165074819Y-92094285D01*
X165074819Y-92094285D02*
X165027200Y-92189523D01*
X165027200Y-92189523D02*
X164979580Y-92237142D01*
X164979580Y-92237142D02*
X164884342Y-92284761D01*
X164884342Y-92284761D02*
X164789104Y-92284761D01*
X164789104Y-92284761D02*
X164693866Y-92237142D01*
X164693866Y-92237142D02*
X164646247Y-92189523D01*
X164646247Y-92189523D02*
X164598628Y-92094285D01*
X164598628Y-92094285D02*
X164551009Y-91903809D01*
X164551009Y-91903809D02*
X164503390Y-91808571D01*
X164503390Y-91808571D02*
X164455771Y-91760952D01*
X164455771Y-91760952D02*
X164360533Y-91713333D01*
X164360533Y-91713333D02*
X164265295Y-91713333D01*
X164265295Y-91713333D02*
X164170057Y-91760952D01*
X164170057Y-91760952D02*
X164122438Y-91808571D01*
X164122438Y-91808571D02*
X164074819Y-91903809D01*
X164074819Y-91903809D02*
X164074819Y-92141904D01*
X164074819Y-92141904D02*
X164122438Y-92284761D01*
X164074819Y-92570476D02*
X164074819Y-93141904D01*
X165074819Y-92856190D02*
X164074819Y-92856190D01*
X167614819Y-87651905D02*
X166614819Y-87651905D01*
X166614819Y-87651905D02*
X166614819Y-88032857D01*
X166614819Y-88032857D02*
X166662438Y-88128095D01*
X166662438Y-88128095D02*
X166710057Y-88175714D01*
X166710057Y-88175714D02*
X166805295Y-88223333D01*
X166805295Y-88223333D02*
X166948152Y-88223333D01*
X166948152Y-88223333D02*
X167043390Y-88175714D01*
X167043390Y-88175714D02*
X167091009Y-88128095D01*
X167091009Y-88128095D02*
X167138628Y-88032857D01*
X167138628Y-88032857D02*
X167138628Y-87651905D01*
X166614819Y-88842381D02*
X166614819Y-88937619D01*
X166614819Y-88937619D02*
X166662438Y-89032857D01*
X166662438Y-89032857D02*
X166710057Y-89080476D01*
X166710057Y-89080476D02*
X166805295Y-89128095D01*
X166805295Y-89128095D02*
X166995771Y-89175714D01*
X166995771Y-89175714D02*
X167233866Y-89175714D01*
X167233866Y-89175714D02*
X167424342Y-89128095D01*
X167424342Y-89128095D02*
X167519580Y-89080476D01*
X167519580Y-89080476D02*
X167567200Y-89032857D01*
X167567200Y-89032857D02*
X167614819Y-88937619D01*
X167614819Y-88937619D02*
X167614819Y-88842381D01*
X167614819Y-88842381D02*
X167567200Y-88747143D01*
X167567200Y-88747143D02*
X167519580Y-88699524D01*
X167519580Y-88699524D02*
X167424342Y-88651905D01*
X167424342Y-88651905D02*
X167233866Y-88604286D01*
X167233866Y-88604286D02*
X166995771Y-88604286D01*
X166995771Y-88604286D02*
X166805295Y-88651905D01*
X166805295Y-88651905D02*
X166710057Y-88699524D01*
X166710057Y-88699524D02*
X166662438Y-88747143D01*
X166662438Y-88747143D02*
X166614819Y-88842381D01*
X166662438Y-91118095D02*
X166614819Y-91022857D01*
X166614819Y-91022857D02*
X166614819Y-90880000D01*
X166614819Y-90880000D02*
X166662438Y-90737143D01*
X166662438Y-90737143D02*
X166757676Y-90641905D01*
X166757676Y-90641905D02*
X166852914Y-90594286D01*
X166852914Y-90594286D02*
X167043390Y-90546667D01*
X167043390Y-90546667D02*
X167186247Y-90546667D01*
X167186247Y-90546667D02*
X167376723Y-90594286D01*
X167376723Y-90594286D02*
X167471961Y-90641905D01*
X167471961Y-90641905D02*
X167567200Y-90737143D01*
X167567200Y-90737143D02*
X167614819Y-90880000D01*
X167614819Y-90880000D02*
X167614819Y-90975238D01*
X167614819Y-90975238D02*
X167567200Y-91118095D01*
X167567200Y-91118095D02*
X167519580Y-91165714D01*
X167519580Y-91165714D02*
X167186247Y-91165714D01*
X167186247Y-91165714D02*
X167186247Y-90975238D01*
X167614819Y-91594286D02*
X166614819Y-91594286D01*
X166614819Y-91594286D02*
X167614819Y-92165714D01*
X167614819Y-92165714D02*
X166614819Y-92165714D01*
X167614819Y-92641905D02*
X166614819Y-92641905D01*
X166614819Y-92641905D02*
X166614819Y-92880000D01*
X166614819Y-92880000D02*
X166662438Y-93022857D01*
X166662438Y-93022857D02*
X166757676Y-93118095D01*
X166757676Y-93118095D02*
X166852914Y-93165714D01*
X166852914Y-93165714D02*
X167043390Y-93213333D01*
X167043390Y-93213333D02*
X167186247Y-93213333D01*
X167186247Y-93213333D02*
X167376723Y-93165714D01*
X167376723Y-93165714D02*
X167471961Y-93118095D01*
X167471961Y-93118095D02*
X167567200Y-93022857D01*
X167567200Y-93022857D02*
X167614819Y-92880000D01*
X167614819Y-92880000D02*
X167614819Y-92641905D01*
X170154819Y-87651905D02*
X169154819Y-87651905D01*
X169154819Y-87651905D02*
X169154819Y-88032857D01*
X169154819Y-88032857D02*
X169202438Y-88128095D01*
X169202438Y-88128095D02*
X169250057Y-88175714D01*
X169250057Y-88175714D02*
X169345295Y-88223333D01*
X169345295Y-88223333D02*
X169488152Y-88223333D01*
X169488152Y-88223333D02*
X169583390Y-88175714D01*
X169583390Y-88175714D02*
X169631009Y-88128095D01*
X169631009Y-88128095D02*
X169678628Y-88032857D01*
X169678628Y-88032857D02*
X169678628Y-87651905D01*
X170154819Y-89175714D02*
X170154819Y-88604286D01*
X170154819Y-88890000D02*
X169154819Y-88890000D01*
X169154819Y-88890000D02*
X169297676Y-88794762D01*
X169297676Y-88794762D02*
X169392914Y-88699524D01*
X169392914Y-88699524D02*
X169440533Y-88604286D01*
X170154819Y-91189523D02*
X169678628Y-90856190D01*
X170154819Y-90618095D02*
X169154819Y-90618095D01*
X169154819Y-90618095D02*
X169154819Y-90999047D01*
X169154819Y-90999047D02*
X169202438Y-91094285D01*
X169202438Y-91094285D02*
X169250057Y-91141904D01*
X169250057Y-91141904D02*
X169345295Y-91189523D01*
X169345295Y-91189523D02*
X169488152Y-91189523D01*
X169488152Y-91189523D02*
X169583390Y-91141904D01*
X169583390Y-91141904D02*
X169631009Y-91094285D01*
X169631009Y-91094285D02*
X169678628Y-90999047D01*
X169678628Y-90999047D02*
X169678628Y-90618095D01*
X169869104Y-91570476D02*
X169869104Y-92046666D01*
X170154819Y-91475238D02*
X169154819Y-91808571D01*
X169154819Y-91808571D02*
X170154819Y-92141904D01*
X169154819Y-92380000D02*
X170154819Y-92618095D01*
X170154819Y-92618095D02*
X169440533Y-92808571D01*
X169440533Y-92808571D02*
X170154819Y-92999047D01*
X170154819Y-92999047D02*
X169154819Y-93237143D01*
X172699819Y-82287141D02*
X172699819Y-81810951D01*
X172699819Y-81810951D02*
X171699819Y-81810951D01*
X172699819Y-83382380D02*
X171699819Y-83382380D01*
X172699819Y-83810951D02*
X172176009Y-83810951D01*
X172176009Y-83810951D02*
X172080771Y-83763332D01*
X172080771Y-83763332D02*
X172033152Y-83668094D01*
X172033152Y-83668094D02*
X172033152Y-83525237D01*
X172033152Y-83525237D02*
X172080771Y-83429999D01*
X172080771Y-83429999D02*
X172128390Y-83382380D01*
X172699819Y-84715713D02*
X172176009Y-84715713D01*
X172176009Y-84715713D02*
X172080771Y-84668094D01*
X172080771Y-84668094D02*
X172033152Y-84572856D01*
X172033152Y-84572856D02*
X172033152Y-84382380D01*
X172033152Y-84382380D02*
X172080771Y-84287142D01*
X172652200Y-84715713D02*
X172699819Y-84620475D01*
X172699819Y-84620475D02*
X172699819Y-84382380D01*
X172699819Y-84382380D02*
X172652200Y-84287142D01*
X172652200Y-84287142D02*
X172556961Y-84239523D01*
X172556961Y-84239523D02*
X172461723Y-84239523D01*
X172461723Y-84239523D02*
X172366485Y-84287142D01*
X172366485Y-84287142D02*
X172318866Y-84382380D01*
X172318866Y-84382380D02*
X172318866Y-84620475D01*
X172318866Y-84620475D02*
X172271247Y-84715713D01*
X172033152Y-85191904D02*
X172699819Y-85191904D01*
X172128390Y-85191904D02*
X172080771Y-85239523D01*
X172080771Y-85239523D02*
X172033152Y-85334761D01*
X172033152Y-85334761D02*
X172033152Y-85477618D01*
X172033152Y-85477618D02*
X172080771Y-85572856D01*
X172080771Y-85572856D02*
X172176009Y-85620475D01*
X172176009Y-85620475D02*
X172699819Y-85620475D01*
X172699819Y-86525237D02*
X171699819Y-86525237D01*
X172652200Y-86525237D02*
X172699819Y-86429999D01*
X172699819Y-86429999D02*
X172699819Y-86239523D01*
X172699819Y-86239523D02*
X172652200Y-86144285D01*
X172652200Y-86144285D02*
X172604580Y-86096666D01*
X172604580Y-86096666D02*
X172509342Y-86049047D01*
X172509342Y-86049047D02*
X172223628Y-86049047D01*
X172223628Y-86049047D02*
X172128390Y-86096666D01*
X172128390Y-86096666D02*
X172080771Y-86144285D01*
X172080771Y-86144285D02*
X172033152Y-86239523D01*
X172033152Y-86239523D02*
X172033152Y-86429999D01*
X172033152Y-86429999D02*
X172080771Y-86525237D01*
X172699819Y-87763333D02*
X171699819Y-87763333D01*
X172080771Y-87763333D02*
X172033152Y-87858571D01*
X172033152Y-87858571D02*
X172033152Y-88049047D01*
X172033152Y-88049047D02*
X172080771Y-88144285D01*
X172080771Y-88144285D02*
X172128390Y-88191904D01*
X172128390Y-88191904D02*
X172223628Y-88239523D01*
X172223628Y-88239523D02*
X172509342Y-88239523D01*
X172509342Y-88239523D02*
X172604580Y-88191904D01*
X172604580Y-88191904D02*
X172652200Y-88144285D01*
X172652200Y-88144285D02*
X172699819Y-88049047D01*
X172699819Y-88049047D02*
X172699819Y-87858571D01*
X172699819Y-87858571D02*
X172652200Y-87763333D01*
X172699819Y-89096666D02*
X172176009Y-89096666D01*
X172176009Y-89096666D02*
X172080771Y-89049047D01*
X172080771Y-89049047D02*
X172033152Y-88953809D01*
X172033152Y-88953809D02*
X172033152Y-88763333D01*
X172033152Y-88763333D02*
X172080771Y-88668095D01*
X172652200Y-89096666D02*
X172699819Y-89001428D01*
X172699819Y-89001428D02*
X172699819Y-88763333D01*
X172699819Y-88763333D02*
X172652200Y-88668095D01*
X172652200Y-88668095D02*
X172556961Y-88620476D01*
X172556961Y-88620476D02*
X172461723Y-88620476D01*
X172461723Y-88620476D02*
X172366485Y-88668095D01*
X172366485Y-88668095D02*
X172318866Y-88763333D01*
X172318866Y-88763333D02*
X172318866Y-89001428D01*
X172318866Y-89001428D02*
X172271247Y-89096666D01*
X172652200Y-90001428D02*
X172699819Y-89906190D01*
X172699819Y-89906190D02*
X172699819Y-89715714D01*
X172699819Y-89715714D02*
X172652200Y-89620476D01*
X172652200Y-89620476D02*
X172604580Y-89572857D01*
X172604580Y-89572857D02*
X172509342Y-89525238D01*
X172509342Y-89525238D02*
X172223628Y-89525238D01*
X172223628Y-89525238D02*
X172128390Y-89572857D01*
X172128390Y-89572857D02*
X172080771Y-89620476D01*
X172080771Y-89620476D02*
X172033152Y-89715714D01*
X172033152Y-89715714D02*
X172033152Y-89906190D01*
X172033152Y-89906190D02*
X172080771Y-90001428D01*
X172699819Y-90430000D02*
X171699819Y-90430000D01*
X172318866Y-90525238D02*
X172699819Y-90810952D01*
X172033152Y-90810952D02*
X172414104Y-90430000D01*
X172652200Y-91953810D02*
X172699819Y-92049048D01*
X172699819Y-92049048D02*
X172699819Y-92239524D01*
X172699819Y-92239524D02*
X172652200Y-92334762D01*
X172652200Y-92334762D02*
X172556961Y-92382381D01*
X172556961Y-92382381D02*
X172509342Y-92382381D01*
X172509342Y-92382381D02*
X172414104Y-92334762D01*
X172414104Y-92334762D02*
X172366485Y-92239524D01*
X172366485Y-92239524D02*
X172366485Y-92096667D01*
X172366485Y-92096667D02*
X172318866Y-92001429D01*
X172318866Y-92001429D02*
X172223628Y-91953810D01*
X172223628Y-91953810D02*
X172176009Y-91953810D01*
X172176009Y-91953810D02*
X172080771Y-92001429D01*
X172080771Y-92001429D02*
X172033152Y-92096667D01*
X172033152Y-92096667D02*
X172033152Y-92239524D01*
X172033152Y-92239524D02*
X172080771Y-92334762D01*
X172699819Y-92810953D02*
X172033152Y-92810953D01*
X171699819Y-92810953D02*
X171747438Y-92763334D01*
X171747438Y-92763334D02*
X171795057Y-92810953D01*
X171795057Y-92810953D02*
X171747438Y-92858572D01*
X171747438Y-92858572D02*
X171699819Y-92810953D01*
X171699819Y-92810953D02*
X171795057Y-92810953D01*
X172699819Y-93715714D02*
X171699819Y-93715714D01*
X172652200Y-93715714D02*
X172699819Y-93620476D01*
X172699819Y-93620476D02*
X172699819Y-93430000D01*
X172699819Y-93430000D02*
X172652200Y-93334762D01*
X172652200Y-93334762D02*
X172604580Y-93287143D01*
X172604580Y-93287143D02*
X172509342Y-93239524D01*
X172509342Y-93239524D02*
X172223628Y-93239524D01*
X172223628Y-93239524D02*
X172128390Y-93287143D01*
X172128390Y-93287143D02*
X172080771Y-93334762D01*
X172080771Y-93334762D02*
X172033152Y-93430000D01*
X172033152Y-93430000D02*
X172033152Y-93620476D01*
X172033152Y-93620476D02*
X172080771Y-93715714D01*
X172652200Y-94572857D02*
X172699819Y-94477619D01*
X172699819Y-94477619D02*
X172699819Y-94287143D01*
X172699819Y-94287143D02*
X172652200Y-94191905D01*
X172652200Y-94191905D02*
X172556961Y-94144286D01*
X172556961Y-94144286D02*
X172176009Y-94144286D01*
X172176009Y-94144286D02*
X172080771Y-94191905D01*
X172080771Y-94191905D02*
X172033152Y-94287143D01*
X172033152Y-94287143D02*
X172033152Y-94477619D01*
X172033152Y-94477619D02*
X172080771Y-94572857D01*
X172080771Y-94572857D02*
X172176009Y-94620476D01*
X172176009Y-94620476D02*
X172271247Y-94620476D01*
X172271247Y-94620476D02*
X172366485Y-94144286D01*
X173080771Y-96096667D02*
X173033152Y-96049048D01*
X173033152Y-96049048D02*
X172890295Y-95953810D01*
X172890295Y-95953810D02*
X172795057Y-95906191D01*
X172795057Y-95906191D02*
X172652200Y-95858572D01*
X172652200Y-95858572D02*
X172414104Y-95810953D01*
X172414104Y-95810953D02*
X172223628Y-95810953D01*
X172223628Y-95810953D02*
X171985533Y-95858572D01*
X171985533Y-95858572D02*
X171842676Y-95906191D01*
X171842676Y-95906191D02*
X171747438Y-95953810D01*
X171747438Y-95953810D02*
X171604580Y-96049048D01*
X171604580Y-96049048D02*
X171556961Y-96096667D01*
X172699819Y-96477620D02*
X171699819Y-96477620D01*
X171699819Y-96477620D02*
X172414104Y-96810953D01*
X172414104Y-96810953D02*
X171699819Y-97144286D01*
X171699819Y-97144286D02*
X172699819Y-97144286D01*
X172699819Y-98001429D02*
X171937914Y-98001429D01*
X172128390Y-97810953D02*
X171937914Y-98001429D01*
X171937914Y-98001429D02*
X172128390Y-98191905D01*
X173080771Y-98763334D02*
X173033152Y-98810953D01*
X173033152Y-98810953D02*
X172890295Y-98906191D01*
X172890295Y-98906191D02*
X172795057Y-98953810D01*
X172795057Y-98953810D02*
X172652200Y-99001429D01*
X172652200Y-99001429D02*
X172414104Y-99049048D01*
X172414104Y-99049048D02*
X172223628Y-99049048D01*
X172223628Y-99049048D02*
X171985533Y-99001429D01*
X171985533Y-99001429D02*
X171842676Y-98953810D01*
X171842676Y-98953810D02*
X171747438Y-98906191D01*
X171747438Y-98906191D02*
X171604580Y-98810953D01*
X171604580Y-98810953D02*
X171556961Y-98763334D01*
%TO.C,S1*%
X107077075Y-74841758D02*
X107077076Y-75441757D01*
X107077075Y-79541758D02*
X102577076Y-79541758D01*
X107077074Y-79041758D02*
X107077075Y-79541758D01*
X102597076Y-74841758D02*
X107077075Y-74841758D01*
X102577076Y-79541758D02*
X102577075Y-78841758D01*
X102077075Y-73341758D02*
X102077075Y-74261758D01*
X102077075Y-73341758D02*
X101577075Y-72841758D01*
X101577075Y-72841758D02*
X98577075Y-72841758D01*
X100877075Y-77341758D02*
X98577074Y-77341758D01*
X98577075Y-72841758D02*
X98077075Y-73341758D01*
X98577074Y-77341758D02*
X98077075Y-76841758D01*
X100877075Y-77341758D02*
G75*
G02*
X102577075Y-78821758I110001J-1589999D01*
G01*
X102597076Y-74841758D02*
G75*
G02*
X102077075Y-74261758I29998J549999D01*
G01*
%TO.C,S4*%
X131000000Y-73500000D02*
X135500000Y-73500000D01*
X131000000Y-74000000D02*
X131000000Y-73500000D01*
X131000000Y-78200001D02*
X131000001Y-77600000D01*
X135480000Y-78200000D02*
X131000000Y-78200001D01*
X135500000Y-73500000D02*
X135500000Y-74200000D01*
X136000000Y-79700000D02*
X135999999Y-78780000D01*
X136000000Y-79700000D02*
X136500000Y-80200000D01*
X136500000Y-80200000D02*
X139500000Y-80200000D01*
X137200000Y-75700001D02*
X139500000Y-75700000D01*
X139500000Y-75700000D02*
X140000000Y-76200000D01*
X139500000Y-80200000D02*
X140000000Y-79700000D01*
X135480000Y-78200000D02*
G75*
G02*
X136000000Y-78780000I-30000J-550000D01*
G01*
X137200000Y-75700001D02*
G75*
G02*
X135499999Y-74220000I-110000J1590001D01*
G01*
%TO.C,RST1*%
X131200000Y-81840000D02*
X137200000Y-81840000D01*
X131200000Y-82090000D02*
X131200000Y-81840000D01*
X131200000Y-85340000D02*
X131200000Y-85090000D01*
X137200000Y-81840000D02*
X137200000Y-82090000D01*
X137200000Y-85090000D02*
X137200000Y-85340000D01*
X137200000Y-85340000D02*
X131200000Y-85340000D01*
%TO.C,PWR1*%
D12*
X164125000Y-63100000D02*
X164125000Y-64800000D01*
X164125000Y-66100000D02*
X164125000Y-66300000D01*
X165175000Y-61250000D02*
X165965000Y-61250000D01*
X165965000Y-68150000D02*
X165175000Y-68150000D01*
X166975000Y-61850000D02*
X166975000Y-67550000D01*
%TO.C,S7*%
D10*
X155500000Y-50800000D02*
X155000000Y-51300000D01*
X155500000Y-55300000D02*
X155000000Y-54800000D01*
X157800000Y-55300000D02*
X155500000Y-55300000D01*
X158500000Y-50800000D02*
X155500000Y-50800000D01*
X159000000Y-51300000D02*
X158500000Y-50800000D01*
X159000000Y-51300000D02*
X159000000Y-52220000D01*
X159500000Y-57500000D02*
X159500000Y-56800000D01*
X159520000Y-52800000D02*
X164000000Y-52800000D01*
X164000000Y-52800000D02*
X164000000Y-53400000D01*
X164000000Y-57000000D02*
X164000000Y-57500000D01*
X164000000Y-57500000D02*
X159500000Y-57500000D01*
X157800000Y-55300000D02*
G75*
G02*
X159500000Y-56780000I110000J-1590000D01*
G01*
X159520000Y-52800000D02*
G75*
G02*
X159000000Y-52220000I30000J550000D01*
G01*
%TO.C,S8*%
X165910550Y-108628776D02*
X165973267Y-108032061D01*
X166349570Y-104451783D02*
X166401834Y-103954522D01*
X166401834Y-103954522D02*
X170877183Y-104424900D01*
X170366008Y-109097062D02*
X165910550Y-108628776D01*
X170726367Y-110643200D02*
X170822533Y-109728240D01*
X170726367Y-110643200D02*
X171171364Y-111192725D01*
X170877183Y-104424900D02*
X170804013Y-105121065D01*
X171171364Y-111192725D02*
X174154929Y-111506310D01*
X172337907Y-106790546D02*
X174625308Y-107030962D01*
X174154929Y-111506310D02*
X174704455Y-111061314D01*
X174625308Y-107030962D02*
X175070304Y-107580487D01*
X170366008Y-109097062D02*
G75*
G02*
X170822533Y-109728240I-87326J-543851D01*
G01*
X172337907Y-106790546D02*
G75*
G02*
X170801922Y-105140955I56803J1592788D01*
G01*
%TO.C,S6*%
X155500000Y-69750000D02*
X155000000Y-70250000D01*
X155500000Y-74250000D02*
X155000000Y-73750000D01*
X157800000Y-74250000D02*
X155500000Y-74250000D01*
X158500000Y-69750000D02*
X155500000Y-69750000D01*
X159000000Y-70250000D02*
X158500000Y-69750000D01*
X159000000Y-70250000D02*
X159000000Y-71170000D01*
X159500000Y-76450000D02*
X159500000Y-75750000D01*
X159520000Y-71750000D02*
X164000000Y-71750000D01*
X164000000Y-71750000D02*
X164000000Y-72350000D01*
X164000000Y-75950000D02*
X164000000Y-76450000D01*
X164000000Y-76450000D02*
X159500000Y-76450000D01*
X157800000Y-74250000D02*
G75*
G02*
X159500000Y-75730000I110000J-1590000D01*
G01*
X159520000Y-71750000D02*
G75*
G02*
X159000000Y-71170000I30000J550000D01*
G01*
D13*
%TO.C,REF\u002A\u002A*%
G36*
X196516126Y-103246168D02*
G01*
X196408765Y-103246168D01*
X196408765Y-101746412D01*
X196516126Y-101746412D01*
X196516126Y-103246168D01*
G37*
G36*
X196623487Y-101746412D02*
G01*
X196516126Y-101746412D01*
X196516126Y-101639059D01*
X196623487Y-101639059D01*
X196623487Y-101746412D01*
G37*
G36*
X196945493Y-101639059D02*
G01*
X196623487Y-101639059D01*
X196623487Y-101531751D01*
X196945493Y-101531751D01*
X196945493Y-101639059D01*
G37*
G36*
X196836637Y-103568174D02*
G01*
X196729291Y-103568174D01*
X196729291Y-103246168D01*
X196836637Y-103246168D01*
X196836637Y-103568174D01*
G37*
G36*
X196836637Y-105067884D02*
G01*
X196729291Y-105067884D01*
X196729291Y-104532713D01*
X196836637Y-104532713D01*
X196836637Y-105067884D01*
G37*
G36*
X196943982Y-103031461D02*
G01*
X196836637Y-103031461D01*
X196836637Y-102818296D01*
X196943982Y-102818296D01*
X196943982Y-103031461D01*
G37*
G36*
X196943982Y-103246168D02*
G01*
X196836637Y-103246168D01*
X196836637Y-103031461D01*
X196943982Y-103031461D01*
X196943982Y-103246168D01*
G37*
G36*
X196943982Y-105495756D02*
G01*
X196836637Y-105495756D01*
X196836637Y-105067892D01*
X196943982Y-105067892D01*
X196943982Y-105495756D01*
G37*
G36*
X197051297Y-101746412D02*
G01*
X196943982Y-101746412D01*
X196943982Y-101639059D01*
X197051297Y-101639059D01*
X197051297Y-101746412D01*
G37*
G36*
X197051297Y-102818296D02*
G01*
X196943982Y-102818296D01*
X196943982Y-102603635D01*
X197051297Y-102603635D01*
X197051297Y-102818296D01*
G37*
G36*
X197051297Y-103031461D02*
G01*
X196943982Y-103031461D01*
X196943982Y-102816801D01*
X197051297Y-102816801D01*
X197051297Y-103031461D01*
G37*
G36*
X197051297Y-105710462D02*
G01*
X196943982Y-105710462D01*
X196943982Y-105495756D01*
X197051297Y-105495756D01*
X197051297Y-105710462D01*
G37*
G36*
X197158643Y-101853765D02*
G01*
X197051297Y-101853765D01*
X197051297Y-101746412D01*
X197158643Y-101746412D01*
X197158643Y-101853765D01*
G37*
G36*
X197158643Y-102603635D02*
G01*
X197051297Y-102603635D01*
X197051297Y-102388937D01*
X197158643Y-102388937D01*
X197158643Y-102603635D01*
G37*
G36*
X197158643Y-102818296D02*
G01*
X197051297Y-102818296D01*
X197051297Y-102603635D01*
X197158643Y-102603635D01*
X197158643Y-102818296D01*
G37*
G36*
X197158643Y-105817762D02*
G01*
X197051297Y-105817762D01*
X197051297Y-105710462D01*
X197158643Y-105710462D01*
X197158643Y-105817762D01*
G37*
G36*
X197266004Y-101961118D02*
G01*
X197158643Y-101961118D01*
X197158643Y-101853765D01*
X197266004Y-101853765D01*
X197266004Y-101961118D01*
G37*
G36*
X197266004Y-102388937D02*
G01*
X197158643Y-102388937D01*
X197158643Y-102175779D01*
X197266004Y-102175779D01*
X197266004Y-102388937D01*
G37*
G36*
X197266004Y-102603635D02*
G01*
X197158643Y-102603635D01*
X197158643Y-102388937D01*
X197266004Y-102388937D01*
X197266004Y-102603635D01*
G37*
G36*
X197266004Y-105925123D02*
G01*
X197158643Y-105925123D01*
X197158643Y-105817762D01*
X197266004Y-105817762D01*
X197266004Y-105925123D01*
G37*
G36*
X197266004Y-106782346D02*
G01*
X197158643Y-106782346D01*
X197158643Y-106460294D01*
X197266004Y-106460294D01*
X197266004Y-106782346D01*
G37*
G36*
X197373365Y-102068426D02*
G01*
X197266004Y-102068426D01*
X197266004Y-101961118D01*
X197373365Y-101961118D01*
X197373365Y-102068426D01*
G37*
G36*
X197373365Y-102388937D02*
G01*
X197266004Y-102388937D01*
X197266004Y-102174276D01*
X197373365Y-102174276D01*
X197373365Y-102388937D01*
G37*
G36*
X197373365Y-106139783D02*
G01*
X197266004Y-106139783D01*
X197266004Y-105925123D01*
X197373365Y-105925123D01*
X197373365Y-106139783D01*
G37*
G36*
X197373365Y-106889654D02*
G01*
X197266004Y-106889654D01*
X197266004Y-106782346D01*
X197373365Y-106782346D01*
X197373365Y-106889654D01*
G37*
G36*
X197480665Y-101639059D02*
G01*
X197373365Y-101639059D01*
X197373365Y-101211240D01*
X197480665Y-101211240D01*
X197480665Y-101639059D01*
G37*
G36*
X197480665Y-102175779D02*
G01*
X197373365Y-102175779D01*
X197373365Y-102068426D01*
X197480665Y-102068426D01*
X197480665Y-102175779D01*
G37*
G36*
X197480665Y-107211668D02*
G01*
X197373365Y-107211668D01*
X197373365Y-106889654D01*
X197480665Y-106889654D01*
X197480665Y-107211668D01*
G37*
G36*
X197801175Y-101211240D02*
G01*
X197479154Y-101211240D01*
X197479154Y-101103887D01*
X197801175Y-101103887D01*
X197801175Y-101211240D01*
G37*
G36*
X197586515Y-101746412D02*
G01*
X197479154Y-101746412D01*
X197479154Y-101639059D01*
X197586515Y-101639059D01*
X197586515Y-101746412D01*
G37*
G36*
X197586515Y-107317518D02*
G01*
X197479154Y-107317518D01*
X197479154Y-107210172D01*
X197586515Y-107210172D01*
X197586515Y-107317518D01*
G37*
G36*
X197693860Y-103246168D02*
G01*
X197586515Y-103246168D01*
X197586515Y-103031461D01*
X197693860Y-103031461D01*
X197693860Y-103246168D01*
G37*
G36*
X197693860Y-106567640D02*
G01*
X197586515Y-106567640D01*
X197586515Y-106352979D01*
X197693860Y-106352979D01*
X197693860Y-106567640D01*
G37*
G36*
X198015882Y-107424871D02*
G01*
X197588025Y-107424871D01*
X197588025Y-107317518D01*
X198015882Y-107317518D01*
X198015882Y-107424871D01*
G37*
G36*
X197801175Y-103246168D02*
G01*
X197693860Y-103246168D01*
X197693860Y-103031461D01*
X197801175Y-103031461D01*
X197801175Y-103246168D01*
G37*
G36*
X197801175Y-103353475D02*
G01*
X197693860Y-103353475D01*
X197693860Y-103246168D01*
X197801175Y-103246168D01*
X197801175Y-103353475D01*
G37*
G36*
X197801175Y-106674993D02*
G01*
X197693860Y-106674993D01*
X197693860Y-106567640D01*
X197801175Y-106567640D01*
X197801175Y-106674993D01*
G37*
G36*
X197908521Y-101103887D02*
G01*
X197801175Y-101103887D01*
X197801175Y-100889227D01*
X197908521Y-100889227D01*
X197908521Y-101103887D01*
G37*
G36*
X197908521Y-101211240D02*
G01*
X197801175Y-101211240D01*
X197801175Y-101103887D01*
X197908521Y-101103887D01*
X197908521Y-101211240D01*
G37*
G36*
X198015882Y-101318555D02*
G01*
X197801175Y-101318555D01*
X197801175Y-101211240D01*
X198015882Y-101211240D01*
X198015882Y-101318555D01*
G37*
G36*
X197908521Y-102175779D02*
G01*
X197801175Y-102175779D01*
X197801175Y-102068426D01*
X197908521Y-102068426D01*
X197908521Y-102175779D01*
G37*
G36*
X197908521Y-103246168D02*
G01*
X197801175Y-103246168D01*
X197801175Y-103031461D01*
X197908521Y-103031461D01*
X197908521Y-103246168D01*
G37*
G36*
X197908521Y-103353475D02*
G01*
X197801175Y-103353475D01*
X197801175Y-103246168D01*
X197908521Y-103246168D01*
X197908521Y-103353475D01*
G37*
G36*
X197908521Y-103460828D02*
G01*
X197801175Y-103460828D01*
X197801175Y-103353468D01*
X197908521Y-103353468D01*
X197908521Y-103460828D01*
G37*
G36*
X198015882Y-106782346D02*
G01*
X197801175Y-106782346D01*
X197801175Y-106674993D01*
X198015882Y-106674993D01*
X198015882Y-106782346D01*
G37*
G36*
X198015882Y-100889227D02*
G01*
X197908521Y-100889227D01*
X197908521Y-100674528D01*
X198015882Y-100674528D01*
X198015882Y-100889227D01*
G37*
G36*
X198015882Y-101103887D02*
G01*
X197908521Y-101103887D01*
X197908521Y-100889227D01*
X198015882Y-100889227D01*
X198015882Y-101103887D01*
G37*
G36*
X198015882Y-102283125D02*
G01*
X197908521Y-102283125D01*
X197908521Y-102175779D01*
X198015882Y-102175779D01*
X198015882Y-102283125D01*
G37*
G36*
X198015882Y-102388937D02*
G01*
X197908521Y-102388937D01*
X197908521Y-102281583D01*
X198015882Y-102281583D01*
X198015882Y-102388937D01*
G37*
G36*
X198015882Y-103353475D02*
G01*
X197908521Y-103353475D01*
X197908521Y-103246168D01*
X198015882Y-103246168D01*
X198015882Y-103353475D01*
G37*
G36*
X198015882Y-103460828D02*
G01*
X197908521Y-103460828D01*
X197908521Y-103353468D01*
X198015882Y-103353468D01*
X198015882Y-103460828D01*
G37*
G36*
X198015882Y-103568174D02*
G01*
X197908521Y-103568174D01*
X197908521Y-103460828D01*
X198015882Y-103460828D01*
X198015882Y-103568174D01*
G37*
G36*
X198123227Y-100674520D02*
G01*
X198015882Y-100674520D01*
X198015882Y-100459859D01*
X198123227Y-100459859D01*
X198123227Y-100674520D01*
G37*
G36*
X198123227Y-100889227D02*
G01*
X198015882Y-100889227D01*
X198015882Y-100674528D01*
X198123227Y-100674528D01*
X198123227Y-100889227D01*
G37*
G36*
X198765760Y-101424398D02*
G01*
X198015882Y-101424398D01*
X198015882Y-101317045D01*
X198765760Y-101317045D01*
X198765760Y-101424398D01*
G37*
G36*
X198123227Y-102388937D02*
G01*
X198015882Y-102388937D01*
X198015882Y-102281583D01*
X198123227Y-102281583D01*
X198123227Y-102388937D01*
G37*
G36*
X198123227Y-102496290D02*
G01*
X198015882Y-102496290D01*
X198015882Y-102388937D01*
X198123227Y-102388937D01*
X198123227Y-102496290D01*
G37*
G36*
X198123227Y-103460828D02*
G01*
X198015882Y-103460828D01*
X198015882Y-103353468D01*
X198123227Y-103353468D01*
X198123227Y-103460828D01*
G37*
G36*
X198123227Y-103568174D02*
G01*
X198015882Y-103568174D01*
X198015882Y-103460828D01*
X198123227Y-103460828D01*
X198123227Y-103568174D01*
G37*
G36*
X198123227Y-103675527D02*
G01*
X198015882Y-103675527D01*
X198015882Y-103568174D01*
X198123227Y-103568174D01*
X198123227Y-103675527D01*
G37*
G36*
X198123227Y-106889654D02*
G01*
X198015882Y-106889654D01*
X198015882Y-106782346D01*
X198123227Y-106782346D01*
X198123227Y-106889654D01*
G37*
G36*
X198123227Y-107532178D02*
G01*
X198015882Y-107532178D01*
X198015882Y-107424879D01*
X198123227Y-107424879D01*
X198123227Y-107532178D01*
G37*
G36*
X198230542Y-100461362D02*
G01*
X198123227Y-100461362D01*
X198123227Y-100354009D01*
X198230542Y-100354009D01*
X198230542Y-100461362D01*
G37*
G36*
X198230542Y-100674520D02*
G01*
X198123227Y-100674520D01*
X198123227Y-100461362D01*
X198230542Y-100461362D01*
X198230542Y-100674520D01*
G37*
G36*
X198230542Y-102496290D02*
G01*
X198123227Y-102496290D01*
X198123227Y-102388937D01*
X198230542Y-102388937D01*
X198230542Y-102496290D01*
G37*
G36*
X198230542Y-102603635D02*
G01*
X198123227Y-102603635D01*
X198123227Y-102496290D01*
X198230542Y-102496290D01*
X198230542Y-102603635D01*
G37*
G36*
X198230542Y-103675527D02*
G01*
X198123227Y-103675527D01*
X198123227Y-103568174D01*
X198230542Y-103568174D01*
X198230542Y-103675527D01*
G37*
G36*
X198230542Y-103782835D02*
G01*
X198123227Y-103782835D01*
X198123227Y-103675535D01*
X198230542Y-103675535D01*
X198230542Y-103782835D01*
G37*
G36*
X198230542Y-106995512D02*
G01*
X198123227Y-106995512D01*
X198123227Y-106888151D01*
X198230542Y-106888151D01*
X198230542Y-106995512D01*
G37*
G36*
X198230542Y-107639532D02*
G01*
X198123227Y-107639532D01*
X198123227Y-107532178D01*
X198230542Y-107532178D01*
X198230542Y-107639532D01*
G37*
G36*
X198336393Y-100354017D02*
G01*
X198229032Y-100354017D01*
X198229032Y-100246702D01*
X198336393Y-100246702D01*
X198336393Y-100354017D01*
G37*
G36*
X198336393Y-102603635D02*
G01*
X198229032Y-102603635D01*
X198229032Y-102496290D01*
X198336393Y-102496290D01*
X198336393Y-102603635D01*
G37*
G36*
X198443738Y-103782835D02*
G01*
X198229032Y-103782835D01*
X198229032Y-103675535D01*
X198443738Y-103675535D01*
X198443738Y-103782835D01*
G37*
G36*
X198336393Y-100461362D02*
G01*
X198230542Y-100461362D01*
X198230542Y-100354009D01*
X198336393Y-100354009D01*
X198336393Y-100461362D01*
G37*
G36*
X198443738Y-100996534D02*
G01*
X198230542Y-100996534D01*
X198230542Y-100889227D01*
X198443738Y-100889227D01*
X198443738Y-100996534D01*
G37*
G36*
X198336393Y-102710950D02*
G01*
X198230542Y-102710950D01*
X198230542Y-102603643D01*
X198336393Y-102603643D01*
X198336393Y-102710950D01*
G37*
G36*
X198443738Y-103888692D02*
G01*
X198230542Y-103888692D01*
X198230542Y-103782835D01*
X198443738Y-103782835D01*
X198443738Y-103888692D01*
G37*
G36*
X198445249Y-107102819D02*
G01*
X198230542Y-107102819D01*
X198230542Y-106995512D01*
X198445249Y-106995512D01*
X198445249Y-107102819D01*
G37*
G36*
X198765760Y-107746885D02*
G01*
X198230542Y-107746885D01*
X198230542Y-107639532D01*
X198765760Y-107639532D01*
X198765760Y-107746885D01*
G37*
G36*
X198443738Y-100246702D02*
G01*
X198336393Y-100246702D01*
X198336393Y-100139349D01*
X198443738Y-100139349D01*
X198443738Y-100246702D01*
G37*
G36*
X198443738Y-100354017D02*
G01*
X198336393Y-100354017D01*
X198336393Y-100246702D01*
X198443738Y-100246702D01*
X198443738Y-100354017D01*
G37*
G36*
X198551099Y-102710950D02*
G01*
X198336393Y-102710950D01*
X198336393Y-102603643D01*
X198551099Y-102603643D01*
X198551099Y-102710950D01*
G37*
G36*
X198551099Y-102818296D02*
G01*
X198336393Y-102818296D01*
X198336393Y-102710950D01*
X198551099Y-102710950D01*
X198551099Y-102818296D01*
G37*
G36*
X198551099Y-100139356D02*
G01*
X198443738Y-100139356D01*
X198443738Y-100031995D01*
X198551099Y-100031995D01*
X198551099Y-100139356D01*
G37*
G36*
X198551099Y-100246702D02*
G01*
X198443738Y-100246702D01*
X198443738Y-100139349D01*
X198551099Y-100139349D01*
X198551099Y-100246702D01*
G37*
G36*
X198551099Y-101211240D02*
G01*
X198443738Y-101211240D01*
X198443738Y-100996534D01*
X198551099Y-100996534D01*
X198551099Y-101211240D01*
G37*
G36*
X198658399Y-103890195D02*
G01*
X198443738Y-103890195D01*
X198443738Y-103782835D01*
X198658399Y-103782835D01*
X198658399Y-103890195D01*
G37*
G36*
X198658399Y-103996000D02*
G01*
X198443738Y-103996000D01*
X198443738Y-103888692D01*
X198658399Y-103888692D01*
X198658399Y-103996000D01*
G37*
G36*
X198658399Y-107210172D02*
G01*
X198443738Y-107210172D01*
X198443738Y-107102811D01*
X198658399Y-107102811D01*
X198658399Y-107210172D01*
G37*
G36*
X198658399Y-100031995D02*
G01*
X198551099Y-100031995D01*
X198551099Y-99924650D01*
X198658399Y-99924650D01*
X198658399Y-100031995D01*
G37*
G36*
X198658399Y-100139356D02*
G01*
X198551099Y-100139356D01*
X198551099Y-100031995D01*
X198658399Y-100031995D01*
X198658399Y-100139356D01*
G37*
G36*
X198873105Y-102818296D02*
G01*
X198551099Y-102818296D01*
X198551099Y-102710950D01*
X198873105Y-102710950D01*
X198873105Y-102818296D01*
G37*
G36*
X198873105Y-102925657D02*
G01*
X198551099Y-102925657D01*
X198551099Y-102818296D01*
X198873105Y-102818296D01*
X198873105Y-102925657D01*
G37*
G36*
X198765760Y-99924650D02*
G01*
X198658399Y-99924650D01*
X198658399Y-99817335D01*
X198765760Y-99817335D01*
X198765760Y-99924650D01*
G37*
G36*
X198765760Y-100031995D02*
G01*
X198658399Y-100031995D01*
X198658399Y-99924650D01*
X198765760Y-99924650D01*
X198765760Y-100031995D01*
G37*
G36*
X198873105Y-103996000D02*
G01*
X198658399Y-103996000D01*
X198658399Y-103888692D01*
X198873105Y-103888692D01*
X198873105Y-103996000D01*
G37*
G36*
X198873105Y-104103353D02*
G01*
X198658399Y-104103353D01*
X198658399Y-103996000D01*
X198873105Y-103996000D01*
X198873105Y-104103353D01*
G37*
G36*
X198873105Y-107317518D02*
G01*
X198658399Y-107317518D01*
X198658399Y-107210172D01*
X198873105Y-107210172D01*
X198873105Y-107317518D01*
G37*
G36*
X198980466Y-99817335D02*
G01*
X198765760Y-99817335D01*
X198765760Y-99709982D01*
X198980466Y-99709982D01*
X198980466Y-99817335D01*
G37*
G36*
X198980466Y-99924650D02*
G01*
X198765760Y-99924650D01*
X198765760Y-99817335D01*
X198980466Y-99817335D01*
X198980466Y-99924650D01*
G37*
G36*
X198980466Y-101318555D02*
G01*
X198765760Y-101318555D01*
X198765760Y-101211240D01*
X198980466Y-101211240D01*
X198980466Y-101318555D01*
G37*
G36*
X198980466Y-107639532D02*
G01*
X198765760Y-107639532D01*
X198765760Y-107532178D01*
X198980466Y-107532178D01*
X198980466Y-107639532D01*
G37*
G36*
X198980451Y-101853765D02*
G01*
X198873105Y-101853765D01*
X198873105Y-101746412D01*
X198980451Y-101746412D01*
X198980451Y-101853765D01*
G37*
G36*
X199837644Y-103031461D02*
G01*
X198873105Y-103031461D01*
X198873105Y-102925657D01*
X199837644Y-102925657D01*
X199837644Y-103031461D01*
G37*
G36*
X199087766Y-104103353D02*
G01*
X198873105Y-104103353D01*
X198873105Y-103996000D01*
X199087766Y-103996000D01*
X199087766Y-104103353D01*
G37*
G36*
X199087766Y-104210706D02*
G01*
X198873105Y-104210706D01*
X198873105Y-104103345D01*
X199087766Y-104103345D01*
X199087766Y-104210706D01*
G37*
G36*
X199300962Y-99711485D02*
G01*
X198978910Y-99711485D01*
X198978910Y-99604139D01*
X199300962Y-99604139D01*
X199300962Y-99711485D01*
G37*
G36*
X199300962Y-99817335D02*
G01*
X198980451Y-99817335D01*
X198980451Y-99711485D01*
X199300962Y-99711485D01*
X199300962Y-99817335D01*
G37*
G36*
X199515622Y-101211240D02*
G01*
X198980451Y-101211240D01*
X198980451Y-101103887D01*
X199515622Y-101103887D01*
X199515622Y-101211240D01*
G37*
G36*
X199195112Y-101746412D02*
G01*
X198980451Y-101746412D01*
X198980451Y-101639059D01*
X199195112Y-101639059D01*
X199195112Y-101746412D01*
G37*
G36*
X199408277Y-104210706D02*
G01*
X199086271Y-104210706D01*
X199086271Y-104103345D01*
X199408277Y-104103345D01*
X199408277Y-104210706D01*
G37*
G36*
X199408277Y-104318052D02*
G01*
X199087766Y-104318052D01*
X199087766Y-104210706D01*
X199408277Y-104210706D01*
X199408277Y-104318052D01*
G37*
G36*
X199622983Y-99604139D02*
G01*
X199300977Y-99604139D01*
X199300977Y-99496824D01*
X199622983Y-99496824D01*
X199622983Y-99604139D01*
G37*
G36*
X199943494Y-104318052D02*
G01*
X199408277Y-104318052D01*
X199408277Y-104210706D01*
X199943494Y-104210706D01*
X199943494Y-104318052D01*
G37*
G36*
X199943494Y-104425367D02*
G01*
X199408277Y-104425367D01*
X199408277Y-104318052D01*
X199943494Y-104318052D01*
X199943494Y-104425367D01*
G37*
G36*
X199622983Y-101211240D02*
G01*
X199515638Y-101211240D01*
X199515638Y-101103887D01*
X199622983Y-101103887D01*
X199622983Y-101211240D01*
G37*
G36*
X199622983Y-101318555D02*
G01*
X199515638Y-101318555D01*
X199515638Y-101211240D01*
X199622983Y-101211240D01*
X199622983Y-101318555D01*
G37*
G36*
X201015378Y-99496824D02*
G01*
X199622983Y-99496824D01*
X199622983Y-99389478D01*
X201015378Y-99389478D01*
X201015378Y-99496824D01*
G37*
G36*
X199730329Y-101318555D02*
G01*
X199622983Y-101318555D01*
X199622983Y-101211240D01*
X199730329Y-101211240D01*
X199730329Y-101318555D01*
G37*
G36*
X199730329Y-101746412D02*
G01*
X199622983Y-101746412D01*
X199622983Y-101318555D01*
X199730329Y-101318555D01*
X199730329Y-101746412D01*
G37*
G36*
X199837644Y-101746412D02*
G01*
X199730329Y-101746412D01*
X199730329Y-101318555D01*
X199837644Y-101318555D01*
X199837644Y-101746412D01*
G37*
G36*
X199837644Y-102068426D02*
G01*
X199730329Y-102068426D01*
X199730329Y-101746412D01*
X199837644Y-101746412D01*
X199837644Y-102068426D01*
G37*
G36*
X199943494Y-102068426D02*
G01*
X199837644Y-102068426D01*
X199837644Y-101746412D01*
X199943494Y-101746412D01*
X199943494Y-102068426D01*
G37*
G36*
X199944990Y-102281583D02*
G01*
X199837644Y-102281583D01*
X199837644Y-102066923D01*
X199944990Y-102066923D01*
X199944990Y-102281583D01*
G37*
G36*
X200050855Y-102281583D02*
G01*
X199943494Y-102281583D01*
X199943494Y-102068426D01*
X200050855Y-102068426D01*
X200050855Y-102281583D01*
G37*
G36*
X200050855Y-102496290D02*
G01*
X199943494Y-102496290D01*
X199943494Y-102281583D01*
X200050855Y-102281583D01*
X200050855Y-102496290D01*
G37*
G36*
X200050855Y-102818296D02*
G01*
X199943494Y-102818296D01*
X199943494Y-102710950D01*
X200050855Y-102710950D01*
X200050855Y-102818296D01*
G37*
G36*
X200372861Y-104532713D02*
G01*
X199943494Y-104532713D01*
X199943494Y-104425367D01*
X200372861Y-104425367D01*
X200372861Y-104532713D01*
G37*
G36*
X200372861Y-104425367D02*
G01*
X199944990Y-104425367D01*
X199944990Y-104318052D01*
X200372861Y-104318052D01*
X200372861Y-104425367D01*
G37*
G36*
X200158155Y-102496290D02*
G01*
X200050840Y-102496290D01*
X200050840Y-102281583D01*
X200158155Y-102281583D01*
X200158155Y-102496290D01*
G37*
G36*
X200158155Y-106674993D02*
G01*
X200050840Y-106674993D01*
X200050840Y-106460294D01*
X200158155Y-106460294D01*
X200158155Y-106674993D01*
G37*
G36*
X200265516Y-106460294D02*
G01*
X200158155Y-106460294D01*
X200158155Y-106245634D01*
X200265516Y-106245634D01*
X200265516Y-106460294D01*
G37*
G36*
X200265516Y-106674993D02*
G01*
X200158155Y-106674993D01*
X200158155Y-106460294D01*
X200265516Y-106460294D01*
X200265516Y-106674993D01*
G37*
G36*
X200265516Y-107960050D02*
G01*
X200158155Y-107960050D01*
X200158155Y-107852689D01*
X200265516Y-107852689D01*
X200265516Y-107960050D01*
G37*
G36*
X200372861Y-106245634D02*
G01*
X200265500Y-106245634D01*
X200265500Y-106139776D01*
X200372861Y-106139776D01*
X200372861Y-106245634D01*
G37*
G36*
X200372861Y-106460294D02*
G01*
X200265500Y-106460294D01*
X200265500Y-106245634D01*
X200372861Y-106245634D01*
X200372861Y-106460294D01*
G37*
G36*
X200372861Y-108067396D02*
G01*
X200265500Y-108067396D01*
X200265500Y-107960050D01*
X200372861Y-107960050D01*
X200372861Y-108067396D01*
G37*
G36*
X200908078Y-104532713D02*
G01*
X200372861Y-104532713D01*
X200372861Y-104425367D01*
X200908078Y-104425367D01*
X200908078Y-104532713D01*
G37*
G36*
X200908078Y-104638563D02*
G01*
X200372861Y-104638563D01*
X200372861Y-104532713D01*
X200908078Y-104532713D01*
X200908078Y-104638563D01*
G37*
G36*
X200587568Y-106245634D02*
G01*
X200372861Y-106245634D01*
X200372861Y-106138280D01*
X200587568Y-106138280D01*
X200587568Y-106245634D01*
G37*
G36*
X200480207Y-108174711D02*
G01*
X200372861Y-108174711D01*
X200372861Y-108067396D01*
X200480207Y-108067396D01*
X200480207Y-108174711D01*
G37*
G36*
X200587568Y-108282056D02*
G01*
X200480207Y-108282056D01*
X200480207Y-108174703D01*
X200587568Y-108174703D01*
X200587568Y-108282056D01*
G37*
G36*
X200694867Y-102388937D02*
G01*
X200587568Y-102388937D01*
X200587568Y-102281583D01*
X200694867Y-102281583D01*
X200694867Y-102388937D01*
G37*
G36*
X200802228Y-106139783D02*
G01*
X200587568Y-106139783D01*
X200587568Y-106032468D01*
X200802228Y-106032468D01*
X200802228Y-106139783D01*
G37*
G36*
X201337446Y-108389410D02*
G01*
X200587568Y-108389410D01*
X200587568Y-108282056D01*
X201337446Y-108282056D01*
X201337446Y-108389410D01*
G37*
G36*
X201230085Y-102388937D02*
G01*
X200694867Y-102388937D01*
X200694867Y-102281583D01*
X201230085Y-102281583D01*
X201230085Y-102388937D01*
G37*
G36*
X200908078Y-106139783D02*
G01*
X200800718Y-106139783D01*
X200800718Y-106032468D01*
X200908078Y-106032468D01*
X200908078Y-106139783D01*
G37*
G36*
X200908078Y-106245634D02*
G01*
X200800718Y-106245634D01*
X200800718Y-106138280D01*
X200908078Y-106138280D01*
X200908078Y-106245634D01*
G37*
G36*
X202087308Y-104745878D02*
G01*
X200908078Y-104745878D01*
X200908078Y-104638570D01*
X202087308Y-104638570D01*
X202087308Y-104745878D01*
G37*
G36*
X201015378Y-106245634D02*
G01*
X200908078Y-106245634D01*
X200908078Y-106139776D01*
X201015378Y-106139776D01*
X201015378Y-106245634D01*
G37*
G36*
X201015378Y-106352979D02*
G01*
X200908078Y-106352979D01*
X200908078Y-106245634D01*
X201015378Y-106245634D01*
X201015378Y-106352979D01*
G37*
G36*
X201550596Y-99604139D02*
G01*
X201015378Y-99604139D01*
X201015378Y-99496824D01*
X201550596Y-99496824D01*
X201550596Y-99604139D01*
G37*
G36*
X201230085Y-106352979D02*
G01*
X201015378Y-106352979D01*
X201015378Y-106245634D01*
X201230085Y-106245634D01*
X201230085Y-106352979D01*
G37*
G36*
X201230085Y-106460294D02*
G01*
X201015378Y-106460294D01*
X201015378Y-106352979D01*
X201230085Y-106352979D01*
X201230085Y-106460294D01*
G37*
G36*
X201337446Y-102496290D02*
G01*
X201230085Y-102496290D01*
X201230085Y-102388937D01*
X201337446Y-102388937D01*
X201337446Y-102496290D01*
G37*
G36*
X201337446Y-106245634D02*
G01*
X201230085Y-106245634D01*
X201230085Y-106139776D01*
X201337446Y-106139776D01*
X201337446Y-106245634D01*
G37*
G36*
X201337446Y-106352979D02*
G01*
X201230085Y-106352979D01*
X201230085Y-106245634D01*
X201337446Y-106245634D01*
X201337446Y-106352979D01*
G37*
G36*
X201444745Y-102603635D02*
G01*
X201337446Y-102603635D01*
X201337446Y-102496290D01*
X201444745Y-102496290D01*
X201444745Y-102603635D01*
G37*
G36*
X201872617Y-106245634D02*
G01*
X201337446Y-106245634D01*
X201337446Y-106138280D01*
X201872617Y-106138280D01*
X201872617Y-106245634D01*
G37*
G36*
X201552106Y-108282056D02*
G01*
X201337446Y-108282056D01*
X201337446Y-108174703D01*
X201552106Y-108174703D01*
X201552106Y-108282056D01*
G37*
G36*
X201550596Y-102710950D02*
G01*
X201444745Y-102710950D01*
X201444745Y-102603643D01*
X201550596Y-102603643D01*
X201550596Y-102710950D01*
G37*
G36*
X201765256Y-99711485D02*
G01*
X201550596Y-99711485D01*
X201550596Y-99604139D01*
X201765256Y-99604139D01*
X201765256Y-99711485D01*
G37*
G36*
X201657956Y-102710950D02*
G01*
X201550596Y-102710950D01*
X201550596Y-102603643D01*
X201657956Y-102603643D01*
X201657956Y-102710950D01*
G37*
G36*
X201657956Y-108174711D02*
G01*
X201550596Y-108174711D01*
X201550596Y-108067396D01*
X201657956Y-108067396D01*
X201657956Y-108174711D01*
G37*
G36*
X201765256Y-108067396D02*
G01*
X201657956Y-108067396D01*
X201657956Y-107960050D01*
X201765256Y-107960050D01*
X201765256Y-108067396D01*
G37*
G36*
X201979963Y-99817335D02*
G01*
X201765256Y-99817335D01*
X201765256Y-99709982D01*
X201979963Y-99709982D01*
X201979963Y-99817335D01*
G37*
G36*
X201979963Y-107960050D02*
G01*
X201765256Y-107960050D01*
X201765256Y-107852689D01*
X201979963Y-107852689D01*
X201979963Y-107960050D01*
G37*
G36*
X201979963Y-106352979D02*
G01*
X201872617Y-106352979D01*
X201872617Y-106245634D01*
X201979963Y-106245634D01*
X201979963Y-106352979D01*
G37*
G36*
X202194623Y-99924650D02*
G01*
X201979963Y-99924650D01*
X201979963Y-99817335D01*
X202194623Y-99817335D01*
X202194623Y-99924650D01*
G37*
G36*
X202087323Y-106352979D02*
G01*
X201979963Y-106352979D01*
X201979963Y-106245634D01*
X202087323Y-106245634D01*
X202087323Y-106352979D01*
G37*
G36*
X202087323Y-107854192D02*
G01*
X201979963Y-107854192D01*
X201979963Y-107746885D01*
X202087323Y-107746885D01*
X202087323Y-107854192D01*
G37*
G36*
X202409330Y-100031995D02*
G01*
X202194623Y-100031995D01*
X202194623Y-99924650D01*
X202409330Y-99924650D01*
X202409330Y-100031995D01*
G37*
G36*
X202516691Y-104640066D02*
G01*
X202301984Y-104640066D01*
X202301984Y-104532713D01*
X202516691Y-104532713D01*
X202516691Y-104640066D01*
G37*
G36*
X202622495Y-100139356D02*
G01*
X202407834Y-100139356D01*
X202407834Y-100031995D01*
X202622495Y-100031995D01*
X202622495Y-100139356D01*
G37*
G36*
X202729841Y-104425367D02*
G01*
X202515180Y-104425367D01*
X202515180Y-104318052D01*
X202729841Y-104318052D01*
X202729841Y-104425367D01*
G37*
G36*
X202729841Y-104532713D02*
G01*
X202515180Y-104532713D01*
X202515180Y-104425367D01*
X202729841Y-104425367D01*
X202729841Y-104532713D01*
G37*
G36*
X202729841Y-100246702D02*
G01*
X202622495Y-100246702D01*
X202622495Y-100139349D01*
X202729841Y-100139349D01*
X202729841Y-100246702D01*
G37*
G36*
X202837201Y-100354017D02*
G01*
X202729841Y-100354017D01*
X202729841Y-100246702D01*
X202837201Y-100246702D01*
X202837201Y-100354017D01*
G37*
G36*
X202837201Y-104318052D02*
G01*
X202729841Y-104318052D01*
X202729841Y-104210706D01*
X202837201Y-104210706D01*
X202837201Y-104318052D01*
G37*
G36*
X202944547Y-100461362D02*
G01*
X202837186Y-100461362D01*
X202837186Y-100354009D01*
X202944547Y-100354009D01*
X202944547Y-100461362D01*
G37*
G36*
X203051847Y-104210706D02*
G01*
X202837186Y-104210706D01*
X202837186Y-104103345D01*
X203051847Y-104103345D01*
X203051847Y-104210706D01*
G37*
G36*
X203051847Y-100568716D02*
G01*
X202944547Y-100568716D01*
X202944547Y-100461362D01*
X203051847Y-100461362D01*
X203051847Y-100568716D01*
G37*
G36*
X203266553Y-107532178D02*
G01*
X202944547Y-107532178D01*
X202944547Y-107424879D01*
X203266553Y-107424879D01*
X203266553Y-107532178D01*
G37*
G36*
X203159208Y-100674520D02*
G01*
X203051847Y-100674520D01*
X203051847Y-100567167D01*
X203159208Y-100567167D01*
X203159208Y-100674520D01*
G37*
G36*
X203265058Y-104103353D02*
G01*
X203051847Y-104103353D01*
X203051847Y-103996000D01*
X203265058Y-103996000D01*
X203265058Y-104103353D01*
G37*
G36*
X203265058Y-100781873D02*
G01*
X203157712Y-100781873D01*
X203157712Y-100674520D01*
X203265058Y-100674520D01*
X203265058Y-100781873D01*
G37*
G36*
X203265058Y-106352979D02*
G01*
X203157712Y-106352979D01*
X203157712Y-106245634D01*
X203265058Y-106245634D01*
X203265058Y-106352979D01*
G37*
G36*
X203372373Y-100889227D02*
G01*
X203265058Y-100889227D01*
X203265058Y-100781873D01*
X203372373Y-100781873D01*
X203372373Y-100889227D01*
G37*
G36*
X203479719Y-103996000D02*
G01*
X203265058Y-103996000D01*
X203265058Y-103888692D01*
X203479719Y-103888692D01*
X203479719Y-103996000D01*
G37*
G36*
X203372373Y-106245634D02*
G01*
X203265058Y-106245634D01*
X203265058Y-106032468D01*
X203372373Y-106032468D01*
X203372373Y-106245634D01*
G37*
G36*
X203692884Y-106782346D02*
G01*
X203265058Y-106782346D01*
X203265058Y-106674993D01*
X203692884Y-106674993D01*
X203692884Y-106782346D01*
G37*
G36*
X203479719Y-107424871D02*
G01*
X203265058Y-107424871D01*
X203265058Y-107317518D01*
X203479719Y-107317518D01*
X203479719Y-107424871D01*
G37*
G36*
X203479719Y-100996534D02*
G01*
X203372373Y-100996534D01*
X203372373Y-100889227D01*
X203479719Y-100889227D01*
X203479719Y-100996534D01*
G37*
G36*
X203479719Y-106032468D02*
G01*
X203372373Y-106032468D01*
X203372373Y-105925115D01*
X203479719Y-105925115D01*
X203479719Y-106032468D01*
G37*
G36*
X203479719Y-106247129D02*
G01*
X203372373Y-106247129D01*
X203372373Y-106032468D01*
X203479719Y-106032468D01*
X203479719Y-106247129D01*
G37*
G36*
X203587079Y-101103887D02*
G01*
X203479719Y-101103887D01*
X203479719Y-100996534D01*
X203587079Y-100996534D01*
X203587079Y-101103887D01*
G37*
G36*
X203587079Y-105925123D02*
G01*
X203479719Y-105925123D01*
X203479719Y-105710462D01*
X203587079Y-105710462D01*
X203587079Y-105925123D01*
G37*
G36*
X203587079Y-106032468D02*
G01*
X203479719Y-106032468D01*
X203479719Y-105925115D01*
X203587079Y-105925115D01*
X203587079Y-106032468D01*
G37*
G36*
X203694425Y-101318555D02*
G01*
X203587064Y-101318555D01*
X203587064Y-101103887D01*
X203694425Y-101103887D01*
X203694425Y-101318555D01*
G37*
G36*
X203694425Y-105710462D02*
G01*
X203587064Y-105710462D01*
X203587064Y-105603101D01*
X203694425Y-105603101D01*
X203694425Y-105710462D01*
G37*
G36*
X203694425Y-105925123D02*
G01*
X203587064Y-105925123D01*
X203587064Y-105710462D01*
X203694425Y-105710462D01*
X203694425Y-105925123D01*
G37*
G36*
X203801725Y-101531751D02*
G01*
X203694425Y-101531751D01*
X203694425Y-101317045D01*
X203801725Y-101317045D01*
X203801725Y-101531751D01*
G37*
G36*
X203801725Y-105603101D02*
G01*
X203694425Y-105603101D01*
X203694425Y-105495756D01*
X203801725Y-105495756D01*
X203801725Y-105603101D01*
G37*
G36*
X203801725Y-105710462D02*
G01*
X203694425Y-105710462D01*
X203694425Y-105603101D01*
X203801725Y-105603101D01*
X203801725Y-105710462D01*
G37*
G36*
X203909086Y-101853765D02*
G01*
X203801725Y-101853765D01*
X203801725Y-101531751D01*
X203909086Y-101531751D01*
X203909086Y-101853765D01*
G37*
G36*
X203909086Y-105603101D02*
G01*
X203801725Y-105603101D01*
X203801725Y-105495756D01*
X203909086Y-105495756D01*
X203909086Y-105603101D01*
G37*
G36*
X204016431Y-102388937D02*
G01*
X203909086Y-102388937D01*
X203909086Y-101853765D01*
X204016431Y-101853765D01*
X204016431Y-102388937D01*
G37*
G36*
X204016431Y-105497251D02*
G01*
X203909086Y-105497251D01*
X203909086Y-105389944D01*
X204016431Y-105389944D01*
X204016431Y-105497251D01*
G37*
G36*
X204122236Y-103568174D02*
G01*
X204014936Y-103568174D01*
X204014936Y-102388937D01*
X204122236Y-102388937D01*
X204122236Y-103568174D01*
G37*
G36*
X204122236Y-105389944D02*
G01*
X204014936Y-105389944D01*
X204014936Y-105175245D01*
X204122236Y-105175245D01*
X204122236Y-105389944D01*
G37*
G36*
X204229596Y-105175245D02*
G01*
X204122251Y-105175245D01*
X204122251Y-104960584D01*
X204229596Y-104960584D01*
X204229596Y-105175245D01*
G37*
G36*
X204336942Y-104960584D02*
G01*
X204229596Y-104960584D01*
X204229596Y-104425367D01*
X204336942Y-104425367D01*
X204336942Y-104960584D01*
G37*
G36*
X199943494Y-103140318D02*
G01*
X199836149Y-103140318D01*
X199836149Y-102925657D01*
X198871610Y-102925657D01*
X198871610Y-102818296D01*
X199943494Y-102818296D01*
X199943494Y-103140318D01*
G37*
G36*
X200478681Y-102603643D02*
G01*
X200156659Y-102603643D01*
X200156659Y-102710950D01*
X200049299Y-102710950D01*
X200049146Y-102496290D01*
X200050855Y-102496290D01*
X200478681Y-102496290D01*
X200478681Y-102603643D01*
G37*
G36*
X196623487Y-103568174D02*
G01*
X196730787Y-103568174D01*
X196730787Y-104532713D01*
X196623487Y-104532713D01*
X196623487Y-103675527D01*
X196516126Y-103675527D01*
X196516126Y-103247663D01*
X196623487Y-103247663D01*
X196623487Y-103568174D01*
G37*
G36*
X197801175Y-102175779D02*
G01*
X197908521Y-102175779D01*
X197908521Y-102281583D01*
X197801175Y-102281583D01*
X197801175Y-103031461D01*
X197693860Y-103031461D01*
X197693860Y-102068418D01*
X197801175Y-102068418D01*
X197801175Y-102175779D01*
G37*
G36*
X202515180Y-104532713D02*
G01*
X202301984Y-104532713D01*
X202301984Y-104638570D01*
X202194623Y-104638570D01*
X202194623Y-104532713D01*
X200908078Y-104532713D01*
X200908078Y-104425367D01*
X202515180Y-104425367D01*
X202515180Y-104532713D01*
G37*
G36*
X202194623Y-104640066D02*
G01*
X202301969Y-104640066D01*
X202301969Y-104747419D01*
X202087308Y-104747419D01*
X202087308Y-104640066D01*
X200908078Y-104640066D01*
X200908063Y-104532713D01*
X202194623Y-104532713D01*
X202194623Y-104640066D01*
G37*
G36*
X197480665Y-106247129D02*
G01*
X197588025Y-106247129D01*
X197588025Y-106354482D01*
X197480665Y-106354482D01*
X197480665Y-106461835D01*
X197266004Y-106461835D01*
X197266004Y-106354482D01*
X197373365Y-106354482D01*
X197373365Y-106139776D01*
X197480665Y-106139776D01*
X197480665Y-106247129D01*
G37*
G36*
X198551099Y-100889227D02*
G01*
X198658399Y-100889227D01*
X198658399Y-101211240D01*
X198551099Y-101211240D01*
X198551099Y-100996534D01*
X198443738Y-100996534D01*
X198443738Y-100889227D01*
X198229032Y-100889227D01*
X198229047Y-100781873D01*
X198551099Y-100781873D01*
X198551099Y-100889227D01*
G37*
G36*
X203801725Y-107102819D02*
G01*
X203694425Y-107102819D01*
X203694425Y-107317518D01*
X203479719Y-107317518D01*
X203479719Y-107210172D01*
X203587064Y-107210172D01*
X203587064Y-106995512D01*
X203694425Y-106995512D01*
X203694425Y-106780805D01*
X203801725Y-106780805D01*
X203801725Y-107102819D01*
G37*
G36*
X196623487Y-103138807D02*
G01*
X196730787Y-103138807D01*
X196730787Y-103031461D01*
X196836637Y-103031461D01*
X196836637Y-103246160D01*
X196730787Y-103246160D01*
X196730787Y-103568174D01*
X196623487Y-103568174D01*
X196623487Y-103246168D01*
X196516126Y-103246168D01*
X196516126Y-101746412D01*
X196623487Y-101746412D01*
X196623487Y-103138807D01*
G37*
G36*
X197693860Y-101961118D02*
G01*
X197801175Y-101961118D01*
X197801175Y-102068426D01*
X197693860Y-102068426D01*
X197693860Y-103033002D01*
X197586515Y-103033002D01*
X197586515Y-102068426D01*
X197479154Y-102068426D01*
X197479154Y-101961118D01*
X197586515Y-101961118D01*
X197586515Y-101746412D01*
X197693860Y-101746412D01*
X197693860Y-101961118D01*
G37*
G36*
X200159711Y-107854200D02*
G01*
X200052350Y-107854200D01*
X200052350Y-107639539D01*
X199195112Y-107639539D01*
X199195112Y-107532178D01*
X198980451Y-107532178D01*
X198980451Y-107424879D01*
X198873105Y-107424879D01*
X198873105Y-107317518D01*
X199087766Y-107317518D01*
X199087766Y-107424879D01*
X199302472Y-107424879D01*
X199302472Y-107532178D01*
X200052350Y-107532178D01*
X200052350Y-106675001D01*
X200159711Y-106675001D01*
X200159711Y-107854200D01*
G37*
G36*
X203157697Y-107102811D02*
G01*
X203265043Y-107102811D01*
X203265043Y-107210165D01*
X203479703Y-107210165D01*
X203479703Y-107317518D01*
X203265043Y-107317518D01*
X203265043Y-107424871D01*
X202944532Y-107424871D01*
X202944532Y-107532178D01*
X202407819Y-107532178D01*
X202407819Y-107210172D01*
X202837186Y-107210172D01*
X202837186Y-107102811D01*
X202944547Y-107102811D01*
X202944547Y-106995512D01*
X203051847Y-106995512D01*
X203051847Y-106889646D01*
X203157697Y-106889646D01*
X203157697Y-107102811D01*
G37*
G36*
X201231748Y-102174284D02*
G01*
X201339109Y-102174284D01*
X201339109Y-102281583D01*
X201446454Y-102281583D01*
X201446454Y-102388944D01*
X201553769Y-102388944D01*
X201553769Y-102603643D01*
X201446454Y-102603643D01*
X201444745Y-102603643D01*
X201444745Y-102496290D01*
X201337446Y-102496290D01*
X201337446Y-102388937D01*
X201230085Y-102388937D01*
X201230085Y-102281583D01*
X200694867Y-102281583D01*
X200694867Y-102174276D01*
X200909574Y-102174276D01*
X200909742Y-102066923D01*
X201231748Y-102066923D01*
X201231748Y-102174284D01*
G37*
G36*
X202194623Y-106675001D02*
G01*
X202301969Y-106675001D01*
X202301969Y-106782346D01*
X202622480Y-106782346D01*
X202622480Y-106675001D01*
X202729841Y-106675001D01*
X202729841Y-106567640D01*
X202944547Y-106567640D01*
X202944547Y-106460294D01*
X203051847Y-106460294D01*
X203051847Y-106352979D01*
X203157697Y-106352979D01*
X203157697Y-106567640D01*
X203051847Y-106567640D01*
X203051847Y-106782346D01*
X202944547Y-106782346D01*
X202944547Y-106889654D01*
X202837186Y-106889654D01*
X202837186Y-106995512D01*
X202729841Y-106995512D01*
X202729841Y-107102811D01*
X202301969Y-107102811D01*
X202301969Y-106995512D01*
X202087308Y-106995512D01*
X202087308Y-106352979D01*
X202194623Y-106352979D01*
X202194623Y-106675001D01*
G37*
G36*
X204014936Y-104101850D02*
G01*
X204122251Y-104101850D01*
X204122251Y-104209211D01*
X204229596Y-104209211D01*
X204229596Y-104423872D01*
X204122251Y-104423872D01*
X204122251Y-104318060D01*
X204014936Y-104318060D01*
X204014936Y-104210706D01*
X203907590Y-104210706D01*
X203907590Y-104103353D01*
X203372373Y-104103353D01*
X203372373Y-104210706D01*
X203157712Y-104210706D01*
X203157712Y-104318060D01*
X202943006Y-104318060D01*
X202943006Y-104425367D01*
X202728345Y-104425367D01*
X202728345Y-104318060D01*
X202835691Y-104318060D01*
X202835691Y-104210706D01*
X203050351Y-104210706D01*
X203050351Y-104103353D01*
X203265058Y-104103353D01*
X203265058Y-103996046D01*
X203800229Y-103996046D01*
X203800229Y-103888692D01*
X203907590Y-103888692D01*
X203907590Y-103566679D01*
X204014936Y-103566679D01*
X204014936Y-104101850D01*
G37*
G36*
X197586515Y-103031461D02*
G01*
X197480665Y-103031461D01*
X197480665Y-102710950D01*
X197373365Y-102710950D01*
X197373365Y-102818296D01*
X197266004Y-102818296D01*
X197266004Y-102925657D01*
X197158643Y-102925657D01*
X197158643Y-103138807D01*
X197051297Y-103138807D01*
X197051297Y-103353468D01*
X196943982Y-103353468D01*
X196943982Y-103675527D01*
X196836637Y-103675527D01*
X196836637Y-104532713D01*
X196730787Y-104532713D01*
X196730787Y-103568174D01*
X196836637Y-103568174D01*
X196836637Y-103246168D01*
X196943982Y-103246168D01*
X196943982Y-103031461D01*
X197051297Y-103031461D01*
X197051297Y-102818296D01*
X197158643Y-102818296D01*
X197158643Y-102603635D01*
X197266004Y-102603635D01*
X197266004Y-102388937D01*
X197373365Y-102388937D01*
X197373365Y-102175779D01*
X197480665Y-102175779D01*
X197480665Y-102068426D01*
X197586515Y-102068426D01*
X197586515Y-103031461D01*
G37*
G36*
X203373914Y-106458784D02*
G01*
X203266553Y-106458784D01*
X203266553Y-106673490D01*
X203159192Y-106673490D01*
X203159192Y-106888151D01*
X203051847Y-106888151D01*
X203051847Y-106995504D01*
X202944532Y-106995504D01*
X202944532Y-107102811D01*
X202837186Y-107102811D01*
X202837186Y-107210165D01*
X202409314Y-107210165D01*
X202409314Y-107532178D01*
X202944532Y-107532178D01*
X202944532Y-107639532D01*
X202194623Y-107639532D01*
X202194623Y-107746885D01*
X202087308Y-107746885D01*
X202087308Y-107532178D01*
X202194623Y-107532178D01*
X202194623Y-107424879D01*
X202301969Y-107424879D01*
X202301969Y-107210172D01*
X202194623Y-107210172D01*
X202194623Y-107102819D01*
X201979963Y-107102819D01*
X201979963Y-106352979D01*
X202087308Y-106352979D01*
X202087308Y-106995512D01*
X202301969Y-106995512D01*
X202301969Y-107102819D01*
X202729841Y-107102819D01*
X202729841Y-106995512D01*
X202837186Y-106995512D01*
X202837186Y-106888158D01*
X202944547Y-106888158D01*
X202944547Y-106780805D01*
X203051847Y-106780805D01*
X203051847Y-106566145D01*
X203159208Y-106566145D01*
X203159208Y-106351438D01*
X203266553Y-106351438D01*
X203266553Y-106244131D01*
X203373914Y-106244131D01*
X203373914Y-106458784D01*
G37*
G36*
X197480665Y-106032468D02*
G01*
X197586500Y-106032468D01*
X197586500Y-106139776D01*
X197693860Y-106139776D01*
X197693860Y-106245634D01*
X197908521Y-106245634D01*
X197908521Y-106352979D01*
X198123227Y-106352979D01*
X198123227Y-106460294D01*
X198336393Y-106460294D01*
X198336393Y-106567655D01*
X198551099Y-106567655D01*
X198551099Y-106675001D01*
X198765760Y-106675001D01*
X198765760Y-106782362D01*
X199087766Y-106782362D01*
X199087766Y-106889661D01*
X199408277Y-106889661D01*
X199408277Y-106995512D01*
X199837644Y-106995512D01*
X199837644Y-106889661D01*
X199943494Y-106889661D01*
X199943494Y-106675001D01*
X200050855Y-106675001D01*
X200050855Y-107532194D01*
X199300977Y-107532194D01*
X199300977Y-107424879D01*
X199087766Y-107424879D01*
X199087766Y-107317525D01*
X198873105Y-107317525D01*
X198873105Y-107210172D01*
X198658399Y-107210172D01*
X198658399Y-107102819D01*
X198443738Y-107102819D01*
X198443738Y-106995512D01*
X198230542Y-106995512D01*
X198230542Y-106889661D01*
X198123227Y-106889661D01*
X198123227Y-106782354D01*
X198015882Y-106782354D01*
X198015882Y-106675001D01*
X197801175Y-106675001D01*
X197801175Y-106567648D01*
X197693860Y-106567648D01*
X197693860Y-106352987D01*
X197586515Y-106352987D01*
X197586515Y-106245634D01*
X197480665Y-106245634D01*
X197480665Y-106139783D01*
X197373365Y-106139783D01*
X197373349Y-105925115D01*
X197480665Y-105925115D01*
X197480665Y-106032468D01*
G37*
%TO.C,S3*%
D10*
X117500000Y-48800000D02*
X117000000Y-49300000D01*
X117500000Y-53300000D02*
X117000000Y-52800000D01*
X119800000Y-53300000D02*
X117500000Y-53300000D01*
X120500000Y-48800000D02*
X117500000Y-48800000D01*
X121000000Y-49300000D02*
X120500000Y-48800000D01*
X121000000Y-49300000D02*
X121000000Y-50220000D01*
X121500000Y-55500000D02*
X121500000Y-54800000D01*
X121520000Y-50800000D02*
X126000000Y-50800000D01*
X126000000Y-50800000D02*
X126000000Y-51400000D01*
X126000000Y-55000000D02*
X126000000Y-55500000D01*
X126000000Y-55500000D02*
X121500000Y-55500000D01*
X119800000Y-53300000D02*
G75*
G02*
X121500000Y-54780000I110000J-1590000D01*
G01*
X121520000Y-50800000D02*
G75*
G02*
X121000000Y-50220000I30000J550000D01*
G01*
%TO.C,S9*%
X185287976Y-111152346D02*
X185453358Y-110575589D01*
X186445652Y-107115047D02*
X186583471Y-106634416D01*
X186583471Y-106634416D02*
X190909149Y-107874784D01*
X189594428Y-112387201D02*
X185287976Y-111152346D01*
X189680828Y-113972425D02*
X189934414Y-113088065D01*
X189680828Y-113972425D02*
X190023640Y-114590875D01*
X190023640Y-114590875D02*
X192907425Y-115417787D01*
X190909149Y-107874784D02*
X190716203Y-108547667D01*
X191936890Y-110458143D02*
X194147793Y-111092109D01*
X192907425Y-115417787D02*
X193525875Y-115074975D01*
X194147793Y-111092109D02*
X194490605Y-111710559D01*
X189594428Y-112387201D02*
G75*
G02*
X189934415Y-113088065I-180438J-520425D01*
G01*
X191936890Y-110458143D02*
G75*
G02*
X190710690Y-108566893I332526J1558726D01*
G01*
%TO.C,S5*%
X136500000Y-44800000D02*
X136000000Y-45300000D01*
X136500000Y-49300000D02*
X136000000Y-48800000D01*
X138800000Y-49300000D02*
X136500000Y-49300000D01*
X139500000Y-44800000D02*
X136500000Y-44800000D01*
X140000000Y-45300000D02*
X139500000Y-44800000D01*
X140000000Y-45300000D02*
X140000000Y-46220000D01*
X140500000Y-51500000D02*
X140500000Y-50800000D01*
X140520000Y-46800000D02*
X145000000Y-46800000D01*
X145000000Y-46800000D02*
X145000000Y-47400000D01*
X145000000Y-51000000D02*
X145000000Y-51500000D01*
X145000000Y-51500000D02*
X140500000Y-51500000D01*
X138800000Y-49300000D02*
G75*
G02*
X140500000Y-50780000I110000J-1590000D01*
G01*
X140520000Y-46800000D02*
G75*
G02*
X140000000Y-46220000I30000J550000D01*
G01*
%TO.C,S2*%
X112000000Y-77500000D02*
X116500000Y-77500000D01*
X112000000Y-78000000D02*
X112000000Y-77500000D01*
X112000000Y-82200001D02*
X112000001Y-81600000D01*
X116480000Y-82200000D02*
X112000000Y-82200001D01*
X116500000Y-77500000D02*
X116500000Y-78200000D01*
X117000000Y-83700000D02*
X116999999Y-82780000D01*
X117000000Y-83700000D02*
X117500000Y-84200000D01*
X117500000Y-84200000D02*
X120500000Y-84200000D01*
X118200000Y-79700001D02*
X120500000Y-79700000D01*
X120500000Y-79700000D02*
X121000000Y-80200000D01*
X120500000Y-84200000D02*
X121000000Y-83700000D01*
X116480000Y-82200000D02*
G75*
G02*
X117000000Y-82780000I-30000J-550000D01*
G01*
X118200000Y-79700001D02*
G75*
G02*
X116499999Y-78220000I-110000J1590001D01*
G01*
%TO.C,MCU1*%
D12*
X140430000Y-84140000D02*
X140430000Y-81480000D01*
X140430000Y-99380000D02*
X140430000Y-96720000D01*
X168430000Y-81480000D02*
X168430000Y-84140000D01*
X171030000Y-81480000D02*
X140430000Y-81480000D01*
X171030000Y-84140000D02*
X140430000Y-84140000D01*
X171030000Y-84140000D02*
X171030000Y-81480000D01*
X171030000Y-96720000D02*
X140430000Y-96720000D01*
X171030000Y-99380000D02*
X140430000Y-99380000D01*
X171030000Y-99380000D02*
X171030000Y-96720000D01*
%TD*%
M02*
