%TF.GenerationSoftware,KiCad,Pcbnew,10.0.6*%
%TF.CreationDate,2026-09-30T11:10:58+02:00*%
%TF.ProjectId,2nr9_v2,326e7239-5f76-4322-9e6b-696361645f70,v1.0.0*%
%TF.SameCoordinates,Original*%
%TF.FileFunction,Legend,Top*%
%TF.FilePolarity,Positive*%
%FSLAX46Y46*%
G04 Gerber Fmt 4.6, Leading zero omitted, Abs format (unit mm)*
G04 Created by KiCad (PCBNEW 10.0.6) date 2026-09-30 11:10:58*
%MOMM*%
%LPD*%
G01*
G04 APERTURE LIST*
%ADD10C,0.100000*%
%ADD11C,0.150000*%
%ADD12C,0.000000*%
%ADD13C,0.120000*%
G04 APERTURE END LIST*
D10*
X147061904Y-60633609D02*
X147204761Y-60681228D01*
X147204761Y-60681228D02*
X147252380Y-60728847D01*
X147252380Y-60728847D02*
X147299999Y-60824085D01*
X147299999Y-60824085D02*
X147299999Y-60966942D01*
X147299999Y-60966942D02*
X147252380Y-61062180D01*
X147252380Y-61062180D02*
X147204761Y-61109800D01*
X147204761Y-61109800D02*
X147109523Y-61157419D01*
X147109523Y-61157419D02*
X146728571Y-61157419D01*
X146728571Y-61157419D02*
X146728571Y-60157419D01*
X146728571Y-60157419D02*
X147061904Y-60157419D01*
X147061904Y-60157419D02*
X147157142Y-60205038D01*
X147157142Y-60205038D02*
X147204761Y-60252657D01*
X147204761Y-60252657D02*
X147252380Y-60347895D01*
X147252380Y-60347895D02*
X147252380Y-60443133D01*
X147252380Y-60443133D02*
X147204761Y-60538371D01*
X147204761Y-60538371D02*
X147157142Y-60585990D01*
X147157142Y-60585990D02*
X147061904Y-60633609D01*
X147061904Y-60633609D02*
X146728571Y-60633609D01*
X147680952Y-60871704D02*
X148157142Y-60871704D01*
X147585714Y-61157419D02*
X147919047Y-60157419D01*
X147919047Y-60157419D02*
X148252380Y-61157419D01*
X148442857Y-60157419D02*
X149014285Y-60157419D01*
X148728571Y-61157419D02*
X148728571Y-60157419D01*
X150109524Y-60776466D02*
X150871429Y-60776466D01*
D11*
X133652380Y-84044819D02*
X133319047Y-83568628D01*
X133080952Y-84044819D02*
X133080952Y-83044819D01*
X133080952Y-83044819D02*
X133461904Y-83044819D01*
X133461904Y-83044819D02*
X133557142Y-83092438D01*
X133557142Y-83092438D02*
X133604761Y-83140057D01*
X133604761Y-83140057D02*
X133652380Y-83235295D01*
X133652380Y-83235295D02*
X133652380Y-83378152D01*
X133652380Y-83378152D02*
X133604761Y-83473390D01*
X133604761Y-83473390D02*
X133557142Y-83521009D01*
X133557142Y-83521009D02*
X133461904Y-83568628D01*
X133461904Y-83568628D02*
X133080952Y-83568628D01*
X134033333Y-83997200D02*
X134176190Y-84044819D01*
X134176190Y-84044819D02*
X134414285Y-84044819D01*
X134414285Y-84044819D02*
X134509523Y-83997200D01*
X134509523Y-83997200D02*
X134557142Y-83949580D01*
X134557142Y-83949580D02*
X134604761Y-83854342D01*
X134604761Y-83854342D02*
X134604761Y-83759104D01*
X134604761Y-83759104D02*
X134557142Y-83663866D01*
X134557142Y-83663866D02*
X134509523Y-83616247D01*
X134509523Y-83616247D02*
X134414285Y-83568628D01*
X134414285Y-83568628D02*
X134223809Y-83521009D01*
X134223809Y-83521009D02*
X134128571Y-83473390D01*
X134128571Y-83473390D02*
X134080952Y-83425771D01*
X134080952Y-83425771D02*
X134033333Y-83330533D01*
X134033333Y-83330533D02*
X134033333Y-83235295D01*
X134033333Y-83235295D02*
X134080952Y-83140057D01*
X134080952Y-83140057D02*
X134128571Y-83092438D01*
X134128571Y-83092438D02*
X134223809Y-83044819D01*
X134223809Y-83044819D02*
X134461904Y-83044819D01*
X134461904Y-83044819D02*
X134604761Y-83092438D01*
X134890476Y-83044819D02*
X135461904Y-83044819D01*
X135176190Y-84044819D02*
X135176190Y-83044819D01*
D10*
X148242857Y-66433609D02*
X148385714Y-66481228D01*
X148385714Y-66481228D02*
X148433333Y-66528847D01*
X148433333Y-66528847D02*
X148480952Y-66624085D01*
X148480952Y-66624085D02*
X148480952Y-66766942D01*
X148480952Y-66766942D02*
X148433333Y-66862180D01*
X148433333Y-66862180D02*
X148385714Y-66909800D01*
X148385714Y-66909800D02*
X148290476Y-66957419D01*
X148290476Y-66957419D02*
X147909524Y-66957419D01*
X147909524Y-66957419D02*
X147909524Y-65957419D01*
X147909524Y-65957419D02*
X148242857Y-65957419D01*
X148242857Y-65957419D02*
X148338095Y-66005038D01*
X148338095Y-66005038D02*
X148385714Y-66052657D01*
X148385714Y-66052657D02*
X148433333Y-66147895D01*
X148433333Y-66147895D02*
X148433333Y-66243133D01*
X148433333Y-66243133D02*
X148385714Y-66338371D01*
X148385714Y-66338371D02*
X148338095Y-66385990D01*
X148338095Y-66385990D02*
X148242857Y-66433609D01*
X148242857Y-66433609D02*
X147909524Y-66433609D01*
X148861905Y-66671704D02*
X149338095Y-66671704D01*
X148766667Y-66957419D02*
X149100000Y-65957419D01*
X149100000Y-65957419D02*
X149433333Y-66957419D01*
X149623810Y-65957419D02*
X150195238Y-65957419D01*
X149909524Y-66957419D02*
X149909524Y-65957419D01*
X150528572Y-66576466D02*
X151290477Y-66576466D01*
X150909524Y-66957419D02*
X150909524Y-66195514D01*
D11*
X164597619Y-59154819D02*
X164788095Y-59154819D01*
X164788095Y-59154819D02*
X164883333Y-59202438D01*
X164883333Y-59202438D02*
X164978571Y-59297676D01*
X164978571Y-59297676D02*
X165026190Y-59488152D01*
X165026190Y-59488152D02*
X165026190Y-59821485D01*
X165026190Y-59821485D02*
X164978571Y-60011961D01*
X164978571Y-60011961D02*
X164883333Y-60107200D01*
X164883333Y-60107200D02*
X164788095Y-60154819D01*
X164788095Y-60154819D02*
X164597619Y-60154819D01*
X164597619Y-60154819D02*
X164502381Y-60107200D01*
X164502381Y-60107200D02*
X164407143Y-60011961D01*
X164407143Y-60011961D02*
X164359524Y-59821485D01*
X164359524Y-59821485D02*
X164359524Y-59488152D01*
X164359524Y-59488152D02*
X164407143Y-59297676D01*
X164407143Y-59297676D02*
X164502381Y-59202438D01*
X164502381Y-59202438D02*
X164597619Y-59154819D01*
X165788095Y-59631009D02*
X165454762Y-59631009D01*
X165454762Y-60154819D02*
X165454762Y-59154819D01*
X165454762Y-59154819D02*
X165930952Y-59154819D01*
X166645238Y-59631009D02*
X166311905Y-59631009D01*
X166311905Y-60154819D02*
X166311905Y-59154819D01*
X166311905Y-59154819D02*
X166788095Y-59154819D01*
X164930952Y-69154819D02*
X165121428Y-69154819D01*
X165121428Y-69154819D02*
X165216666Y-69202438D01*
X165216666Y-69202438D02*
X165311904Y-69297676D01*
X165311904Y-69297676D02*
X165359523Y-69488152D01*
X165359523Y-69488152D02*
X165359523Y-69821485D01*
X165359523Y-69821485D02*
X165311904Y-70011961D01*
X165311904Y-70011961D02*
X165216666Y-70107200D01*
X165216666Y-70107200D02*
X165121428Y-70154819D01*
X165121428Y-70154819D02*
X164930952Y-70154819D01*
X164930952Y-70154819D02*
X164835714Y-70107200D01*
X164835714Y-70107200D02*
X164740476Y-70011961D01*
X164740476Y-70011961D02*
X164692857Y-69821485D01*
X164692857Y-69821485D02*
X164692857Y-69488152D01*
X164692857Y-69488152D02*
X164740476Y-69297676D01*
X164740476Y-69297676D02*
X164835714Y-69202438D01*
X164835714Y-69202438D02*
X164930952Y-69154819D01*
X165788095Y-70154819D02*
X165788095Y-69154819D01*
X165788095Y-69154819D02*
X166359523Y-70154819D01*
X166359523Y-70154819D02*
X166359523Y-69154819D01*
X142214819Y-87174285D02*
X141214819Y-87174285D01*
X141214819Y-87174285D02*
X141214819Y-86793333D01*
X141214819Y-86793333D02*
X141262438Y-86698095D01*
X141262438Y-86698095D02*
X141310057Y-86650476D01*
X141310057Y-86650476D02*
X141405295Y-86602857D01*
X141405295Y-86602857D02*
X141548152Y-86602857D01*
X141548152Y-86602857D02*
X141643390Y-86650476D01*
X141643390Y-86650476D02*
X141691009Y-86698095D01*
X141691009Y-86698095D02*
X141738628Y-86793333D01*
X141738628Y-86793333D02*
X141738628Y-87174285D01*
X142214819Y-85650476D02*
X142214819Y-86221904D01*
X142214819Y-85936190D02*
X141214819Y-85936190D01*
X141214819Y-85936190D02*
X141357676Y-86031428D01*
X141357676Y-86031428D02*
X141452914Y-86126666D01*
X141452914Y-86126666D02*
X141500533Y-86221904D01*
X141214819Y-85031428D02*
X141214819Y-84936190D01*
X141214819Y-84936190D02*
X141262438Y-84840952D01*
X141262438Y-84840952D02*
X141310057Y-84793333D01*
X141310057Y-84793333D02*
X141405295Y-84745714D01*
X141405295Y-84745714D02*
X141595771Y-84698095D01*
X141595771Y-84698095D02*
X141833866Y-84698095D01*
X141833866Y-84698095D02*
X142024342Y-84745714D01*
X142024342Y-84745714D02*
X142119580Y-84793333D01*
X142119580Y-84793333D02*
X142167200Y-84840952D01*
X142167200Y-84840952D02*
X142214819Y-84936190D01*
X142214819Y-84936190D02*
X142214819Y-85031428D01*
X142214819Y-85031428D02*
X142167200Y-85126666D01*
X142167200Y-85126666D02*
X142119580Y-85174285D01*
X142119580Y-85174285D02*
X142024342Y-85221904D01*
X142024342Y-85221904D02*
X141833866Y-85269523D01*
X141833866Y-85269523D02*
X141595771Y-85269523D01*
X141595771Y-85269523D02*
X141405295Y-85221904D01*
X141405295Y-85221904D02*
X141310057Y-85174285D01*
X141310057Y-85174285D02*
X141262438Y-85126666D01*
X141262438Y-85126666D02*
X141214819Y-85031428D01*
X142214819Y-95638094D02*
X141214819Y-95638094D01*
X141214819Y-95638094D02*
X141214819Y-95257142D01*
X141214819Y-95257142D02*
X141262438Y-95161904D01*
X141262438Y-95161904D02*
X141310057Y-95114285D01*
X141310057Y-95114285D02*
X141405295Y-95066666D01*
X141405295Y-95066666D02*
X141548152Y-95066666D01*
X141548152Y-95066666D02*
X141643390Y-95114285D01*
X141643390Y-95114285D02*
X141691009Y-95161904D01*
X141691009Y-95161904D02*
X141738628Y-95257142D01*
X141738628Y-95257142D02*
X141738628Y-95638094D01*
X142214819Y-94590475D02*
X142214819Y-94399999D01*
X142214819Y-94399999D02*
X142167200Y-94304761D01*
X142167200Y-94304761D02*
X142119580Y-94257142D01*
X142119580Y-94257142D02*
X141976723Y-94161904D01*
X141976723Y-94161904D02*
X141786247Y-94114285D01*
X141786247Y-94114285D02*
X141405295Y-94114285D01*
X141405295Y-94114285D02*
X141310057Y-94161904D01*
X141310057Y-94161904D02*
X141262438Y-94209523D01*
X141262438Y-94209523D02*
X141214819Y-94304761D01*
X141214819Y-94304761D02*
X141214819Y-94495237D01*
X141214819Y-94495237D02*
X141262438Y-94590475D01*
X141262438Y-94590475D02*
X141310057Y-94638094D01*
X141310057Y-94638094D02*
X141405295Y-94685713D01*
X141405295Y-94685713D02*
X141643390Y-94685713D01*
X141643390Y-94685713D02*
X141738628Y-94638094D01*
X141738628Y-94638094D02*
X141786247Y-94590475D01*
X141786247Y-94590475D02*
X141833866Y-94495237D01*
X141833866Y-94495237D02*
X141833866Y-94304761D01*
X141833866Y-94304761D02*
X141786247Y-94209523D01*
X141786247Y-94209523D02*
X141738628Y-94161904D01*
X141738628Y-94161904D02*
X141643390Y-94114285D01*
X144754819Y-87174285D02*
X143754819Y-87174285D01*
X143754819Y-87174285D02*
X143754819Y-86793333D01*
X143754819Y-86793333D02*
X143802438Y-86698095D01*
X143802438Y-86698095D02*
X143850057Y-86650476D01*
X143850057Y-86650476D02*
X143945295Y-86602857D01*
X143945295Y-86602857D02*
X144088152Y-86602857D01*
X144088152Y-86602857D02*
X144183390Y-86650476D01*
X144183390Y-86650476D02*
X144231009Y-86698095D01*
X144231009Y-86698095D02*
X144278628Y-86793333D01*
X144278628Y-86793333D02*
X144278628Y-87174285D01*
X144754819Y-85650476D02*
X144754819Y-86221904D01*
X144754819Y-85936190D02*
X143754819Y-85936190D01*
X143754819Y-85936190D02*
X143897676Y-86031428D01*
X143897676Y-86031428D02*
X143992914Y-86126666D01*
X143992914Y-86126666D02*
X144040533Y-86221904D01*
X143754819Y-84793333D02*
X143754819Y-84983809D01*
X143754819Y-84983809D02*
X143802438Y-85079047D01*
X143802438Y-85079047D02*
X143850057Y-85126666D01*
X143850057Y-85126666D02*
X143992914Y-85221904D01*
X143992914Y-85221904D02*
X144183390Y-85269523D01*
X144183390Y-85269523D02*
X144564342Y-85269523D01*
X144564342Y-85269523D02*
X144659580Y-85221904D01*
X144659580Y-85221904D02*
X144707200Y-85174285D01*
X144707200Y-85174285D02*
X144754819Y-85079047D01*
X144754819Y-85079047D02*
X144754819Y-84888571D01*
X144754819Y-84888571D02*
X144707200Y-84793333D01*
X144707200Y-84793333D02*
X144659580Y-84745714D01*
X144659580Y-84745714D02*
X144564342Y-84698095D01*
X144564342Y-84698095D02*
X144326247Y-84698095D01*
X144326247Y-84698095D02*
X144231009Y-84745714D01*
X144231009Y-84745714D02*
X144183390Y-84793333D01*
X144183390Y-84793333D02*
X144135771Y-84888571D01*
X144135771Y-84888571D02*
X144135771Y-85079047D01*
X144135771Y-85079047D02*
X144183390Y-85174285D01*
X144183390Y-85174285D02*
X144231009Y-85221904D01*
X144231009Y-85221904D02*
X144326247Y-85269523D01*
X144754819Y-95638094D02*
X143754819Y-95638094D01*
X143754819Y-95638094D02*
X143754819Y-95257142D01*
X143754819Y-95257142D02*
X143802438Y-95161904D01*
X143802438Y-95161904D02*
X143850057Y-95114285D01*
X143850057Y-95114285D02*
X143945295Y-95066666D01*
X143945295Y-95066666D02*
X144088152Y-95066666D01*
X144088152Y-95066666D02*
X144183390Y-95114285D01*
X144183390Y-95114285D02*
X144231009Y-95161904D01*
X144231009Y-95161904D02*
X144278628Y-95257142D01*
X144278628Y-95257142D02*
X144278628Y-95638094D01*
X144183390Y-94495237D02*
X144135771Y-94590475D01*
X144135771Y-94590475D02*
X144088152Y-94638094D01*
X144088152Y-94638094D02*
X143992914Y-94685713D01*
X143992914Y-94685713D02*
X143945295Y-94685713D01*
X143945295Y-94685713D02*
X143850057Y-94638094D01*
X143850057Y-94638094D02*
X143802438Y-94590475D01*
X143802438Y-94590475D02*
X143754819Y-94495237D01*
X143754819Y-94495237D02*
X143754819Y-94304761D01*
X143754819Y-94304761D02*
X143802438Y-94209523D01*
X143802438Y-94209523D02*
X143850057Y-94161904D01*
X143850057Y-94161904D02*
X143945295Y-94114285D01*
X143945295Y-94114285D02*
X143992914Y-94114285D01*
X143992914Y-94114285D02*
X144088152Y-94161904D01*
X144088152Y-94161904D02*
X144135771Y-94209523D01*
X144135771Y-94209523D02*
X144183390Y-94304761D01*
X144183390Y-94304761D02*
X144183390Y-94495237D01*
X144183390Y-94495237D02*
X144231009Y-94590475D01*
X144231009Y-94590475D02*
X144278628Y-94638094D01*
X144278628Y-94638094D02*
X144373866Y-94685713D01*
X144373866Y-94685713D02*
X144564342Y-94685713D01*
X144564342Y-94685713D02*
X144659580Y-94638094D01*
X144659580Y-94638094D02*
X144707200Y-94590475D01*
X144707200Y-94590475D02*
X144754819Y-94495237D01*
X144754819Y-94495237D02*
X144754819Y-94304761D01*
X144754819Y-94304761D02*
X144707200Y-94209523D01*
X144707200Y-94209523D02*
X144659580Y-94161904D01*
X144659580Y-94161904D02*
X144564342Y-94114285D01*
X144564342Y-94114285D02*
X144373866Y-94114285D01*
X144373866Y-94114285D02*
X144278628Y-94161904D01*
X144278628Y-94161904D02*
X144231009Y-94209523D01*
X144231009Y-94209523D02*
X144183390Y-94304761D01*
X147294819Y-87174285D02*
X146294819Y-87174285D01*
X146294819Y-87174285D02*
X146294819Y-86793333D01*
X146294819Y-86793333D02*
X146342438Y-86698095D01*
X146342438Y-86698095D02*
X146390057Y-86650476D01*
X146390057Y-86650476D02*
X146485295Y-86602857D01*
X146485295Y-86602857D02*
X146628152Y-86602857D01*
X146628152Y-86602857D02*
X146723390Y-86650476D01*
X146723390Y-86650476D02*
X146771009Y-86698095D01*
X146771009Y-86698095D02*
X146818628Y-86793333D01*
X146818628Y-86793333D02*
X146818628Y-87174285D01*
X147294819Y-85650476D02*
X147294819Y-86221904D01*
X147294819Y-85936190D02*
X146294819Y-85936190D01*
X146294819Y-85936190D02*
X146437676Y-86031428D01*
X146437676Y-86031428D02*
X146532914Y-86126666D01*
X146532914Y-86126666D02*
X146580533Y-86221904D01*
X146628152Y-84793333D02*
X147294819Y-84793333D01*
X146247200Y-85031428D02*
X146961485Y-85269523D01*
X146961485Y-85269523D02*
X146961485Y-84650476D01*
X147294819Y-95638094D02*
X146294819Y-95638094D01*
X146294819Y-95638094D02*
X146294819Y-95257142D01*
X146294819Y-95257142D02*
X146342438Y-95161904D01*
X146342438Y-95161904D02*
X146390057Y-95114285D01*
X146390057Y-95114285D02*
X146485295Y-95066666D01*
X146485295Y-95066666D02*
X146628152Y-95066666D01*
X146628152Y-95066666D02*
X146723390Y-95114285D01*
X146723390Y-95114285D02*
X146771009Y-95161904D01*
X146771009Y-95161904D02*
X146818628Y-95257142D01*
X146818628Y-95257142D02*
X146818628Y-95638094D01*
X146294819Y-94733332D02*
X146294819Y-94066666D01*
X146294819Y-94066666D02*
X147294819Y-94495237D01*
X149834819Y-87174285D02*
X148834819Y-87174285D01*
X148834819Y-87174285D02*
X148834819Y-86793333D01*
X148834819Y-86793333D02*
X148882438Y-86698095D01*
X148882438Y-86698095D02*
X148930057Y-86650476D01*
X148930057Y-86650476D02*
X149025295Y-86602857D01*
X149025295Y-86602857D02*
X149168152Y-86602857D01*
X149168152Y-86602857D02*
X149263390Y-86650476D01*
X149263390Y-86650476D02*
X149311009Y-86698095D01*
X149311009Y-86698095D02*
X149358628Y-86793333D01*
X149358628Y-86793333D02*
X149358628Y-87174285D01*
X149834819Y-85650476D02*
X149834819Y-86221904D01*
X149834819Y-85936190D02*
X148834819Y-85936190D01*
X148834819Y-85936190D02*
X148977676Y-86031428D01*
X148977676Y-86031428D02*
X149072914Y-86126666D01*
X149072914Y-86126666D02*
X149120533Y-86221904D01*
X148834819Y-84745714D02*
X148834819Y-85221904D01*
X148834819Y-85221904D02*
X149311009Y-85269523D01*
X149311009Y-85269523D02*
X149263390Y-85221904D01*
X149263390Y-85221904D02*
X149215771Y-85126666D01*
X149215771Y-85126666D02*
X149215771Y-84888571D01*
X149215771Y-84888571D02*
X149263390Y-84793333D01*
X149263390Y-84793333D02*
X149311009Y-84745714D01*
X149311009Y-84745714D02*
X149406247Y-84698095D01*
X149406247Y-84698095D02*
X149644342Y-84698095D01*
X149644342Y-84698095D02*
X149739580Y-84745714D01*
X149739580Y-84745714D02*
X149787200Y-84793333D01*
X149787200Y-84793333D02*
X149834819Y-84888571D01*
X149834819Y-84888571D02*
X149834819Y-85126666D01*
X149834819Y-85126666D02*
X149787200Y-85221904D01*
X149787200Y-85221904D02*
X149739580Y-85269523D01*
X149834819Y-95638094D02*
X148834819Y-95638094D01*
X148834819Y-95638094D02*
X148834819Y-95257142D01*
X148834819Y-95257142D02*
X148882438Y-95161904D01*
X148882438Y-95161904D02*
X148930057Y-95114285D01*
X148930057Y-95114285D02*
X149025295Y-95066666D01*
X149025295Y-95066666D02*
X149168152Y-95066666D01*
X149168152Y-95066666D02*
X149263390Y-95114285D01*
X149263390Y-95114285D02*
X149311009Y-95161904D01*
X149311009Y-95161904D02*
X149358628Y-95257142D01*
X149358628Y-95257142D02*
X149358628Y-95638094D01*
X148834819Y-94209523D02*
X148834819Y-94399999D01*
X148834819Y-94399999D02*
X148882438Y-94495237D01*
X148882438Y-94495237D02*
X148930057Y-94542856D01*
X148930057Y-94542856D02*
X149072914Y-94638094D01*
X149072914Y-94638094D02*
X149263390Y-94685713D01*
X149263390Y-94685713D02*
X149644342Y-94685713D01*
X149644342Y-94685713D02*
X149739580Y-94638094D01*
X149739580Y-94638094D02*
X149787200Y-94590475D01*
X149787200Y-94590475D02*
X149834819Y-94495237D01*
X149834819Y-94495237D02*
X149834819Y-94304761D01*
X149834819Y-94304761D02*
X149787200Y-94209523D01*
X149787200Y-94209523D02*
X149739580Y-94161904D01*
X149739580Y-94161904D02*
X149644342Y-94114285D01*
X149644342Y-94114285D02*
X149406247Y-94114285D01*
X149406247Y-94114285D02*
X149311009Y-94161904D01*
X149311009Y-94161904D02*
X149263390Y-94209523D01*
X149263390Y-94209523D02*
X149215771Y-94304761D01*
X149215771Y-94304761D02*
X149215771Y-94495237D01*
X149215771Y-94495237D02*
X149263390Y-94590475D01*
X149263390Y-94590475D02*
X149311009Y-94638094D01*
X149311009Y-94638094D02*
X149406247Y-94685713D01*
X152374819Y-87174285D02*
X151374819Y-87174285D01*
X151374819Y-87174285D02*
X151374819Y-86793333D01*
X151374819Y-86793333D02*
X151422438Y-86698095D01*
X151422438Y-86698095D02*
X151470057Y-86650476D01*
X151470057Y-86650476D02*
X151565295Y-86602857D01*
X151565295Y-86602857D02*
X151708152Y-86602857D01*
X151708152Y-86602857D02*
X151803390Y-86650476D01*
X151803390Y-86650476D02*
X151851009Y-86698095D01*
X151851009Y-86698095D02*
X151898628Y-86793333D01*
X151898628Y-86793333D02*
X151898628Y-87174285D01*
X152374819Y-85650476D02*
X152374819Y-86221904D01*
X152374819Y-85936190D02*
X151374819Y-85936190D01*
X151374819Y-85936190D02*
X151517676Y-86031428D01*
X151517676Y-86031428D02*
X151612914Y-86126666D01*
X151612914Y-86126666D02*
X151660533Y-86221904D01*
X151803390Y-85079047D02*
X151755771Y-85174285D01*
X151755771Y-85174285D02*
X151708152Y-85221904D01*
X151708152Y-85221904D02*
X151612914Y-85269523D01*
X151612914Y-85269523D02*
X151565295Y-85269523D01*
X151565295Y-85269523D02*
X151470057Y-85221904D01*
X151470057Y-85221904D02*
X151422438Y-85174285D01*
X151422438Y-85174285D02*
X151374819Y-85079047D01*
X151374819Y-85079047D02*
X151374819Y-84888571D01*
X151374819Y-84888571D02*
X151422438Y-84793333D01*
X151422438Y-84793333D02*
X151470057Y-84745714D01*
X151470057Y-84745714D02*
X151565295Y-84698095D01*
X151565295Y-84698095D02*
X151612914Y-84698095D01*
X151612914Y-84698095D02*
X151708152Y-84745714D01*
X151708152Y-84745714D02*
X151755771Y-84793333D01*
X151755771Y-84793333D02*
X151803390Y-84888571D01*
X151803390Y-84888571D02*
X151803390Y-85079047D01*
X151803390Y-85079047D02*
X151851009Y-85174285D01*
X151851009Y-85174285D02*
X151898628Y-85221904D01*
X151898628Y-85221904D02*
X151993866Y-85269523D01*
X151993866Y-85269523D02*
X152184342Y-85269523D01*
X152184342Y-85269523D02*
X152279580Y-85221904D01*
X152279580Y-85221904D02*
X152327200Y-85174285D01*
X152327200Y-85174285D02*
X152374819Y-85079047D01*
X152374819Y-85079047D02*
X152374819Y-84888571D01*
X152374819Y-84888571D02*
X152327200Y-84793333D01*
X152327200Y-84793333D02*
X152279580Y-84745714D01*
X152279580Y-84745714D02*
X152184342Y-84698095D01*
X152184342Y-84698095D02*
X151993866Y-84698095D01*
X151993866Y-84698095D02*
X151898628Y-84745714D01*
X151898628Y-84745714D02*
X151851009Y-84793333D01*
X151851009Y-84793333D02*
X151803390Y-84888571D01*
X152374819Y-95638094D02*
X151374819Y-95638094D01*
X151374819Y-95638094D02*
X151374819Y-95257142D01*
X151374819Y-95257142D02*
X151422438Y-95161904D01*
X151422438Y-95161904D02*
X151470057Y-95114285D01*
X151470057Y-95114285D02*
X151565295Y-95066666D01*
X151565295Y-95066666D02*
X151708152Y-95066666D01*
X151708152Y-95066666D02*
X151803390Y-95114285D01*
X151803390Y-95114285D02*
X151851009Y-95161904D01*
X151851009Y-95161904D02*
X151898628Y-95257142D01*
X151898628Y-95257142D02*
X151898628Y-95638094D01*
X151374819Y-94161904D02*
X151374819Y-94638094D01*
X151374819Y-94638094D02*
X151851009Y-94685713D01*
X151851009Y-94685713D02*
X151803390Y-94638094D01*
X151803390Y-94638094D02*
X151755771Y-94542856D01*
X151755771Y-94542856D02*
X151755771Y-94304761D01*
X151755771Y-94304761D02*
X151803390Y-94209523D01*
X151803390Y-94209523D02*
X151851009Y-94161904D01*
X151851009Y-94161904D02*
X151946247Y-94114285D01*
X151946247Y-94114285D02*
X152184342Y-94114285D01*
X152184342Y-94114285D02*
X152279580Y-94161904D01*
X152279580Y-94161904D02*
X152327200Y-94209523D01*
X152327200Y-94209523D02*
X152374819Y-94304761D01*
X152374819Y-94304761D02*
X152374819Y-94542856D01*
X152374819Y-94542856D02*
X152327200Y-94638094D01*
X152327200Y-94638094D02*
X152279580Y-94685713D01*
X154914819Y-87174285D02*
X153914819Y-87174285D01*
X153914819Y-87174285D02*
X153914819Y-86793333D01*
X153914819Y-86793333D02*
X153962438Y-86698095D01*
X153962438Y-86698095D02*
X154010057Y-86650476D01*
X154010057Y-86650476D02*
X154105295Y-86602857D01*
X154105295Y-86602857D02*
X154248152Y-86602857D01*
X154248152Y-86602857D02*
X154343390Y-86650476D01*
X154343390Y-86650476D02*
X154391009Y-86698095D01*
X154391009Y-86698095D02*
X154438628Y-86793333D01*
X154438628Y-86793333D02*
X154438628Y-87174285D01*
X154914819Y-85650476D02*
X154914819Y-86221904D01*
X154914819Y-85936190D02*
X153914819Y-85936190D01*
X153914819Y-85936190D02*
X154057676Y-86031428D01*
X154057676Y-86031428D02*
X154152914Y-86126666D01*
X154152914Y-86126666D02*
X154200533Y-86221904D01*
X154914819Y-85174285D02*
X154914819Y-84983809D01*
X154914819Y-84983809D02*
X154867200Y-84888571D01*
X154867200Y-84888571D02*
X154819580Y-84840952D01*
X154819580Y-84840952D02*
X154676723Y-84745714D01*
X154676723Y-84745714D02*
X154486247Y-84698095D01*
X154486247Y-84698095D02*
X154105295Y-84698095D01*
X154105295Y-84698095D02*
X154010057Y-84745714D01*
X154010057Y-84745714D02*
X153962438Y-84793333D01*
X153962438Y-84793333D02*
X153914819Y-84888571D01*
X153914819Y-84888571D02*
X153914819Y-85079047D01*
X153914819Y-85079047D02*
X153962438Y-85174285D01*
X153962438Y-85174285D02*
X154010057Y-85221904D01*
X154010057Y-85221904D02*
X154105295Y-85269523D01*
X154105295Y-85269523D02*
X154343390Y-85269523D01*
X154343390Y-85269523D02*
X154438628Y-85221904D01*
X154438628Y-85221904D02*
X154486247Y-85174285D01*
X154486247Y-85174285D02*
X154533866Y-85079047D01*
X154533866Y-85079047D02*
X154533866Y-84888571D01*
X154533866Y-84888571D02*
X154486247Y-84793333D01*
X154486247Y-84793333D02*
X154438628Y-84745714D01*
X154438628Y-84745714D02*
X154343390Y-84698095D01*
X154914819Y-95638094D02*
X153914819Y-95638094D01*
X153914819Y-95638094D02*
X153914819Y-95257142D01*
X153914819Y-95257142D02*
X153962438Y-95161904D01*
X153962438Y-95161904D02*
X154010057Y-95114285D01*
X154010057Y-95114285D02*
X154105295Y-95066666D01*
X154105295Y-95066666D02*
X154248152Y-95066666D01*
X154248152Y-95066666D02*
X154343390Y-95114285D01*
X154343390Y-95114285D02*
X154391009Y-95161904D01*
X154391009Y-95161904D02*
X154438628Y-95257142D01*
X154438628Y-95257142D02*
X154438628Y-95638094D01*
X154248152Y-94209523D02*
X154914819Y-94209523D01*
X153867200Y-94447618D02*
X154581485Y-94685713D01*
X154581485Y-94685713D02*
X154581485Y-94066666D01*
X157454819Y-87174285D02*
X156454819Y-87174285D01*
X156454819Y-87174285D02*
X156454819Y-86793333D01*
X156454819Y-86793333D02*
X156502438Y-86698095D01*
X156502438Y-86698095D02*
X156550057Y-86650476D01*
X156550057Y-86650476D02*
X156645295Y-86602857D01*
X156645295Y-86602857D02*
X156788152Y-86602857D01*
X156788152Y-86602857D02*
X156883390Y-86650476D01*
X156883390Y-86650476D02*
X156931009Y-86698095D01*
X156931009Y-86698095D02*
X156978628Y-86793333D01*
X156978628Y-86793333D02*
X156978628Y-87174285D01*
X156550057Y-86221904D02*
X156502438Y-86174285D01*
X156502438Y-86174285D02*
X156454819Y-86079047D01*
X156454819Y-86079047D02*
X156454819Y-85840952D01*
X156454819Y-85840952D02*
X156502438Y-85745714D01*
X156502438Y-85745714D02*
X156550057Y-85698095D01*
X156550057Y-85698095D02*
X156645295Y-85650476D01*
X156645295Y-85650476D02*
X156740533Y-85650476D01*
X156740533Y-85650476D02*
X156883390Y-85698095D01*
X156883390Y-85698095D02*
X157454819Y-86269523D01*
X157454819Y-86269523D02*
X157454819Y-85650476D01*
X156454819Y-85031428D02*
X156454819Y-84936190D01*
X156454819Y-84936190D02*
X156502438Y-84840952D01*
X156502438Y-84840952D02*
X156550057Y-84793333D01*
X156550057Y-84793333D02*
X156645295Y-84745714D01*
X156645295Y-84745714D02*
X156835771Y-84698095D01*
X156835771Y-84698095D02*
X157073866Y-84698095D01*
X157073866Y-84698095D02*
X157264342Y-84745714D01*
X157264342Y-84745714D02*
X157359580Y-84793333D01*
X157359580Y-84793333D02*
X157407200Y-84840952D01*
X157407200Y-84840952D02*
X157454819Y-84936190D01*
X157454819Y-84936190D02*
X157454819Y-85031428D01*
X157454819Y-85031428D02*
X157407200Y-85126666D01*
X157407200Y-85126666D02*
X157359580Y-85174285D01*
X157359580Y-85174285D02*
X157264342Y-85221904D01*
X157264342Y-85221904D02*
X157073866Y-85269523D01*
X157073866Y-85269523D02*
X156835771Y-85269523D01*
X156835771Y-85269523D02*
X156645295Y-85221904D01*
X156645295Y-85221904D02*
X156550057Y-85174285D01*
X156550057Y-85174285D02*
X156502438Y-85126666D01*
X156502438Y-85126666D02*
X156454819Y-85031428D01*
X157454819Y-95638094D02*
X156454819Y-95638094D01*
X156454819Y-95638094D02*
X156454819Y-95257142D01*
X156454819Y-95257142D02*
X156502438Y-95161904D01*
X156502438Y-95161904D02*
X156550057Y-95114285D01*
X156550057Y-95114285D02*
X156645295Y-95066666D01*
X156645295Y-95066666D02*
X156788152Y-95066666D01*
X156788152Y-95066666D02*
X156883390Y-95114285D01*
X156883390Y-95114285D02*
X156931009Y-95161904D01*
X156931009Y-95161904D02*
X156978628Y-95257142D01*
X156978628Y-95257142D02*
X156978628Y-95638094D01*
X156454819Y-94733332D02*
X156454819Y-94114285D01*
X156454819Y-94114285D02*
X156835771Y-94447618D01*
X156835771Y-94447618D02*
X156835771Y-94304761D01*
X156835771Y-94304761D02*
X156883390Y-94209523D01*
X156883390Y-94209523D02*
X156931009Y-94161904D01*
X156931009Y-94161904D02*
X157026247Y-94114285D01*
X157026247Y-94114285D02*
X157264342Y-94114285D01*
X157264342Y-94114285D02*
X157359580Y-94161904D01*
X157359580Y-94161904D02*
X157407200Y-94209523D01*
X157407200Y-94209523D02*
X157454819Y-94304761D01*
X157454819Y-94304761D02*
X157454819Y-94590475D01*
X157454819Y-94590475D02*
X157407200Y-94685713D01*
X157407200Y-94685713D02*
X157359580Y-94733332D01*
X159994819Y-87174285D02*
X158994819Y-87174285D01*
X158994819Y-87174285D02*
X158994819Y-86793333D01*
X158994819Y-86793333D02*
X159042438Y-86698095D01*
X159042438Y-86698095D02*
X159090057Y-86650476D01*
X159090057Y-86650476D02*
X159185295Y-86602857D01*
X159185295Y-86602857D02*
X159328152Y-86602857D01*
X159328152Y-86602857D02*
X159423390Y-86650476D01*
X159423390Y-86650476D02*
X159471009Y-86698095D01*
X159471009Y-86698095D02*
X159518628Y-86793333D01*
X159518628Y-86793333D02*
X159518628Y-87174285D01*
X159090057Y-86221904D02*
X159042438Y-86174285D01*
X159042438Y-86174285D02*
X158994819Y-86079047D01*
X158994819Y-86079047D02*
X158994819Y-85840952D01*
X158994819Y-85840952D02*
X159042438Y-85745714D01*
X159042438Y-85745714D02*
X159090057Y-85698095D01*
X159090057Y-85698095D02*
X159185295Y-85650476D01*
X159185295Y-85650476D02*
X159280533Y-85650476D01*
X159280533Y-85650476D02*
X159423390Y-85698095D01*
X159423390Y-85698095D02*
X159994819Y-86269523D01*
X159994819Y-86269523D02*
X159994819Y-85650476D01*
X159994819Y-84698095D02*
X159994819Y-85269523D01*
X159994819Y-84983809D02*
X158994819Y-84983809D01*
X158994819Y-84983809D02*
X159137676Y-85079047D01*
X159137676Y-85079047D02*
X159232914Y-85174285D01*
X159232914Y-85174285D02*
X159280533Y-85269523D01*
X159994819Y-95638094D02*
X158994819Y-95638094D01*
X158994819Y-95638094D02*
X158994819Y-95257142D01*
X158994819Y-95257142D02*
X159042438Y-95161904D01*
X159042438Y-95161904D02*
X159090057Y-95114285D01*
X159090057Y-95114285D02*
X159185295Y-95066666D01*
X159185295Y-95066666D02*
X159328152Y-95066666D01*
X159328152Y-95066666D02*
X159423390Y-95114285D01*
X159423390Y-95114285D02*
X159471009Y-95161904D01*
X159471009Y-95161904D02*
X159518628Y-95257142D01*
X159518628Y-95257142D02*
X159518628Y-95638094D01*
X159090057Y-94685713D02*
X159042438Y-94638094D01*
X159042438Y-94638094D02*
X158994819Y-94542856D01*
X158994819Y-94542856D02*
X158994819Y-94304761D01*
X158994819Y-94304761D02*
X159042438Y-94209523D01*
X159042438Y-94209523D02*
X159090057Y-94161904D01*
X159090057Y-94161904D02*
X159185295Y-94114285D01*
X159185295Y-94114285D02*
X159280533Y-94114285D01*
X159280533Y-94114285D02*
X159423390Y-94161904D01*
X159423390Y-94161904D02*
X159994819Y-94733332D01*
X159994819Y-94733332D02*
X159994819Y-94114285D01*
X161534819Y-90313332D02*
X162534819Y-89979999D01*
X162534819Y-89979999D02*
X161534819Y-89646666D01*
X162439580Y-88741904D02*
X162487200Y-88789523D01*
X162487200Y-88789523D02*
X162534819Y-88932380D01*
X162534819Y-88932380D02*
X162534819Y-89027618D01*
X162534819Y-89027618D02*
X162487200Y-89170475D01*
X162487200Y-89170475D02*
X162391961Y-89265713D01*
X162391961Y-89265713D02*
X162296723Y-89313332D01*
X162296723Y-89313332D02*
X162106247Y-89360951D01*
X162106247Y-89360951D02*
X161963390Y-89360951D01*
X161963390Y-89360951D02*
X161772914Y-89313332D01*
X161772914Y-89313332D02*
X161677676Y-89265713D01*
X161677676Y-89265713D02*
X161582438Y-89170475D01*
X161582438Y-89170475D02*
X161534819Y-89027618D01*
X161534819Y-89027618D02*
X161534819Y-88932380D01*
X161534819Y-88932380D02*
X161582438Y-88789523D01*
X161582438Y-88789523D02*
X161630057Y-88741904D01*
X162439580Y-87741904D02*
X162487200Y-87789523D01*
X162487200Y-87789523D02*
X162534819Y-87932380D01*
X162534819Y-87932380D02*
X162534819Y-88027618D01*
X162534819Y-88027618D02*
X162487200Y-88170475D01*
X162487200Y-88170475D02*
X162391961Y-88265713D01*
X162391961Y-88265713D02*
X162296723Y-88313332D01*
X162296723Y-88313332D02*
X162106247Y-88360951D01*
X162106247Y-88360951D02*
X161963390Y-88360951D01*
X161963390Y-88360951D02*
X161772914Y-88313332D01*
X161772914Y-88313332D02*
X161677676Y-88265713D01*
X161677676Y-88265713D02*
X161582438Y-88170475D01*
X161582438Y-88170475D02*
X161534819Y-88027618D01*
X161534819Y-88027618D02*
X161534819Y-87932380D01*
X161534819Y-87932380D02*
X161582438Y-87789523D01*
X161582438Y-87789523D02*
X161630057Y-87741904D01*
X161582438Y-92641904D02*
X161534819Y-92737142D01*
X161534819Y-92737142D02*
X161534819Y-92879999D01*
X161534819Y-92879999D02*
X161582438Y-93022856D01*
X161582438Y-93022856D02*
X161677676Y-93118094D01*
X161677676Y-93118094D02*
X161772914Y-93165713D01*
X161772914Y-93165713D02*
X161963390Y-93213332D01*
X161963390Y-93213332D02*
X162106247Y-93213332D01*
X162106247Y-93213332D02*
X162296723Y-93165713D01*
X162296723Y-93165713D02*
X162391961Y-93118094D01*
X162391961Y-93118094D02*
X162487200Y-93022856D01*
X162487200Y-93022856D02*
X162534819Y-92879999D01*
X162534819Y-92879999D02*
X162534819Y-92784761D01*
X162534819Y-92784761D02*
X162487200Y-92641904D01*
X162487200Y-92641904D02*
X162439580Y-92594285D01*
X162439580Y-92594285D02*
X162106247Y-92594285D01*
X162106247Y-92594285D02*
X162106247Y-92784761D01*
X162534819Y-92165713D02*
X161534819Y-92165713D01*
X161534819Y-92165713D02*
X162534819Y-91594285D01*
X162534819Y-91594285D02*
X161534819Y-91594285D01*
X162534819Y-91118094D02*
X161534819Y-91118094D01*
X161534819Y-91118094D02*
X161534819Y-90879999D01*
X161534819Y-90879999D02*
X161582438Y-90737142D01*
X161582438Y-90737142D02*
X161677676Y-90641904D01*
X161677676Y-90641904D02*
X161772914Y-90594285D01*
X161772914Y-90594285D02*
X161963390Y-90546666D01*
X161963390Y-90546666D02*
X162106247Y-90546666D01*
X162106247Y-90546666D02*
X162296723Y-90594285D01*
X162296723Y-90594285D02*
X162391961Y-90641904D01*
X162391961Y-90641904D02*
X162487200Y-90737142D01*
X162487200Y-90737142D02*
X162534819Y-90879999D01*
X162534819Y-90879999D02*
X162534819Y-91118094D01*
X165074819Y-89527619D02*
X164598628Y-89860952D01*
X165074819Y-90099047D02*
X164074819Y-90099047D01*
X164074819Y-90099047D02*
X164074819Y-89718095D01*
X164074819Y-89718095D02*
X164122438Y-89622857D01*
X164122438Y-89622857D02*
X164170057Y-89575238D01*
X164170057Y-89575238D02*
X164265295Y-89527619D01*
X164265295Y-89527619D02*
X164408152Y-89527619D01*
X164408152Y-89527619D02*
X164503390Y-89575238D01*
X164503390Y-89575238D02*
X164551009Y-89622857D01*
X164551009Y-89622857D02*
X164598628Y-89718095D01*
X164598628Y-89718095D02*
X164598628Y-90099047D01*
X165027200Y-89146666D02*
X165074819Y-89003809D01*
X165074819Y-89003809D02*
X165074819Y-88765714D01*
X165074819Y-88765714D02*
X165027200Y-88670476D01*
X165027200Y-88670476D02*
X164979580Y-88622857D01*
X164979580Y-88622857D02*
X164884342Y-88575238D01*
X164884342Y-88575238D02*
X164789104Y-88575238D01*
X164789104Y-88575238D02*
X164693866Y-88622857D01*
X164693866Y-88622857D02*
X164646247Y-88670476D01*
X164646247Y-88670476D02*
X164598628Y-88765714D01*
X164598628Y-88765714D02*
X164551009Y-88956190D01*
X164551009Y-88956190D02*
X164503390Y-89051428D01*
X164503390Y-89051428D02*
X164455771Y-89099047D01*
X164455771Y-89099047D02*
X164360533Y-89146666D01*
X164360533Y-89146666D02*
X164265295Y-89146666D01*
X164265295Y-89146666D02*
X164170057Y-89099047D01*
X164170057Y-89099047D02*
X164122438Y-89051428D01*
X164122438Y-89051428D02*
X164074819Y-88956190D01*
X164074819Y-88956190D02*
X164074819Y-88718095D01*
X164074819Y-88718095D02*
X164122438Y-88575238D01*
X164074819Y-88289523D02*
X164074819Y-87718095D01*
X165074819Y-88003809D02*
X164074819Y-88003809D01*
X164122438Y-92641904D02*
X164074819Y-92737142D01*
X164074819Y-92737142D02*
X164074819Y-92879999D01*
X164074819Y-92879999D02*
X164122438Y-93022856D01*
X164122438Y-93022856D02*
X164217676Y-93118094D01*
X164217676Y-93118094D02*
X164312914Y-93165713D01*
X164312914Y-93165713D02*
X164503390Y-93213332D01*
X164503390Y-93213332D02*
X164646247Y-93213332D01*
X164646247Y-93213332D02*
X164836723Y-93165713D01*
X164836723Y-93165713D02*
X164931961Y-93118094D01*
X164931961Y-93118094D02*
X165027200Y-93022856D01*
X165027200Y-93022856D02*
X165074819Y-92879999D01*
X165074819Y-92879999D02*
X165074819Y-92784761D01*
X165074819Y-92784761D02*
X165027200Y-92641904D01*
X165027200Y-92641904D02*
X164979580Y-92594285D01*
X164979580Y-92594285D02*
X164646247Y-92594285D01*
X164646247Y-92594285D02*
X164646247Y-92784761D01*
X165074819Y-92165713D02*
X164074819Y-92165713D01*
X164074819Y-92165713D02*
X165074819Y-91594285D01*
X165074819Y-91594285D02*
X164074819Y-91594285D01*
X165074819Y-91118094D02*
X164074819Y-91118094D01*
X164074819Y-91118094D02*
X164074819Y-90879999D01*
X164074819Y-90879999D02*
X164122438Y-90737142D01*
X164122438Y-90737142D02*
X164217676Y-90641904D01*
X164217676Y-90641904D02*
X164312914Y-90594285D01*
X164312914Y-90594285D02*
X164503390Y-90546666D01*
X164503390Y-90546666D02*
X164646247Y-90546666D01*
X164646247Y-90546666D02*
X164836723Y-90594285D01*
X164836723Y-90594285D02*
X164931961Y-90641904D01*
X164931961Y-90641904D02*
X165027200Y-90737142D01*
X165027200Y-90737142D02*
X165074819Y-90879999D01*
X165074819Y-90879999D02*
X165074819Y-91118094D01*
X166662438Y-89741904D02*
X166614819Y-89837142D01*
X166614819Y-89837142D02*
X166614819Y-89979999D01*
X166614819Y-89979999D02*
X166662438Y-90122856D01*
X166662438Y-90122856D02*
X166757676Y-90218094D01*
X166757676Y-90218094D02*
X166852914Y-90265713D01*
X166852914Y-90265713D02*
X167043390Y-90313332D01*
X167043390Y-90313332D02*
X167186247Y-90313332D01*
X167186247Y-90313332D02*
X167376723Y-90265713D01*
X167376723Y-90265713D02*
X167471961Y-90218094D01*
X167471961Y-90218094D02*
X167567200Y-90122856D01*
X167567200Y-90122856D02*
X167614819Y-89979999D01*
X167614819Y-89979999D02*
X167614819Y-89884761D01*
X167614819Y-89884761D02*
X167567200Y-89741904D01*
X167567200Y-89741904D02*
X167519580Y-89694285D01*
X167519580Y-89694285D02*
X167186247Y-89694285D01*
X167186247Y-89694285D02*
X167186247Y-89884761D01*
X167614819Y-89265713D02*
X166614819Y-89265713D01*
X166614819Y-89265713D02*
X167614819Y-88694285D01*
X167614819Y-88694285D02*
X166614819Y-88694285D01*
X167614819Y-88218094D02*
X166614819Y-88218094D01*
X166614819Y-88218094D02*
X166614819Y-87979999D01*
X166614819Y-87979999D02*
X166662438Y-87837142D01*
X166662438Y-87837142D02*
X166757676Y-87741904D01*
X166757676Y-87741904D02*
X166852914Y-87694285D01*
X166852914Y-87694285D02*
X167043390Y-87646666D01*
X167043390Y-87646666D02*
X167186247Y-87646666D01*
X167186247Y-87646666D02*
X167376723Y-87694285D01*
X167376723Y-87694285D02*
X167471961Y-87741904D01*
X167471961Y-87741904D02*
X167567200Y-87837142D01*
X167567200Y-87837142D02*
X167614819Y-87979999D01*
X167614819Y-87979999D02*
X167614819Y-88218094D01*
X167614819Y-93208094D02*
X166614819Y-93208094D01*
X166614819Y-93208094D02*
X166614819Y-92827142D01*
X166614819Y-92827142D02*
X166662438Y-92731904D01*
X166662438Y-92731904D02*
X166710057Y-92684285D01*
X166710057Y-92684285D02*
X166805295Y-92636666D01*
X166805295Y-92636666D02*
X166948152Y-92636666D01*
X166948152Y-92636666D02*
X167043390Y-92684285D01*
X167043390Y-92684285D02*
X167091009Y-92731904D01*
X167091009Y-92731904D02*
X167138628Y-92827142D01*
X167138628Y-92827142D02*
X167138628Y-93208094D01*
X166614819Y-92017618D02*
X166614819Y-91922380D01*
X166614819Y-91922380D02*
X166662438Y-91827142D01*
X166662438Y-91827142D02*
X166710057Y-91779523D01*
X166710057Y-91779523D02*
X166805295Y-91731904D01*
X166805295Y-91731904D02*
X166995771Y-91684285D01*
X166995771Y-91684285D02*
X167233866Y-91684285D01*
X167233866Y-91684285D02*
X167424342Y-91731904D01*
X167424342Y-91731904D02*
X167519580Y-91779523D01*
X167519580Y-91779523D02*
X167567200Y-91827142D01*
X167567200Y-91827142D02*
X167614819Y-91922380D01*
X167614819Y-91922380D02*
X167614819Y-92017618D01*
X167614819Y-92017618D02*
X167567200Y-92112856D01*
X167567200Y-92112856D02*
X167519580Y-92160475D01*
X167519580Y-92160475D02*
X167424342Y-92208094D01*
X167424342Y-92208094D02*
X167233866Y-92255713D01*
X167233866Y-92255713D02*
X166995771Y-92255713D01*
X166995771Y-92255713D02*
X166805295Y-92208094D01*
X166805295Y-92208094D02*
X166710057Y-92160475D01*
X166710057Y-92160475D02*
X166662438Y-92112856D01*
X166662438Y-92112856D02*
X166614819Y-92017618D01*
X170154819Y-89670476D02*
X169678628Y-90003809D01*
X170154819Y-90241904D02*
X169154819Y-90241904D01*
X169154819Y-90241904D02*
X169154819Y-89860952D01*
X169154819Y-89860952D02*
X169202438Y-89765714D01*
X169202438Y-89765714D02*
X169250057Y-89718095D01*
X169250057Y-89718095D02*
X169345295Y-89670476D01*
X169345295Y-89670476D02*
X169488152Y-89670476D01*
X169488152Y-89670476D02*
X169583390Y-89718095D01*
X169583390Y-89718095D02*
X169631009Y-89765714D01*
X169631009Y-89765714D02*
X169678628Y-89860952D01*
X169678628Y-89860952D02*
X169678628Y-90241904D01*
X169869104Y-89289523D02*
X169869104Y-88813333D01*
X170154819Y-89384761D02*
X169154819Y-89051428D01*
X169154819Y-89051428D02*
X170154819Y-88718095D01*
X169154819Y-88479999D02*
X170154819Y-88241904D01*
X170154819Y-88241904D02*
X169440533Y-88051428D01*
X169440533Y-88051428D02*
X170154819Y-87860952D01*
X170154819Y-87860952D02*
X169154819Y-87622857D01*
X170154819Y-93208094D02*
X169154819Y-93208094D01*
X169154819Y-93208094D02*
X169154819Y-92827142D01*
X169154819Y-92827142D02*
X169202438Y-92731904D01*
X169202438Y-92731904D02*
X169250057Y-92684285D01*
X169250057Y-92684285D02*
X169345295Y-92636666D01*
X169345295Y-92636666D02*
X169488152Y-92636666D01*
X169488152Y-92636666D02*
X169583390Y-92684285D01*
X169583390Y-92684285D02*
X169631009Y-92731904D01*
X169631009Y-92731904D02*
X169678628Y-92827142D01*
X169678628Y-92827142D02*
X169678628Y-93208094D01*
X170154819Y-91684285D02*
X170154819Y-92255713D01*
X170154819Y-91969999D02*
X169154819Y-91969999D01*
X169154819Y-91969999D02*
X169297676Y-92065237D01*
X169297676Y-92065237D02*
X169392914Y-92160475D01*
X169392914Y-92160475D02*
X169440533Y-92255713D01*
X172699819Y-98572858D02*
X172223628Y-98906191D01*
X172699819Y-99144286D02*
X171699819Y-99144286D01*
X171699819Y-99144286D02*
X171699819Y-98763334D01*
X171699819Y-98763334D02*
X171747438Y-98668096D01*
X171747438Y-98668096D02*
X171795057Y-98620477D01*
X171795057Y-98620477D02*
X171890295Y-98572858D01*
X171890295Y-98572858D02*
X172033152Y-98572858D01*
X172033152Y-98572858D02*
X172128390Y-98620477D01*
X172128390Y-98620477D02*
X172176009Y-98668096D01*
X172176009Y-98668096D02*
X172223628Y-98763334D01*
X172223628Y-98763334D02*
X172223628Y-99144286D01*
X172699819Y-97382381D02*
X171699819Y-97382381D01*
X172699819Y-96953810D02*
X172176009Y-96953810D01*
X172176009Y-96953810D02*
X172080771Y-97001429D01*
X172080771Y-97001429D02*
X172033152Y-97096667D01*
X172033152Y-97096667D02*
X172033152Y-97239524D01*
X172033152Y-97239524D02*
X172080771Y-97334762D01*
X172080771Y-97334762D02*
X172128390Y-97382381D01*
X172699819Y-96049048D02*
X172176009Y-96049048D01*
X172176009Y-96049048D02*
X172080771Y-96096667D01*
X172080771Y-96096667D02*
X172033152Y-96191905D01*
X172033152Y-96191905D02*
X172033152Y-96382381D01*
X172033152Y-96382381D02*
X172080771Y-96477619D01*
X172652200Y-96049048D02*
X172699819Y-96144286D01*
X172699819Y-96144286D02*
X172699819Y-96382381D01*
X172699819Y-96382381D02*
X172652200Y-96477619D01*
X172652200Y-96477619D02*
X172556961Y-96525238D01*
X172556961Y-96525238D02*
X172461723Y-96525238D01*
X172461723Y-96525238D02*
X172366485Y-96477619D01*
X172366485Y-96477619D02*
X172318866Y-96382381D01*
X172318866Y-96382381D02*
X172318866Y-96144286D01*
X172318866Y-96144286D02*
X172271247Y-96049048D01*
X172033152Y-95572857D02*
X172699819Y-95572857D01*
X172128390Y-95572857D02*
X172080771Y-95525238D01*
X172080771Y-95525238D02*
X172033152Y-95430000D01*
X172033152Y-95430000D02*
X172033152Y-95287143D01*
X172033152Y-95287143D02*
X172080771Y-95191905D01*
X172080771Y-95191905D02*
X172176009Y-95144286D01*
X172176009Y-95144286D02*
X172699819Y-95144286D01*
X172699819Y-94239524D02*
X171699819Y-94239524D01*
X172652200Y-94239524D02*
X172699819Y-94334762D01*
X172699819Y-94334762D02*
X172699819Y-94525238D01*
X172699819Y-94525238D02*
X172652200Y-94620476D01*
X172652200Y-94620476D02*
X172604580Y-94668095D01*
X172604580Y-94668095D02*
X172509342Y-94715714D01*
X172509342Y-94715714D02*
X172223628Y-94715714D01*
X172223628Y-94715714D02*
X172128390Y-94668095D01*
X172128390Y-94668095D02*
X172080771Y-94620476D01*
X172080771Y-94620476D02*
X172033152Y-94525238D01*
X172033152Y-94525238D02*
X172033152Y-94334762D01*
X172033152Y-94334762D02*
X172080771Y-94239524D01*
X172699819Y-93001428D02*
X171699819Y-93001428D01*
X172080771Y-93001428D02*
X172033152Y-92906190D01*
X172033152Y-92906190D02*
X172033152Y-92715714D01*
X172033152Y-92715714D02*
X172080771Y-92620476D01*
X172080771Y-92620476D02*
X172128390Y-92572857D01*
X172128390Y-92572857D02*
X172223628Y-92525238D01*
X172223628Y-92525238D02*
X172509342Y-92525238D01*
X172509342Y-92525238D02*
X172604580Y-92572857D01*
X172604580Y-92572857D02*
X172652200Y-92620476D01*
X172652200Y-92620476D02*
X172699819Y-92715714D01*
X172699819Y-92715714D02*
X172699819Y-92906190D01*
X172699819Y-92906190D02*
X172652200Y-93001428D01*
X172699819Y-91668095D02*
X172176009Y-91668095D01*
X172176009Y-91668095D02*
X172080771Y-91715714D01*
X172080771Y-91715714D02*
X172033152Y-91810952D01*
X172033152Y-91810952D02*
X172033152Y-92001428D01*
X172033152Y-92001428D02*
X172080771Y-92096666D01*
X172652200Y-91668095D02*
X172699819Y-91763333D01*
X172699819Y-91763333D02*
X172699819Y-92001428D01*
X172699819Y-92001428D02*
X172652200Y-92096666D01*
X172652200Y-92096666D02*
X172556961Y-92144285D01*
X172556961Y-92144285D02*
X172461723Y-92144285D01*
X172461723Y-92144285D02*
X172366485Y-92096666D01*
X172366485Y-92096666D02*
X172318866Y-92001428D01*
X172318866Y-92001428D02*
X172318866Y-91763333D01*
X172318866Y-91763333D02*
X172271247Y-91668095D01*
X172652200Y-90763333D02*
X172699819Y-90858571D01*
X172699819Y-90858571D02*
X172699819Y-91049047D01*
X172699819Y-91049047D02*
X172652200Y-91144285D01*
X172652200Y-91144285D02*
X172604580Y-91191904D01*
X172604580Y-91191904D02*
X172509342Y-91239523D01*
X172509342Y-91239523D02*
X172223628Y-91239523D01*
X172223628Y-91239523D02*
X172128390Y-91191904D01*
X172128390Y-91191904D02*
X172080771Y-91144285D01*
X172080771Y-91144285D02*
X172033152Y-91049047D01*
X172033152Y-91049047D02*
X172033152Y-90858571D01*
X172033152Y-90858571D02*
X172080771Y-90763333D01*
X172699819Y-90334761D02*
X171699819Y-90334761D01*
X172318866Y-90239523D02*
X172699819Y-89953809D01*
X172033152Y-89953809D02*
X172414104Y-90334761D01*
X172652200Y-88810951D02*
X172699819Y-88715713D01*
X172699819Y-88715713D02*
X172699819Y-88525237D01*
X172699819Y-88525237D02*
X172652200Y-88429999D01*
X172652200Y-88429999D02*
X172556961Y-88382380D01*
X172556961Y-88382380D02*
X172509342Y-88382380D01*
X172509342Y-88382380D02*
X172414104Y-88429999D01*
X172414104Y-88429999D02*
X172366485Y-88525237D01*
X172366485Y-88525237D02*
X172366485Y-88668094D01*
X172366485Y-88668094D02*
X172318866Y-88763332D01*
X172318866Y-88763332D02*
X172223628Y-88810951D01*
X172223628Y-88810951D02*
X172176009Y-88810951D01*
X172176009Y-88810951D02*
X172080771Y-88763332D01*
X172080771Y-88763332D02*
X172033152Y-88668094D01*
X172033152Y-88668094D02*
X172033152Y-88525237D01*
X172033152Y-88525237D02*
X172080771Y-88429999D01*
X172699819Y-87953808D02*
X172033152Y-87953808D01*
X171699819Y-87953808D02*
X171747438Y-88001427D01*
X171747438Y-88001427D02*
X171795057Y-87953808D01*
X171795057Y-87953808D02*
X171747438Y-87906189D01*
X171747438Y-87906189D02*
X171699819Y-87953808D01*
X171699819Y-87953808D02*
X171795057Y-87953808D01*
X172699819Y-87049047D02*
X171699819Y-87049047D01*
X172652200Y-87049047D02*
X172699819Y-87144285D01*
X172699819Y-87144285D02*
X172699819Y-87334761D01*
X172699819Y-87334761D02*
X172652200Y-87429999D01*
X172652200Y-87429999D02*
X172604580Y-87477618D01*
X172604580Y-87477618D02*
X172509342Y-87525237D01*
X172509342Y-87525237D02*
X172223628Y-87525237D01*
X172223628Y-87525237D02*
X172128390Y-87477618D01*
X172128390Y-87477618D02*
X172080771Y-87429999D01*
X172080771Y-87429999D02*
X172033152Y-87334761D01*
X172033152Y-87334761D02*
X172033152Y-87144285D01*
X172033152Y-87144285D02*
X172080771Y-87049047D01*
X172652200Y-86191904D02*
X172699819Y-86287142D01*
X172699819Y-86287142D02*
X172699819Y-86477618D01*
X172699819Y-86477618D02*
X172652200Y-86572856D01*
X172652200Y-86572856D02*
X172556961Y-86620475D01*
X172556961Y-86620475D02*
X172176009Y-86620475D01*
X172176009Y-86620475D02*
X172080771Y-86572856D01*
X172080771Y-86572856D02*
X172033152Y-86477618D01*
X172033152Y-86477618D02*
X172033152Y-86287142D01*
X172033152Y-86287142D02*
X172080771Y-86191904D01*
X172080771Y-86191904D02*
X172176009Y-86144285D01*
X172176009Y-86144285D02*
X172271247Y-86144285D01*
X172271247Y-86144285D02*
X172366485Y-86620475D01*
X173080771Y-84668094D02*
X173033152Y-84715713D01*
X173033152Y-84715713D02*
X172890295Y-84810951D01*
X172890295Y-84810951D02*
X172795057Y-84858570D01*
X172795057Y-84858570D02*
X172652200Y-84906189D01*
X172652200Y-84906189D02*
X172414104Y-84953808D01*
X172414104Y-84953808D02*
X172223628Y-84953808D01*
X172223628Y-84953808D02*
X171985533Y-84906189D01*
X171985533Y-84906189D02*
X171842676Y-84858570D01*
X171842676Y-84858570D02*
X171747438Y-84810951D01*
X171747438Y-84810951D02*
X171604580Y-84715713D01*
X171604580Y-84715713D02*
X171556961Y-84668094D01*
X172699819Y-84287141D02*
X171699819Y-84287141D01*
X171699819Y-84287141D02*
X172414104Y-83953808D01*
X172414104Y-83953808D02*
X171699819Y-83620475D01*
X171699819Y-83620475D02*
X172699819Y-83620475D01*
X172699819Y-82763332D02*
X171937914Y-82763332D01*
X172128390Y-82953808D02*
X171937914Y-82763332D01*
X171937914Y-82763332D02*
X172128390Y-82572856D01*
X173080771Y-82001427D02*
X173033152Y-81953808D01*
X173033152Y-81953808D02*
X172890295Y-81858570D01*
X172890295Y-81858570D02*
X172795057Y-81810951D01*
X172795057Y-81810951D02*
X172652200Y-81763332D01*
X172652200Y-81763332D02*
X172414104Y-81715713D01*
X172414104Y-81715713D02*
X172223628Y-81715713D01*
X172223628Y-81715713D02*
X171985533Y-81763332D01*
X171985533Y-81763332D02*
X171842676Y-81810951D01*
X171842676Y-81810951D02*
X171747438Y-81858570D01*
X171747438Y-81858570D02*
X171604580Y-81953808D01*
X171604580Y-81953808D02*
X171556961Y-82001427D01*
%TO.C,S1*%
X102077075Y-73341758D02*
X101577075Y-72841758D01*
X102077075Y-76841758D02*
X101577075Y-77341758D01*
X101577075Y-72841758D02*
X98577075Y-72841758D01*
X101577075Y-77341758D02*
X99277075Y-77341757D01*
X98577075Y-72841758D02*
X98077075Y-73341758D01*
X98077075Y-74261758D02*
X98077075Y-73341758D01*
X97577075Y-78841758D02*
X97577075Y-79541758D01*
X97577075Y-79541758D02*
X93077075Y-79541758D01*
X93077075Y-74841758D02*
X97557075Y-74841758D01*
X93077075Y-75441758D02*
X93077075Y-74841758D01*
X93077075Y-79541758D02*
X93077075Y-79041758D01*
X97577075Y-78821758D02*
G75*
G02*
X99277075Y-77341756I1589998J-109996D01*
G01*
X98077075Y-74261758D02*
G75*
G02*
X97557075Y-74841758I-550000J-30000D01*
G01*
%TO.C,S4*%
X136000000Y-76200000D02*
X136500000Y-75700000D01*
X136000000Y-79700000D02*
X136500000Y-80200000D01*
X136500000Y-75700000D02*
X138800000Y-75700001D01*
X136500000Y-80200000D02*
X139500000Y-80200000D01*
X139500000Y-80200000D02*
X140000000Y-79700000D01*
X140000001Y-78780000D02*
X140000000Y-79700000D01*
X140500000Y-73500000D02*
X145000000Y-73500000D01*
X140500000Y-74200000D02*
X140500000Y-73500000D01*
X144999999Y-77600000D02*
X145000000Y-78200001D01*
X145000000Y-73500000D02*
X145000000Y-74000000D01*
X145000000Y-78200001D02*
X140520000Y-78200000D01*
X140000001Y-78780000D02*
G75*
G02*
X140520000Y-78200000I550001J29999D01*
G01*
X140500000Y-74220000D02*
G75*
G02*
X138800000Y-75700002I-1589998J109996D01*
G01*
%TO.C,RST1*%
X131200000Y-81840000D02*
X131200000Y-82090000D01*
X131200000Y-81840000D02*
X137200000Y-81840000D01*
X131200000Y-85340000D02*
X131200000Y-85090000D01*
X131200000Y-85340000D02*
X137200000Y-85340000D01*
X137200000Y-81840000D02*
X137200000Y-82090000D01*
X137200000Y-85340000D02*
X137200000Y-85090000D01*
D12*
%TO.C,REF\u002A\u002A*%
G36*
X196170404Y-104960584D02*
G01*
X196063058Y-104960584D01*
X196063058Y-104425367D01*
X196170404Y-104425367D01*
X196170404Y-104960584D01*
G37*
G36*
X196277749Y-105175245D02*
G01*
X196170404Y-105175245D01*
X196170404Y-104960584D01*
X196277749Y-104960584D01*
X196277749Y-105175245D01*
G37*
G36*
X196385064Y-103568174D02*
G01*
X196277764Y-103568174D01*
X196277764Y-102388937D01*
X196385064Y-102388937D01*
X196385064Y-103568174D01*
G37*
G36*
X196385064Y-105389944D02*
G01*
X196277764Y-105389944D01*
X196277764Y-105175245D01*
X196385064Y-105175245D01*
X196385064Y-105389944D01*
G37*
G36*
X196490914Y-102388937D02*
G01*
X196383569Y-102388937D01*
X196383569Y-101853765D01*
X196490914Y-101853765D01*
X196490914Y-102388937D01*
G37*
G36*
X196490914Y-105497251D02*
G01*
X196383569Y-105497251D01*
X196383569Y-105389944D01*
X196490914Y-105389944D01*
X196490914Y-105497251D01*
G37*
G36*
X196598275Y-101853765D02*
G01*
X196490914Y-101853765D01*
X196490914Y-101531751D01*
X196598275Y-101531751D01*
X196598275Y-101853765D01*
G37*
G36*
X196598275Y-105603101D02*
G01*
X196490914Y-105603101D01*
X196490914Y-105495756D01*
X196598275Y-105495756D01*
X196598275Y-105603101D01*
G37*
G36*
X196705575Y-101531751D02*
G01*
X196598275Y-101531751D01*
X196598275Y-101317045D01*
X196705575Y-101317045D01*
X196705575Y-101531751D01*
G37*
G36*
X196705575Y-105603101D02*
G01*
X196598275Y-105603101D01*
X196598275Y-105495756D01*
X196705575Y-105495756D01*
X196705575Y-105603101D01*
G37*
G36*
X196705575Y-105710462D02*
G01*
X196598275Y-105710462D01*
X196598275Y-105603101D01*
X196705575Y-105603101D01*
X196705575Y-105710462D01*
G37*
G36*
X196812936Y-101318555D02*
G01*
X196705575Y-101318555D01*
X196705575Y-101103887D01*
X196812936Y-101103887D01*
X196812936Y-101318555D01*
G37*
G36*
X196812936Y-105710462D02*
G01*
X196705575Y-105710462D01*
X196705575Y-105603101D01*
X196812936Y-105603101D01*
X196812936Y-105710462D01*
G37*
G36*
X196812936Y-105925123D02*
G01*
X196705575Y-105925123D01*
X196705575Y-105710462D01*
X196812936Y-105710462D01*
X196812936Y-105925123D01*
G37*
G36*
X196920281Y-101103887D02*
G01*
X196812921Y-101103887D01*
X196812921Y-100996534D01*
X196920281Y-100996534D01*
X196920281Y-101103887D01*
G37*
G36*
X196920281Y-105925123D02*
G01*
X196812921Y-105925123D01*
X196812921Y-105710462D01*
X196920281Y-105710462D01*
X196920281Y-105925123D01*
G37*
G36*
X196920281Y-106032468D02*
G01*
X196812921Y-106032468D01*
X196812921Y-105925115D01*
X196920281Y-105925115D01*
X196920281Y-106032468D01*
G37*
G36*
X197027627Y-100996534D02*
G01*
X196920281Y-100996534D01*
X196920281Y-100889227D01*
X197027627Y-100889227D01*
X197027627Y-100996534D01*
G37*
G36*
X197027627Y-106032468D02*
G01*
X196920281Y-106032468D01*
X196920281Y-105925115D01*
X197027627Y-105925115D01*
X197027627Y-106032468D01*
G37*
G36*
X197027627Y-106247129D02*
G01*
X196920281Y-106247129D01*
X196920281Y-106032468D01*
X197027627Y-106032468D01*
X197027627Y-106247129D01*
G37*
G36*
X197134942Y-100889227D02*
G01*
X197027627Y-100889227D01*
X197027627Y-100781873D01*
X197134942Y-100781873D01*
X197134942Y-100889227D01*
G37*
G36*
X197134942Y-103996000D02*
G01*
X196920281Y-103996000D01*
X196920281Y-103888692D01*
X197134942Y-103888692D01*
X197134942Y-103996000D01*
G37*
G36*
X197134942Y-106245634D02*
G01*
X197027627Y-106245634D01*
X197027627Y-106032468D01*
X197134942Y-106032468D01*
X197134942Y-106245634D01*
G37*
G36*
X197134942Y-106782346D02*
G01*
X196707116Y-106782346D01*
X196707116Y-106674993D01*
X197134942Y-106674993D01*
X197134942Y-106782346D01*
G37*
G36*
X197134942Y-107424871D02*
G01*
X196920281Y-107424871D01*
X196920281Y-107317518D01*
X197134942Y-107317518D01*
X197134942Y-107424871D01*
G37*
G36*
X197242288Y-100781873D02*
G01*
X197134942Y-100781873D01*
X197134942Y-100674520D01*
X197242288Y-100674520D01*
X197242288Y-100781873D01*
G37*
G36*
X197242288Y-106352979D02*
G01*
X197134942Y-106352979D01*
X197134942Y-106245634D01*
X197242288Y-106245634D01*
X197242288Y-106352979D01*
G37*
G36*
X197348153Y-100674520D02*
G01*
X197240792Y-100674520D01*
X197240792Y-100567167D01*
X197348153Y-100567167D01*
X197348153Y-100674520D01*
G37*
G36*
X197348153Y-104103353D02*
G01*
X197134942Y-104103353D01*
X197134942Y-103996000D01*
X197348153Y-103996000D01*
X197348153Y-104103353D01*
G37*
G36*
X197455453Y-100568716D02*
G01*
X197348153Y-100568716D01*
X197348153Y-100461362D01*
X197455453Y-100461362D01*
X197455453Y-100568716D01*
G37*
G36*
X197455453Y-107532178D02*
G01*
X197133447Y-107532178D01*
X197133447Y-107424879D01*
X197455453Y-107424879D01*
X197455453Y-107532178D01*
G37*
G36*
X197562814Y-100461362D02*
G01*
X197455453Y-100461362D01*
X197455453Y-100354009D01*
X197562814Y-100354009D01*
X197562814Y-100461362D01*
G37*
G36*
X197562814Y-104210706D02*
G01*
X197348153Y-104210706D01*
X197348153Y-104103345D01*
X197562814Y-104103345D01*
X197562814Y-104210706D01*
G37*
G36*
X197670159Y-100354017D02*
G01*
X197562799Y-100354017D01*
X197562799Y-100246702D01*
X197670159Y-100246702D01*
X197670159Y-100354017D01*
G37*
G36*
X197670159Y-104318052D02*
G01*
X197562799Y-104318052D01*
X197562799Y-104210706D01*
X197670159Y-104210706D01*
X197670159Y-104318052D01*
G37*
G36*
X197777505Y-100246702D02*
G01*
X197670159Y-100246702D01*
X197670159Y-100139349D01*
X197777505Y-100139349D01*
X197777505Y-100246702D01*
G37*
G36*
X197884820Y-104425367D02*
G01*
X197670159Y-104425367D01*
X197670159Y-104318052D01*
X197884820Y-104318052D01*
X197884820Y-104425367D01*
G37*
G36*
X197884820Y-104532713D02*
G01*
X197670159Y-104532713D01*
X197670159Y-104425367D01*
X197884820Y-104425367D01*
X197884820Y-104532713D01*
G37*
G36*
X197992166Y-100139356D02*
G01*
X197777505Y-100139356D01*
X197777505Y-100031995D01*
X197992166Y-100031995D01*
X197992166Y-100139356D01*
G37*
G36*
X198098016Y-104640066D02*
G01*
X197883309Y-104640066D01*
X197883309Y-104532713D01*
X198098016Y-104532713D01*
X198098016Y-104640066D01*
G37*
G36*
X198205377Y-100031995D02*
G01*
X197990670Y-100031995D01*
X197990670Y-99924650D01*
X198205377Y-99924650D01*
X198205377Y-100031995D01*
G37*
G36*
X198420037Y-99924650D02*
G01*
X198205377Y-99924650D01*
X198205377Y-99817335D01*
X198420037Y-99817335D01*
X198420037Y-99924650D01*
G37*
G36*
X198420037Y-106352979D02*
G01*
X198312677Y-106352979D01*
X198312677Y-106245634D01*
X198420037Y-106245634D01*
X198420037Y-106352979D01*
G37*
G36*
X198420037Y-107854192D02*
G01*
X198312677Y-107854192D01*
X198312677Y-107746885D01*
X198420037Y-107746885D01*
X198420037Y-107854192D01*
G37*
G36*
X198527383Y-106352979D02*
G01*
X198420037Y-106352979D01*
X198420037Y-106245634D01*
X198527383Y-106245634D01*
X198527383Y-106352979D01*
G37*
G36*
X198634744Y-99817335D02*
G01*
X198420037Y-99817335D01*
X198420037Y-99709982D01*
X198634744Y-99709982D01*
X198634744Y-99817335D01*
G37*
G36*
X198634744Y-107960050D02*
G01*
X198420037Y-107960050D01*
X198420037Y-107852689D01*
X198634744Y-107852689D01*
X198634744Y-107960050D01*
G37*
G36*
X198742044Y-108067396D02*
G01*
X198634744Y-108067396D01*
X198634744Y-107960050D01*
X198742044Y-107960050D01*
X198742044Y-108067396D01*
G37*
G36*
X198849404Y-99711485D02*
G01*
X198634744Y-99711485D01*
X198634744Y-99604139D01*
X198849404Y-99604139D01*
X198849404Y-99711485D01*
G37*
G36*
X198849404Y-102710950D02*
G01*
X198742044Y-102710950D01*
X198742044Y-102603643D01*
X198849404Y-102603643D01*
X198849404Y-102710950D01*
G37*
G36*
X198849404Y-108174711D02*
G01*
X198742044Y-108174711D01*
X198742044Y-108067396D01*
X198849404Y-108067396D01*
X198849404Y-108174711D01*
G37*
G36*
X198955255Y-102710950D02*
G01*
X198849404Y-102710950D01*
X198849404Y-102603643D01*
X198955255Y-102603643D01*
X198955255Y-102710950D01*
G37*
G36*
X199062554Y-102603635D02*
G01*
X198955255Y-102603635D01*
X198955255Y-102496290D01*
X199062554Y-102496290D01*
X199062554Y-102603635D01*
G37*
G36*
X199062554Y-106245634D02*
G01*
X198527383Y-106245634D01*
X198527383Y-106138280D01*
X199062554Y-106138280D01*
X199062554Y-106245634D01*
G37*
G36*
X199062554Y-108282056D02*
G01*
X198847894Y-108282056D01*
X198847894Y-108174703D01*
X199062554Y-108174703D01*
X199062554Y-108282056D01*
G37*
G36*
X199169915Y-102496290D02*
G01*
X199062554Y-102496290D01*
X199062554Y-102388937D01*
X199169915Y-102388937D01*
X199169915Y-102496290D01*
G37*
G36*
X199169915Y-106245634D02*
G01*
X199062554Y-106245634D01*
X199062554Y-106139776D01*
X199169915Y-106139776D01*
X199169915Y-106245634D01*
G37*
G36*
X199169915Y-106352979D02*
G01*
X199062554Y-106352979D01*
X199062554Y-106245634D01*
X199169915Y-106245634D01*
X199169915Y-106352979D01*
G37*
G36*
X199384622Y-99604139D02*
G01*
X198849404Y-99604139D01*
X198849404Y-99496824D01*
X199384622Y-99496824D01*
X199384622Y-99604139D01*
G37*
G36*
X199384622Y-106352979D02*
G01*
X199169915Y-106352979D01*
X199169915Y-106245634D01*
X199384622Y-106245634D01*
X199384622Y-106352979D01*
G37*
G36*
X199384622Y-106460294D02*
G01*
X199169915Y-106460294D01*
X199169915Y-106352979D01*
X199384622Y-106352979D01*
X199384622Y-106460294D01*
G37*
G36*
X199491922Y-104745878D02*
G01*
X198312692Y-104745878D01*
X198312692Y-104638570D01*
X199491922Y-104638570D01*
X199491922Y-104745878D01*
G37*
G36*
X199491922Y-106245634D02*
G01*
X199384622Y-106245634D01*
X199384622Y-106139776D01*
X199491922Y-106139776D01*
X199491922Y-106245634D01*
G37*
G36*
X199491922Y-106352979D02*
G01*
X199384622Y-106352979D01*
X199384622Y-106245634D01*
X199491922Y-106245634D01*
X199491922Y-106352979D01*
G37*
G36*
X199599282Y-106139783D02*
G01*
X199491922Y-106139783D01*
X199491922Y-106032468D01*
X199599282Y-106032468D01*
X199599282Y-106139783D01*
G37*
G36*
X199599282Y-106245634D02*
G01*
X199491922Y-106245634D01*
X199491922Y-106138280D01*
X199599282Y-106138280D01*
X199599282Y-106245634D01*
G37*
G36*
X199705133Y-102388937D02*
G01*
X199169915Y-102388937D01*
X199169915Y-102281583D01*
X199705133Y-102281583D01*
X199705133Y-102388937D01*
G37*
G36*
X199812432Y-102388937D02*
G01*
X199705133Y-102388937D01*
X199705133Y-102281583D01*
X199812432Y-102281583D01*
X199812432Y-102388937D01*
G37*
G36*
X199812432Y-106139783D02*
G01*
X199597772Y-106139783D01*
X199597772Y-106032468D01*
X199812432Y-106032468D01*
X199812432Y-106139783D01*
G37*
G36*
X199812432Y-108389410D02*
G01*
X199062554Y-108389410D01*
X199062554Y-108282056D01*
X199812432Y-108282056D01*
X199812432Y-108389410D01*
G37*
G36*
X199919793Y-108282056D02*
G01*
X199812432Y-108282056D01*
X199812432Y-108174703D01*
X199919793Y-108174703D01*
X199919793Y-108282056D01*
G37*
G36*
X200027139Y-104532713D02*
G01*
X199491922Y-104532713D01*
X199491922Y-104425367D01*
X200027139Y-104425367D01*
X200027139Y-104532713D01*
G37*
G36*
X200027139Y-104638563D02*
G01*
X199491922Y-104638563D01*
X199491922Y-104532713D01*
X200027139Y-104532713D01*
X200027139Y-104638563D01*
G37*
G36*
X200027139Y-106245634D02*
G01*
X199812432Y-106245634D01*
X199812432Y-106138280D01*
X200027139Y-106138280D01*
X200027139Y-106245634D01*
G37*
G36*
X200027139Y-108174711D02*
G01*
X199919793Y-108174711D01*
X199919793Y-108067396D01*
X200027139Y-108067396D01*
X200027139Y-108174711D01*
G37*
G36*
X200134500Y-106245634D02*
G01*
X200027139Y-106245634D01*
X200027139Y-106139776D01*
X200134500Y-106139776D01*
X200134500Y-106245634D01*
G37*
G36*
X200134500Y-106460294D02*
G01*
X200027139Y-106460294D01*
X200027139Y-106245634D01*
X200134500Y-106245634D01*
X200134500Y-106460294D01*
G37*
G36*
X200134500Y-108067396D02*
G01*
X200027139Y-108067396D01*
X200027139Y-107960050D01*
X200134500Y-107960050D01*
X200134500Y-108067396D01*
G37*
G36*
X200241845Y-106460294D02*
G01*
X200134484Y-106460294D01*
X200134484Y-106245634D01*
X200241845Y-106245634D01*
X200241845Y-106460294D01*
G37*
G36*
X200241845Y-106674993D02*
G01*
X200134484Y-106674993D01*
X200134484Y-106460294D01*
X200241845Y-106460294D01*
X200241845Y-106674993D01*
G37*
G36*
X200241845Y-107960050D02*
G01*
X200134484Y-107960050D01*
X200134484Y-107852689D01*
X200241845Y-107852689D01*
X200241845Y-107960050D01*
G37*
G36*
X200349160Y-102496290D02*
G01*
X200241845Y-102496290D01*
X200241845Y-102281583D01*
X200349160Y-102281583D01*
X200349160Y-102496290D01*
G37*
G36*
X200349160Y-106674993D02*
G01*
X200241845Y-106674993D01*
X200241845Y-106460294D01*
X200349160Y-106460294D01*
X200349160Y-106674993D01*
G37*
G36*
X200455010Y-104425367D02*
G01*
X200027139Y-104425367D01*
X200027139Y-104318052D01*
X200455010Y-104318052D01*
X200455010Y-104425367D01*
G37*
G36*
X200456506Y-102281583D02*
G01*
X200349145Y-102281583D01*
X200349145Y-102068426D01*
X200456506Y-102068426D01*
X200456506Y-102281583D01*
G37*
G36*
X200456506Y-102496290D02*
G01*
X200349145Y-102496290D01*
X200349145Y-102281583D01*
X200456506Y-102281583D01*
X200456506Y-102496290D01*
G37*
G36*
X200456506Y-102818296D02*
G01*
X200349145Y-102818296D01*
X200349145Y-102710950D01*
X200456506Y-102710950D01*
X200456506Y-102818296D01*
G37*
G36*
X200456506Y-104532713D02*
G01*
X200027139Y-104532713D01*
X200027139Y-104425367D01*
X200456506Y-104425367D01*
X200456506Y-104532713D01*
G37*
G36*
X200562356Y-102068426D02*
G01*
X200456506Y-102068426D01*
X200456506Y-101746412D01*
X200562356Y-101746412D01*
X200562356Y-102068426D01*
G37*
G36*
X200562356Y-102281583D02*
G01*
X200455010Y-102281583D01*
X200455010Y-102066923D01*
X200562356Y-102066923D01*
X200562356Y-102281583D01*
G37*
G36*
X200669671Y-101746412D02*
G01*
X200562356Y-101746412D01*
X200562356Y-101318555D01*
X200669671Y-101318555D01*
X200669671Y-101746412D01*
G37*
G36*
X200669671Y-102068426D02*
G01*
X200562356Y-102068426D01*
X200562356Y-101746412D01*
X200669671Y-101746412D01*
X200669671Y-102068426D01*
G37*
G36*
X200777017Y-99496824D02*
G01*
X199384622Y-99496824D01*
X199384622Y-99389478D01*
X200777017Y-99389478D01*
X200777017Y-99496824D01*
G37*
G36*
X200777017Y-101318555D02*
G01*
X200669671Y-101318555D01*
X200669671Y-101211240D01*
X200777017Y-101211240D01*
X200777017Y-101318555D01*
G37*
G36*
X200777017Y-101746412D02*
G01*
X200669671Y-101746412D01*
X200669671Y-101318555D01*
X200777017Y-101318555D01*
X200777017Y-101746412D01*
G37*
G36*
X200884362Y-101211240D02*
G01*
X200777017Y-101211240D01*
X200777017Y-101103887D01*
X200884362Y-101103887D01*
X200884362Y-101211240D01*
G37*
G36*
X200884362Y-101318555D02*
G01*
X200777017Y-101318555D01*
X200777017Y-101211240D01*
X200884362Y-101211240D01*
X200884362Y-101318555D01*
G37*
G36*
X200991723Y-104318052D02*
G01*
X200456506Y-104318052D01*
X200456506Y-104210706D01*
X200991723Y-104210706D01*
X200991723Y-104318052D01*
G37*
G36*
X200991723Y-104425367D02*
G01*
X200456506Y-104425367D01*
X200456506Y-104318052D01*
X200991723Y-104318052D01*
X200991723Y-104425367D01*
G37*
G36*
X201099023Y-99604139D02*
G01*
X200777017Y-99604139D01*
X200777017Y-99496824D01*
X201099023Y-99496824D01*
X201099023Y-99604139D01*
G37*
G36*
X201312234Y-104318052D02*
G01*
X200991723Y-104318052D01*
X200991723Y-104210706D01*
X201312234Y-104210706D01*
X201312234Y-104318052D01*
G37*
G36*
X201313729Y-104210706D02*
G01*
X200991723Y-104210706D01*
X200991723Y-104103345D01*
X201313729Y-104103345D01*
X201313729Y-104210706D01*
G37*
G36*
X201419549Y-99817335D02*
G01*
X201099038Y-99817335D01*
X201099038Y-99711485D01*
X201419549Y-99711485D01*
X201419549Y-99817335D01*
G37*
G36*
X201419549Y-101211240D02*
G01*
X200884378Y-101211240D01*
X200884378Y-101103887D01*
X201419549Y-101103887D01*
X201419549Y-101211240D01*
G37*
G36*
X201419549Y-101746412D02*
G01*
X201204888Y-101746412D01*
X201204888Y-101639059D01*
X201419549Y-101639059D01*
X201419549Y-101746412D01*
G37*
G36*
X201421090Y-99711485D02*
G01*
X201099038Y-99711485D01*
X201099038Y-99604139D01*
X201421090Y-99604139D01*
X201421090Y-99711485D01*
G37*
G36*
X201526895Y-101853765D02*
G01*
X201419549Y-101853765D01*
X201419549Y-101746412D01*
X201526895Y-101746412D01*
X201526895Y-101853765D01*
G37*
G36*
X201526895Y-103031461D02*
G01*
X200562356Y-103031461D01*
X200562356Y-102925657D01*
X201526895Y-102925657D01*
X201526895Y-103031461D01*
G37*
G36*
X201526895Y-104103353D02*
G01*
X201312234Y-104103353D01*
X201312234Y-103996000D01*
X201526895Y-103996000D01*
X201526895Y-104103353D01*
G37*
G36*
X201526895Y-104210706D02*
G01*
X201312234Y-104210706D01*
X201312234Y-104103345D01*
X201526895Y-104103345D01*
X201526895Y-104210706D01*
G37*
G36*
X201634240Y-99817335D02*
G01*
X201419534Y-99817335D01*
X201419534Y-99709982D01*
X201634240Y-99709982D01*
X201634240Y-99817335D01*
G37*
G36*
X201634240Y-99924650D02*
G01*
X201419534Y-99924650D01*
X201419534Y-99817335D01*
X201634240Y-99817335D01*
X201634240Y-99924650D01*
G37*
G36*
X201634240Y-101318555D02*
G01*
X201419534Y-101318555D01*
X201419534Y-101211240D01*
X201634240Y-101211240D01*
X201634240Y-101318555D01*
G37*
G36*
X201634240Y-107639532D02*
G01*
X201419534Y-107639532D01*
X201419534Y-107532178D01*
X201634240Y-107532178D01*
X201634240Y-107639532D01*
G37*
G36*
X201741601Y-99924650D02*
G01*
X201634240Y-99924650D01*
X201634240Y-99817335D01*
X201741601Y-99817335D01*
X201741601Y-99924650D01*
G37*
G36*
X201741601Y-100031995D02*
G01*
X201634240Y-100031995D01*
X201634240Y-99924650D01*
X201741601Y-99924650D01*
X201741601Y-100031995D01*
G37*
G36*
X201741601Y-103996000D02*
G01*
X201526895Y-103996000D01*
X201526895Y-103888692D01*
X201741601Y-103888692D01*
X201741601Y-103996000D01*
G37*
G36*
X201741601Y-104103353D02*
G01*
X201526895Y-104103353D01*
X201526895Y-103996000D01*
X201741601Y-103996000D01*
X201741601Y-104103353D01*
G37*
G36*
X201741601Y-107317518D02*
G01*
X201526895Y-107317518D01*
X201526895Y-107210172D01*
X201741601Y-107210172D01*
X201741601Y-107317518D01*
G37*
G36*
X201848901Y-100031995D02*
G01*
X201741601Y-100031995D01*
X201741601Y-99924650D01*
X201848901Y-99924650D01*
X201848901Y-100031995D01*
G37*
G36*
X201848901Y-100139356D02*
G01*
X201741601Y-100139356D01*
X201741601Y-100031995D01*
X201848901Y-100031995D01*
X201848901Y-100139356D01*
G37*
G36*
X201848901Y-102818296D02*
G01*
X201526895Y-102818296D01*
X201526895Y-102710950D01*
X201848901Y-102710950D01*
X201848901Y-102818296D01*
G37*
G36*
X201848901Y-102925657D02*
G01*
X201526895Y-102925657D01*
X201526895Y-102818296D01*
X201848901Y-102818296D01*
X201848901Y-102925657D01*
G37*
G36*
X201956262Y-100139356D02*
G01*
X201848901Y-100139356D01*
X201848901Y-100031995D01*
X201956262Y-100031995D01*
X201956262Y-100139356D01*
G37*
G36*
X201956262Y-100246702D02*
G01*
X201848901Y-100246702D01*
X201848901Y-100139349D01*
X201956262Y-100139349D01*
X201956262Y-100246702D01*
G37*
G36*
X201956262Y-101211240D02*
G01*
X201848901Y-101211240D01*
X201848901Y-100996534D01*
X201956262Y-100996534D01*
X201956262Y-101211240D01*
G37*
G36*
X201956262Y-103890195D02*
G01*
X201741601Y-103890195D01*
X201741601Y-103782835D01*
X201956262Y-103782835D01*
X201956262Y-103890195D01*
G37*
G36*
X201956262Y-103996000D02*
G01*
X201741601Y-103996000D01*
X201741601Y-103888692D01*
X201956262Y-103888692D01*
X201956262Y-103996000D01*
G37*
G36*
X201956262Y-107210172D02*
G01*
X201741601Y-107210172D01*
X201741601Y-107102811D01*
X201956262Y-107102811D01*
X201956262Y-107210172D01*
G37*
G36*
X202063607Y-100246702D02*
G01*
X201956262Y-100246702D01*
X201956262Y-100139349D01*
X202063607Y-100139349D01*
X202063607Y-100246702D01*
G37*
G36*
X202063607Y-100354017D02*
G01*
X201956262Y-100354017D01*
X201956262Y-100246702D01*
X202063607Y-100246702D01*
X202063607Y-100354017D01*
G37*
G36*
X202063607Y-102710950D02*
G01*
X201848901Y-102710950D01*
X201848901Y-102603643D01*
X202063607Y-102603643D01*
X202063607Y-102710950D01*
G37*
G36*
X202063607Y-102818296D02*
G01*
X201848901Y-102818296D01*
X201848901Y-102710950D01*
X202063607Y-102710950D01*
X202063607Y-102818296D01*
G37*
G36*
X202169458Y-100461362D02*
G01*
X202063607Y-100461362D01*
X202063607Y-100354009D01*
X202169458Y-100354009D01*
X202169458Y-100461362D01*
G37*
G36*
X202169458Y-100996534D02*
G01*
X201956262Y-100996534D01*
X201956262Y-100889227D01*
X202169458Y-100889227D01*
X202169458Y-100996534D01*
G37*
G36*
X202169458Y-102710950D02*
G01*
X202063607Y-102710950D01*
X202063607Y-102603643D01*
X202169458Y-102603643D01*
X202169458Y-102710950D01*
G37*
G36*
X202169458Y-103888692D02*
G01*
X201956262Y-103888692D01*
X201956262Y-103782835D01*
X202169458Y-103782835D01*
X202169458Y-103888692D01*
G37*
G36*
X202169458Y-107102819D02*
G01*
X201954751Y-107102819D01*
X201954751Y-106995512D01*
X202169458Y-106995512D01*
X202169458Y-107102819D01*
G37*
G36*
X202169458Y-107746885D02*
G01*
X201634240Y-107746885D01*
X201634240Y-107639532D01*
X202169458Y-107639532D01*
X202169458Y-107746885D01*
G37*
G36*
X202170968Y-100354017D02*
G01*
X202063607Y-100354017D01*
X202063607Y-100246702D01*
X202170968Y-100246702D01*
X202170968Y-100354017D01*
G37*
G36*
X202170968Y-102603635D02*
G01*
X202063607Y-102603635D01*
X202063607Y-102496290D01*
X202170968Y-102496290D01*
X202170968Y-102603635D01*
G37*
G36*
X202170968Y-103782835D02*
G01*
X201956262Y-103782835D01*
X201956262Y-103675535D01*
X202170968Y-103675535D01*
X202170968Y-103782835D01*
G37*
G36*
X202276773Y-100461362D02*
G01*
X202169458Y-100461362D01*
X202169458Y-100354009D01*
X202276773Y-100354009D01*
X202276773Y-100461362D01*
G37*
G36*
X202276773Y-100674520D02*
G01*
X202169458Y-100674520D01*
X202169458Y-100461362D01*
X202276773Y-100461362D01*
X202276773Y-100674520D01*
G37*
G36*
X202276773Y-102496290D02*
G01*
X202169458Y-102496290D01*
X202169458Y-102388937D01*
X202276773Y-102388937D01*
X202276773Y-102496290D01*
G37*
G36*
X202276773Y-102603635D02*
G01*
X202169458Y-102603635D01*
X202169458Y-102496290D01*
X202276773Y-102496290D01*
X202276773Y-102603635D01*
G37*
G36*
X202276773Y-103675527D02*
G01*
X202169458Y-103675527D01*
X202169458Y-103568174D01*
X202276773Y-103568174D01*
X202276773Y-103675527D01*
G37*
G36*
X202276773Y-103782835D02*
G01*
X202169458Y-103782835D01*
X202169458Y-103675535D01*
X202276773Y-103675535D01*
X202276773Y-103782835D01*
G37*
G36*
X202276773Y-106995512D02*
G01*
X202169458Y-106995512D01*
X202169458Y-106888151D01*
X202276773Y-106888151D01*
X202276773Y-106995512D01*
G37*
G36*
X202276773Y-107639532D02*
G01*
X202169458Y-107639532D01*
X202169458Y-107532178D01*
X202276773Y-107532178D01*
X202276773Y-107639532D01*
G37*
G36*
X202384118Y-100674520D02*
G01*
X202276773Y-100674520D01*
X202276773Y-100459859D01*
X202384118Y-100459859D01*
X202384118Y-100674520D01*
G37*
G36*
X202384118Y-100889227D02*
G01*
X202276773Y-100889227D01*
X202276773Y-100674528D01*
X202384118Y-100674528D01*
X202384118Y-100889227D01*
G37*
G36*
X202384118Y-101424398D02*
G01*
X201634240Y-101424398D01*
X201634240Y-101317045D01*
X202384118Y-101317045D01*
X202384118Y-101424398D01*
G37*
G36*
X202384118Y-102388937D02*
G01*
X202276773Y-102388937D01*
X202276773Y-102281583D01*
X202384118Y-102281583D01*
X202384118Y-102388937D01*
G37*
G36*
X202384118Y-102496290D02*
G01*
X202276773Y-102496290D01*
X202276773Y-102388937D01*
X202384118Y-102388937D01*
X202384118Y-102496290D01*
G37*
G36*
X202384118Y-103460828D02*
G01*
X202276773Y-103460828D01*
X202276773Y-103353468D01*
X202384118Y-103353468D01*
X202384118Y-103460828D01*
G37*
G36*
X202384118Y-103568174D02*
G01*
X202276773Y-103568174D01*
X202276773Y-103460828D01*
X202384118Y-103460828D01*
X202384118Y-103568174D01*
G37*
G36*
X202384118Y-103675527D02*
G01*
X202276773Y-103675527D01*
X202276773Y-103568174D01*
X202384118Y-103568174D01*
X202384118Y-103675527D01*
G37*
G36*
X202384118Y-106889654D02*
G01*
X202276773Y-106889654D01*
X202276773Y-106782346D01*
X202384118Y-106782346D01*
X202384118Y-106889654D01*
G37*
G36*
X202384118Y-107532178D02*
G01*
X202276773Y-107532178D01*
X202276773Y-107424879D01*
X202384118Y-107424879D01*
X202384118Y-107532178D01*
G37*
G36*
X202491479Y-100889227D02*
G01*
X202384118Y-100889227D01*
X202384118Y-100674528D01*
X202491479Y-100674528D01*
X202491479Y-100889227D01*
G37*
G36*
X202491479Y-101103887D02*
G01*
X202384118Y-101103887D01*
X202384118Y-100889227D01*
X202491479Y-100889227D01*
X202491479Y-101103887D01*
G37*
G36*
X202491479Y-102283125D02*
G01*
X202384118Y-102283125D01*
X202384118Y-102175779D01*
X202491479Y-102175779D01*
X202491479Y-102283125D01*
G37*
G36*
X202491479Y-102388937D02*
G01*
X202384118Y-102388937D01*
X202384118Y-102281583D01*
X202491479Y-102281583D01*
X202491479Y-102388937D01*
G37*
G36*
X202491479Y-103353475D02*
G01*
X202384118Y-103353475D01*
X202384118Y-103246168D01*
X202491479Y-103246168D01*
X202491479Y-103353475D01*
G37*
G36*
X202491479Y-103460828D02*
G01*
X202384118Y-103460828D01*
X202384118Y-103353468D01*
X202491479Y-103353468D01*
X202491479Y-103460828D01*
G37*
G36*
X202491479Y-103568174D02*
G01*
X202384118Y-103568174D01*
X202384118Y-103460828D01*
X202491479Y-103460828D01*
X202491479Y-103568174D01*
G37*
G36*
X202598825Y-101103887D02*
G01*
X202491479Y-101103887D01*
X202491479Y-100889227D01*
X202598825Y-100889227D01*
X202598825Y-101103887D01*
G37*
G36*
X202598825Y-101211240D02*
G01*
X202491479Y-101211240D01*
X202491479Y-101103887D01*
X202598825Y-101103887D01*
X202598825Y-101211240D01*
G37*
G36*
X202598825Y-101318555D02*
G01*
X202384118Y-101318555D01*
X202384118Y-101211240D01*
X202598825Y-101211240D01*
X202598825Y-101318555D01*
G37*
G36*
X202598825Y-102175779D02*
G01*
X202491479Y-102175779D01*
X202491479Y-102068426D01*
X202598825Y-102068426D01*
X202598825Y-102175779D01*
G37*
G36*
X202598825Y-103246168D02*
G01*
X202491479Y-103246168D01*
X202491479Y-103031461D01*
X202598825Y-103031461D01*
X202598825Y-103246168D01*
G37*
G36*
X202598825Y-103353475D02*
G01*
X202491479Y-103353475D01*
X202491479Y-103246168D01*
X202598825Y-103246168D01*
X202598825Y-103353475D01*
G37*
G36*
X202598825Y-103460828D02*
G01*
X202491479Y-103460828D01*
X202491479Y-103353468D01*
X202598825Y-103353468D01*
X202598825Y-103460828D01*
G37*
G36*
X202598825Y-106782346D02*
G01*
X202384118Y-106782346D01*
X202384118Y-106674993D01*
X202598825Y-106674993D01*
X202598825Y-106782346D01*
G37*
G36*
X202706140Y-103246168D02*
G01*
X202598825Y-103246168D01*
X202598825Y-103031461D01*
X202706140Y-103031461D01*
X202706140Y-103246168D01*
G37*
G36*
X202706140Y-103353475D02*
G01*
X202598825Y-103353475D01*
X202598825Y-103246168D01*
X202706140Y-103246168D01*
X202706140Y-103353475D01*
G37*
G36*
X202706140Y-106674993D02*
G01*
X202598825Y-106674993D01*
X202598825Y-106567640D01*
X202706140Y-106567640D01*
X202706140Y-106674993D01*
G37*
G36*
X202811975Y-107424871D02*
G01*
X202384118Y-107424871D01*
X202384118Y-107317518D01*
X202811975Y-107317518D01*
X202811975Y-107424871D01*
G37*
G36*
X202813485Y-103246168D02*
G01*
X202706140Y-103246168D01*
X202706140Y-103031461D01*
X202813485Y-103031461D01*
X202813485Y-103246168D01*
G37*
G36*
X202813485Y-106567640D02*
G01*
X202706140Y-106567640D01*
X202706140Y-106352979D01*
X202813485Y-106352979D01*
X202813485Y-106567640D01*
G37*
G36*
X202920846Y-101211240D02*
G01*
X202598825Y-101211240D01*
X202598825Y-101103887D01*
X202920846Y-101103887D01*
X202920846Y-101211240D01*
G37*
G36*
X202920846Y-101746412D02*
G01*
X202813485Y-101746412D01*
X202813485Y-101639059D01*
X202920846Y-101639059D01*
X202920846Y-101746412D01*
G37*
G36*
X202920846Y-107317518D02*
G01*
X202813485Y-107317518D01*
X202813485Y-107210172D01*
X202920846Y-107210172D01*
X202920846Y-107317518D01*
G37*
G36*
X203026635Y-101639059D02*
G01*
X202919335Y-101639059D01*
X202919335Y-101211240D01*
X203026635Y-101211240D01*
X203026635Y-101639059D01*
G37*
G36*
X203026635Y-102175779D02*
G01*
X202919335Y-102175779D01*
X202919335Y-102068426D01*
X203026635Y-102068426D01*
X203026635Y-102175779D01*
G37*
G36*
X203026635Y-107211668D02*
G01*
X202919335Y-107211668D01*
X202919335Y-106889654D01*
X203026635Y-106889654D01*
X203026635Y-107211668D01*
G37*
G36*
X203133996Y-102068426D02*
G01*
X203026635Y-102068426D01*
X203026635Y-101961118D01*
X203133996Y-101961118D01*
X203133996Y-102068426D01*
G37*
G36*
X203133996Y-102388937D02*
G01*
X203026635Y-102388937D01*
X203026635Y-102174276D01*
X203133996Y-102174276D01*
X203133996Y-102388937D01*
G37*
G36*
X203133996Y-106139783D02*
G01*
X203026635Y-106139783D01*
X203026635Y-105925123D01*
X203133996Y-105925123D01*
X203133996Y-106139783D01*
G37*
G36*
X203133996Y-106889654D02*
G01*
X203026635Y-106889654D01*
X203026635Y-106782346D01*
X203133996Y-106782346D01*
X203133996Y-106889654D01*
G37*
G36*
X203241357Y-101961118D02*
G01*
X203133996Y-101961118D01*
X203133996Y-101853765D01*
X203241357Y-101853765D01*
X203241357Y-101961118D01*
G37*
G36*
X203241357Y-102388937D02*
G01*
X203133996Y-102388937D01*
X203133996Y-102175779D01*
X203241357Y-102175779D01*
X203241357Y-102388937D01*
G37*
G36*
X203241357Y-102603635D02*
G01*
X203133996Y-102603635D01*
X203133996Y-102388937D01*
X203241357Y-102388937D01*
X203241357Y-102603635D01*
G37*
G36*
X203241357Y-105925123D02*
G01*
X203133996Y-105925123D01*
X203133996Y-105817762D01*
X203241357Y-105817762D01*
X203241357Y-105925123D01*
G37*
G36*
X203241357Y-106782346D02*
G01*
X203133996Y-106782346D01*
X203133996Y-106460294D01*
X203241357Y-106460294D01*
X203241357Y-106782346D01*
G37*
G36*
X203348703Y-101853765D02*
G01*
X203241357Y-101853765D01*
X203241357Y-101746412D01*
X203348703Y-101746412D01*
X203348703Y-101853765D01*
G37*
G36*
X203348703Y-102603635D02*
G01*
X203241357Y-102603635D01*
X203241357Y-102388937D01*
X203348703Y-102388937D01*
X203348703Y-102603635D01*
G37*
G36*
X203348703Y-102818296D02*
G01*
X203241357Y-102818296D01*
X203241357Y-102603635D01*
X203348703Y-102603635D01*
X203348703Y-102818296D01*
G37*
G36*
X203348703Y-105817762D02*
G01*
X203241357Y-105817762D01*
X203241357Y-105710462D01*
X203348703Y-105710462D01*
X203348703Y-105817762D01*
G37*
G36*
X203456018Y-101746412D02*
G01*
X203348703Y-101746412D01*
X203348703Y-101639059D01*
X203456018Y-101639059D01*
X203456018Y-101746412D01*
G37*
G36*
X203456018Y-102818296D02*
G01*
X203348703Y-102818296D01*
X203348703Y-102603635D01*
X203456018Y-102603635D01*
X203456018Y-102818296D01*
G37*
G36*
X203456018Y-103031461D02*
G01*
X203348703Y-103031461D01*
X203348703Y-102816801D01*
X203456018Y-102816801D01*
X203456018Y-103031461D01*
G37*
G36*
X203456018Y-105710462D02*
G01*
X203348703Y-105710462D01*
X203348703Y-105495756D01*
X203456018Y-105495756D01*
X203456018Y-105710462D01*
G37*
G36*
X203563363Y-103031461D02*
G01*
X203456018Y-103031461D01*
X203456018Y-102818296D01*
X203563363Y-102818296D01*
X203563363Y-103031461D01*
G37*
G36*
X203563363Y-103246168D02*
G01*
X203456018Y-103246168D01*
X203456018Y-103031461D01*
X203563363Y-103031461D01*
X203563363Y-103246168D01*
G37*
G36*
X203563363Y-105495756D02*
G01*
X203456018Y-105495756D01*
X203456018Y-105067892D01*
X203563363Y-105067892D01*
X203563363Y-105495756D01*
G37*
G36*
X203670709Y-103568174D02*
G01*
X203563363Y-103568174D01*
X203563363Y-103246168D01*
X203670709Y-103246168D01*
X203670709Y-103568174D01*
G37*
G36*
X203670709Y-105067884D02*
G01*
X203563363Y-105067884D01*
X203563363Y-104532713D01*
X203670709Y-104532713D01*
X203670709Y-105067884D01*
G37*
G36*
X203776513Y-101639059D02*
G01*
X203454507Y-101639059D01*
X203454507Y-101531751D01*
X203776513Y-101531751D01*
X203776513Y-101639059D01*
G37*
G36*
X203883874Y-101746412D02*
G01*
X203776513Y-101746412D01*
X203776513Y-101639059D01*
X203883874Y-101639059D01*
X203883874Y-101746412D01*
G37*
G36*
X203991235Y-103246168D02*
G01*
X203883874Y-103246168D01*
X203883874Y-101746412D01*
X203991235Y-101746412D01*
X203991235Y-103246168D01*
G37*
G36*
X201528390Y-102925657D02*
G01*
X200563851Y-102925657D01*
X200563851Y-103140318D01*
X200456506Y-103140318D01*
X200456506Y-102818296D01*
X201528390Y-102818296D01*
X201528390Y-102925657D01*
G37*
G36*
X200350701Y-102710950D02*
G01*
X200243341Y-102710950D01*
X200243341Y-102603643D01*
X199921319Y-102603643D01*
X199921319Y-102496290D01*
X200349145Y-102496290D01*
X200350854Y-102496290D01*
X200350701Y-102710950D01*
G37*
G36*
X199491922Y-104532713D02*
G01*
X198205377Y-104532713D01*
X198205377Y-104638570D01*
X198098016Y-104638570D01*
X198098016Y-104532713D01*
X197884820Y-104532713D01*
X197884820Y-104425367D01*
X199491922Y-104425367D01*
X199491922Y-104532713D01*
G37*
G36*
X199491922Y-104640066D02*
G01*
X198312692Y-104640066D01*
X198312692Y-104747419D01*
X198098031Y-104747419D01*
X198098031Y-104640066D01*
X198205377Y-104640066D01*
X198205377Y-104532713D01*
X199491937Y-104532713D01*
X199491922Y-104640066D01*
G37*
G36*
X202706140Y-103031461D02*
G01*
X202598825Y-103031461D01*
X202598825Y-102281583D01*
X202491479Y-102281583D01*
X202491479Y-102175779D01*
X202598825Y-102175779D01*
X202598825Y-102068418D01*
X202706140Y-102068418D01*
X202706140Y-103031461D01*
G37*
G36*
X203883874Y-103675527D02*
G01*
X203776513Y-103675527D01*
X203776513Y-104532713D01*
X203669213Y-104532713D01*
X203669213Y-103568174D01*
X203776513Y-103568174D01*
X203776513Y-103247663D01*
X203883874Y-103247663D01*
X203883874Y-103675527D01*
G37*
G36*
X196705575Y-106995512D02*
G01*
X196812936Y-106995512D01*
X196812936Y-107210172D01*
X196920281Y-107210172D01*
X196920281Y-107317518D01*
X196705575Y-107317518D01*
X196705575Y-107102819D01*
X196598275Y-107102819D01*
X196598275Y-106780805D01*
X196705575Y-106780805D01*
X196705575Y-106995512D01*
G37*
G36*
X202170968Y-100889227D02*
G01*
X201956262Y-100889227D01*
X201956262Y-100996534D01*
X201848901Y-100996534D01*
X201848901Y-101211240D01*
X201741601Y-101211240D01*
X201741601Y-100889227D01*
X201848901Y-100889227D01*
X201848901Y-100781873D01*
X202170953Y-100781873D01*
X202170968Y-100889227D01*
G37*
G36*
X203026635Y-106354482D02*
G01*
X203133996Y-106354482D01*
X203133996Y-106461835D01*
X202919335Y-106461835D01*
X202919335Y-106354482D01*
X202811975Y-106354482D01*
X202811975Y-106247129D01*
X202919335Y-106247129D01*
X202919335Y-106139776D01*
X203026635Y-106139776D01*
X203026635Y-106354482D01*
G37*
G36*
X202813485Y-101961118D02*
G01*
X202920846Y-101961118D01*
X202920846Y-102068426D01*
X202813485Y-102068426D01*
X202813485Y-103033002D01*
X202706140Y-103033002D01*
X202706140Y-102068426D01*
X202598825Y-102068426D01*
X202598825Y-101961118D01*
X202706140Y-101961118D01*
X202706140Y-101746412D01*
X202813485Y-101746412D01*
X202813485Y-101961118D01*
G37*
G36*
X203883874Y-103246168D02*
G01*
X203776513Y-103246168D01*
X203776513Y-103568174D01*
X203669213Y-103568174D01*
X203669213Y-103246160D01*
X203563363Y-103246160D01*
X203563363Y-103031461D01*
X203669213Y-103031461D01*
X203669213Y-103138807D01*
X203776513Y-103138807D01*
X203776513Y-101746412D01*
X203883874Y-101746412D01*
X203883874Y-103246168D01*
G37*
G36*
X200347650Y-107532178D02*
G01*
X201097528Y-107532178D01*
X201097528Y-107424879D01*
X201312234Y-107424879D01*
X201312234Y-107317518D01*
X201526895Y-107317518D01*
X201526895Y-107424879D01*
X201419549Y-107424879D01*
X201419549Y-107532178D01*
X201204888Y-107532178D01*
X201204888Y-107639539D01*
X200347650Y-107639539D01*
X200347650Y-107854200D01*
X200240289Y-107854200D01*
X200240289Y-106675001D01*
X200347650Y-106675001D01*
X200347650Y-107532178D01*
G37*
G36*
X197348153Y-106995512D02*
G01*
X197455453Y-106995512D01*
X197455453Y-107102811D01*
X197562814Y-107102811D01*
X197562814Y-107210172D01*
X197992181Y-107210172D01*
X197992181Y-107532178D01*
X197455468Y-107532178D01*
X197455468Y-107424871D01*
X197134957Y-107424871D01*
X197134957Y-107317518D01*
X196920297Y-107317518D01*
X196920297Y-107210165D01*
X197134957Y-107210165D01*
X197134957Y-107102811D01*
X197242303Y-107102811D01*
X197242303Y-106889646D01*
X197348153Y-106889646D01*
X197348153Y-106995512D01*
G37*
G36*
X199490426Y-102174276D02*
G01*
X199705133Y-102174276D01*
X199705133Y-102281583D01*
X199169915Y-102281583D01*
X199169915Y-102388937D01*
X199062554Y-102388937D01*
X199062554Y-102496290D01*
X198955255Y-102496290D01*
X198955255Y-102603643D01*
X198953546Y-102603643D01*
X198846231Y-102603643D01*
X198846231Y-102388944D01*
X198953546Y-102388944D01*
X198953546Y-102281583D01*
X199060891Y-102281583D01*
X199060891Y-102174284D01*
X199168252Y-102174284D01*
X199168252Y-102066923D01*
X199490258Y-102066923D01*
X199490426Y-102174276D01*
G37*
G36*
X197348153Y-106460294D02*
G01*
X197455453Y-106460294D01*
X197455453Y-106567640D01*
X197670159Y-106567640D01*
X197670159Y-106675001D01*
X197777520Y-106675001D01*
X197777520Y-106782346D01*
X198098031Y-106782346D01*
X198098031Y-106675001D01*
X198205377Y-106675001D01*
X198205377Y-106352979D01*
X198312692Y-106352979D01*
X198312692Y-106995512D01*
X198098031Y-106995512D01*
X198098031Y-107102811D01*
X197670159Y-107102811D01*
X197670159Y-106995512D01*
X197562814Y-106995512D01*
X197562814Y-106889654D01*
X197455453Y-106889654D01*
X197455453Y-106782346D01*
X197348153Y-106782346D01*
X197348153Y-106567640D01*
X197242303Y-106567640D01*
X197242303Y-106352979D01*
X197348153Y-106352979D01*
X197348153Y-106460294D01*
G37*
G36*
X196492410Y-103888692D02*
G01*
X196599771Y-103888692D01*
X196599771Y-103996046D01*
X197134942Y-103996046D01*
X197134942Y-104103353D01*
X197349649Y-104103353D01*
X197349649Y-104210706D01*
X197564309Y-104210706D01*
X197564309Y-104318060D01*
X197671655Y-104318060D01*
X197671655Y-104425367D01*
X197456994Y-104425367D01*
X197456994Y-104318060D01*
X197242288Y-104318060D01*
X197242288Y-104210706D01*
X197027627Y-104210706D01*
X197027627Y-104103353D01*
X196492410Y-104103353D01*
X196492410Y-104210706D01*
X196385064Y-104210706D01*
X196385064Y-104318060D01*
X196277749Y-104318060D01*
X196277749Y-104423872D01*
X196170404Y-104423872D01*
X196170404Y-104209211D01*
X196277749Y-104209211D01*
X196277749Y-104101850D01*
X196385064Y-104101850D01*
X196385064Y-103566679D01*
X196492410Y-103566679D01*
X196492410Y-103888692D01*
G37*
G36*
X202919335Y-102175779D02*
G01*
X203026635Y-102175779D01*
X203026635Y-102388937D01*
X203133996Y-102388937D01*
X203133996Y-102603635D01*
X203241357Y-102603635D01*
X203241357Y-102818296D01*
X203348703Y-102818296D01*
X203348703Y-103031461D01*
X203456018Y-103031461D01*
X203456018Y-103246168D01*
X203563363Y-103246168D01*
X203563363Y-103568174D01*
X203669213Y-103568174D01*
X203669213Y-104532713D01*
X203563363Y-104532713D01*
X203563363Y-103675527D01*
X203456018Y-103675527D01*
X203456018Y-103353468D01*
X203348703Y-103353468D01*
X203348703Y-103138807D01*
X203241357Y-103138807D01*
X203241357Y-102925657D01*
X203133996Y-102925657D01*
X203133996Y-102818296D01*
X203026635Y-102818296D01*
X203026635Y-102710950D01*
X202919335Y-102710950D01*
X202919335Y-103031461D01*
X202813485Y-103031461D01*
X202813485Y-102068426D01*
X202919335Y-102068426D01*
X202919335Y-102175779D01*
G37*
G36*
X197133447Y-106351438D02*
G01*
X197240792Y-106351438D01*
X197240792Y-106566145D01*
X197348153Y-106566145D01*
X197348153Y-106780805D01*
X197455453Y-106780805D01*
X197455453Y-106888158D01*
X197562814Y-106888158D01*
X197562814Y-106995512D01*
X197670159Y-106995512D01*
X197670159Y-107102819D01*
X198098031Y-107102819D01*
X198098031Y-106995512D01*
X198312692Y-106995512D01*
X198312692Y-106352979D01*
X198420037Y-106352979D01*
X198420037Y-107102819D01*
X198205377Y-107102819D01*
X198205377Y-107210172D01*
X198098031Y-107210172D01*
X198098031Y-107424879D01*
X198205377Y-107424879D01*
X198205377Y-107532178D01*
X198312692Y-107532178D01*
X198312692Y-107746885D01*
X198205377Y-107746885D01*
X198205377Y-107639532D01*
X197455468Y-107639532D01*
X197455468Y-107532178D01*
X197990686Y-107532178D01*
X197990686Y-107210165D01*
X197562814Y-107210165D01*
X197562814Y-107102811D01*
X197455468Y-107102811D01*
X197455468Y-106995504D01*
X197348153Y-106995504D01*
X197348153Y-106888151D01*
X197240808Y-106888151D01*
X197240808Y-106673490D01*
X197133447Y-106673490D01*
X197133447Y-106458784D01*
X197026086Y-106458784D01*
X197026086Y-106244131D01*
X197133447Y-106244131D01*
X197133447Y-106351438D01*
G37*
G36*
X203026635Y-106139783D02*
G01*
X202919335Y-106139783D01*
X202919335Y-106245634D01*
X202813485Y-106245634D01*
X202813485Y-106352987D01*
X202706140Y-106352987D01*
X202706140Y-106567648D01*
X202598825Y-106567648D01*
X202598825Y-106675001D01*
X202384118Y-106675001D01*
X202384118Y-106782354D01*
X202276773Y-106782354D01*
X202276773Y-106889661D01*
X202169458Y-106889661D01*
X202169458Y-106995512D01*
X201956262Y-106995512D01*
X201956262Y-107102819D01*
X201741601Y-107102819D01*
X201741601Y-107210172D01*
X201526895Y-107210172D01*
X201526895Y-107317525D01*
X201312234Y-107317525D01*
X201312234Y-107424879D01*
X201099023Y-107424879D01*
X201099023Y-107532194D01*
X200349145Y-107532194D01*
X200349145Y-106675001D01*
X200456506Y-106675001D01*
X200456506Y-106889661D01*
X200562356Y-106889661D01*
X200562356Y-106995512D01*
X200991723Y-106995512D01*
X200991723Y-106889661D01*
X201312234Y-106889661D01*
X201312234Y-106782362D01*
X201634240Y-106782362D01*
X201634240Y-106675001D01*
X201848901Y-106675001D01*
X201848901Y-106567655D01*
X202063607Y-106567655D01*
X202063607Y-106460294D01*
X202276773Y-106460294D01*
X202276773Y-106352979D01*
X202491479Y-106352979D01*
X202491479Y-106245634D01*
X202706140Y-106245634D01*
X202706140Y-106139776D01*
X202813500Y-106139776D01*
X202813500Y-106032468D01*
X202919335Y-106032468D01*
X202919335Y-105925115D01*
X203026651Y-105925115D01*
X203026635Y-106139783D01*
G37*
%TO.C,PWR1*%
D13*
X164125000Y-63300000D02*
X164125000Y-63100000D01*
X164125000Y-66300000D02*
X164125000Y-64600000D01*
X165175000Y-68150000D02*
X165965000Y-68150000D01*
X165965000Y-61250000D02*
X165175000Y-61250000D01*
X166975000Y-67550000D02*
X166975000Y-61850000D01*
%TO.C,S7*%
D11*
X150000000Y-52800000D02*
X154480000Y-52800000D01*
X150000000Y-53400000D02*
X150000000Y-52800000D01*
X150000000Y-57500000D02*
X150000000Y-57000000D01*
X154500000Y-56800000D02*
X154500000Y-57500000D01*
X154500000Y-57500000D02*
X150000000Y-57500000D01*
X155000000Y-52220000D02*
X155000000Y-51300000D01*
X155500000Y-50800000D02*
X155000000Y-51300000D01*
X158500000Y-50800000D02*
X155500000Y-50800000D01*
X158500000Y-55300000D02*
X156200000Y-55300000D01*
X159000000Y-51300000D02*
X158500000Y-50800000D01*
X159000000Y-54800000D02*
X158500000Y-55300000D01*
X154500000Y-56780000D02*
G75*
G02*
X156200000Y-55300000I1589999J-109999D01*
G01*
X155000000Y-52220000D02*
G75*
G02*
X154480000Y-52800000I-549999J-30001D01*
G01*
%TO.C,S8*%
X170726367Y-110643200D02*
X171171364Y-111192725D01*
X171092217Y-107162373D02*
X171641742Y-106717376D01*
X171171364Y-111192725D02*
X174154929Y-111506310D01*
X171641742Y-106717376D02*
X173929142Y-106957792D01*
X174154929Y-111506310D02*
X174704455Y-111061314D01*
X174800621Y-110146353D02*
X174704455Y-111061314D01*
X175776622Y-105643707D02*
X175849792Y-104947542D01*
X175849792Y-104947542D02*
X180325141Y-105417920D01*
X179833857Y-110092173D02*
X175378399Y-109623883D01*
X179896574Y-109495460D02*
X179833857Y-110092173D01*
X180325141Y-105417920D02*
X180272876Y-105915181D01*
X174800621Y-110146353D02*
G75*
G02*
X175378399Y-109623883I550126J-27656D01*
G01*
X175774532Y-105663598D02*
G75*
G02*
X173929142Y-106957792I-1569791J275597D01*
G01*
%TO.C,S6*%
X150000000Y-71750000D02*
X154480000Y-71750000D01*
X150000000Y-72350000D02*
X150000000Y-71750000D01*
X150000000Y-76450000D02*
X150000000Y-75950000D01*
X154500000Y-75750000D02*
X154500000Y-76450000D01*
X154500000Y-76450000D02*
X150000000Y-76450000D01*
X155000000Y-71170000D02*
X155000000Y-70250000D01*
X155500000Y-69750000D02*
X155000000Y-70250000D01*
X158500000Y-69750000D02*
X155500000Y-69750000D01*
X158500000Y-74250000D02*
X156200000Y-74250000D01*
X159000000Y-70250000D02*
X158500000Y-69750000D01*
X159000000Y-73750000D02*
X158500000Y-74250000D01*
X154500000Y-75730000D02*
G75*
G02*
X156200000Y-74250000I1589999J-109999D01*
G01*
X155000000Y-71170000D02*
G75*
G02*
X154480000Y-71750000I-549999J-30001D01*
G01*
%TO.C,S3*%
X112000000Y-50800000D02*
X116480000Y-50800000D01*
X112000000Y-51400000D02*
X112000000Y-50800000D01*
X112000000Y-55500000D02*
X112000000Y-55000000D01*
X116500000Y-54800000D02*
X116500000Y-55500000D01*
X116500000Y-55500000D02*
X112000000Y-55500000D01*
X117000000Y-50220000D02*
X117000000Y-49300000D01*
X117500000Y-48800000D02*
X117000000Y-49300000D01*
X120500000Y-48800000D02*
X117500000Y-48800000D01*
X120500000Y-53300000D02*
X118200000Y-53300000D01*
X121000000Y-49300000D02*
X120500000Y-48800000D01*
X121000000Y-52800000D02*
X120500000Y-53300000D01*
X116500000Y-54780000D02*
G75*
G02*
X118200000Y-53300000I1589999J-109999D01*
G01*
X117000000Y-50220000D02*
G75*
G02*
X116480000Y-50800000I-549999J-30001D01*
G01*
%TO.C,S9*%
X189680828Y-113972425D02*
X190023640Y-114590875D01*
X190023640Y-114590875D02*
X192907425Y-115417787D01*
X190645559Y-110608009D02*
X191264008Y-110265197D01*
X191264008Y-110265197D02*
X193474910Y-110899163D01*
X192907425Y-115417787D02*
X193525875Y-115074975D01*
X193779461Y-114190614D02*
X193525875Y-115074975D01*
X195522511Y-109925854D02*
X195715457Y-109252971D01*
X195715457Y-109252971D02*
X200041135Y-110493339D01*
X198745639Y-115011269D02*
X194439187Y-113776414D01*
X198911022Y-114434512D02*
X198745639Y-115011269D01*
X200041135Y-110493339D02*
X199903316Y-110973970D01*
X193779461Y-114190614D02*
G75*
G02*
X194439187Y-113776414I536962J-122761D01*
G01*
X195516998Y-109945079D02*
G75*
G02*
X193474910Y-110899162I-1498085J544001D01*
G01*
%TO.C,S5*%
X131000000Y-46800000D02*
X135480000Y-46800000D01*
X131000000Y-47400000D02*
X131000000Y-46800000D01*
X131000000Y-51500000D02*
X131000000Y-51000000D01*
X135500000Y-50800000D02*
X135500000Y-51500000D01*
X135500000Y-51500000D02*
X131000000Y-51500000D01*
X136000000Y-46220000D02*
X136000000Y-45300000D01*
X136500000Y-44800000D02*
X136000000Y-45300000D01*
X139500000Y-44800000D02*
X136500000Y-44800000D01*
X139500000Y-49300000D02*
X137200000Y-49300000D01*
X140000000Y-45300000D02*
X139500000Y-44800000D01*
X140000000Y-48800000D02*
X139500000Y-49300000D01*
X135500000Y-50780000D02*
G75*
G02*
X137200000Y-49300000I1589999J-109999D01*
G01*
X136000000Y-46220000D02*
G75*
G02*
X135480000Y-46800000I-549999J-30001D01*
G01*
%TO.C,S2*%
X117000000Y-80200000D02*
X117500000Y-79700000D01*
X117000000Y-83700000D02*
X117500000Y-84200000D01*
X117500000Y-79700000D02*
X119800000Y-79700001D01*
X117500000Y-84200000D02*
X120500000Y-84200000D01*
X120500000Y-84200000D02*
X121000000Y-83700000D01*
X121000001Y-82780000D02*
X121000000Y-83700000D01*
X121500000Y-77500000D02*
X126000000Y-77500000D01*
X121500000Y-78200000D02*
X121500000Y-77500000D01*
X125999999Y-81600000D02*
X126000000Y-82200001D01*
X126000000Y-77500000D02*
X126000000Y-78000000D01*
X126000000Y-82200001D02*
X121520000Y-82200000D01*
X121000001Y-82780000D02*
G75*
G02*
X121520000Y-82200001I549997J30002D01*
G01*
X121500000Y-78220000D02*
G75*
G02*
X119800000Y-79700001I-1589999J109998D01*
G01*
%TO.C,MCU1*%
D13*
X140430000Y-81480000D02*
X140430000Y-84140000D01*
X140430000Y-96720000D02*
X140430000Y-99380000D01*
X168430000Y-96720000D02*
X168430000Y-99380000D01*
X171030000Y-81480000D02*
X140430000Y-81480000D01*
X171030000Y-81480000D02*
X171030000Y-84140000D01*
X171030000Y-84140000D02*
X140430000Y-84140000D01*
X171030000Y-96720000D02*
X140430000Y-96720000D01*
X171030000Y-96720000D02*
X171030000Y-99380000D01*
X171030000Y-99380000D02*
X140430000Y-99380000D01*
%TD*%
M02*
