%TF.GenerationSoftware,KiCad,Pcbnew,10.0.6*%
%TF.CreationDate,2026-09-30T11:10:58+02:00*%
%TF.ProjectId,2nr9_v2,326e7239-5f76-4322-9e6b-696361645f70,v1.0.0*%
%TF.SameCoordinates,Original*%
%TF.FileFunction,Profile,NP*%
%FSLAX46Y46*%
G04 Gerber Fmt 4.6, Leading zero omitted, Abs format (unit mm)*
G04 Created by KiCad (PCBNEW 10.0.6) date 2026-09-30 11:10:58*
%MOMM*%
%LPD*%
G01*
G04 APERTURE LIST*
%TA.AperFunction,Profile*%
%ADD10C,0.150000*%
%TD*%
%TA.AperFunction,Profile*%
%ADD11C,0.100000*%
%TD*%
G04 APERTURE END LIST*
D10*
X90000000Y-71500000D02*
X90000000Y-90500000D01*
X90000000Y-71500000D02*
G75*
G02*
X90500000Y-71000000I500000J0D01*
G01*
X90500000Y-91000000D02*
G75*
G02*
X90000000Y-90500000I0J500000D01*
G01*
X90500000Y-91000000D02*
X109500000Y-91000000D01*
X109000000Y-47500000D02*
G75*
G02*
X109500000Y-47000000I500000J0D01*
G01*
X109000000Y-71000000D02*
X90500000Y-71000000D01*
X109000000Y-71000000D02*
X109000000Y-47500000D01*
X110000000Y-86000000D02*
X128500000Y-86000000D01*
X110000000Y-90500000D02*
G75*
G02*
X109500000Y-91000000I-500000J0D01*
G01*
X110000000Y-90500000D02*
X110000000Y-86000000D01*
X128000000Y-43500000D02*
X128000000Y-47000000D01*
X128000000Y-43500000D02*
G75*
G02*
X128500000Y-43000000I500000J0D01*
G01*
X128000000Y-47000000D02*
X109500000Y-47000000D01*
X128570534Y-85995000D02*
G75*
G02*
X128500000Y-85999996I-70634J496800D01*
G01*
X128570534Y-85995000D02*
X140250000Y-85995000D01*
X140250000Y-85995000D02*
X140250000Y-99620000D01*
X140250000Y-99620000D02*
X163840886Y-99620000D01*
X147500000Y-43000000D02*
X128500000Y-43000000D01*
X147500000Y-43000000D02*
G75*
G02*
X148000000Y-43500000I0J-500000D01*
G01*
X148000000Y-49000000D02*
X148000000Y-43500000D01*
X163027037Y-112146636D02*
G75*
G02*
X162582066Y-111597114I52263J497236D01*
G01*
X163027352Y-112146669D02*
X181879448Y-114128104D01*
X163840886Y-99620000D02*
X162582074Y-111596797D01*
X166500000Y-49000000D02*
X148000000Y-49000000D01*
X166500000Y-49000000D02*
G75*
G02*
X167000000Y-49500000I0J-500000D01*
G01*
X167000000Y-81200000D02*
X167000000Y-49500000D01*
X173730000Y-81885000D02*
X173730000Y-96885000D01*
X173730000Y-96885000D02*
X194304702Y-96885000D01*
X173750000Y-81200000D02*
X167000000Y-81200000D01*
X173750000Y-81885000D02*
X173730000Y-81885000D01*
X173750000Y-81885000D02*
X173750000Y-81200000D01*
X181879448Y-114128104D02*
X200101371Y-119353157D01*
X200719821Y-119010345D02*
G75*
G02*
X200101379Y-119353128I-480621J137845D01*
G01*
X200719821Y-119010345D02*
X205956930Y-100746373D01*
X205614118Y-100127923D02*
X194304702Y-96885000D01*
X205614118Y-100127923D02*
G75*
G02*
X205956932Y-100746374I-137718J-480577D01*
G01*
%TO.C,REF\u002A\u002A*%
D11*
X111634838Y-61494798D02*
X140979266Y-55257447D01*
X113744662Y-73825597D02*
X111249721Y-62087827D01*
X140667398Y-53790226D02*
X140979266Y-55257447D01*
X141052517Y-53197196D02*
X142030664Y-52989285D01*
X142623694Y-53374402D02*
X145950281Y-69024764D01*
X143682119Y-67973366D02*
X114337692Y-74210716D01*
X143993986Y-69440587D02*
X143682119Y-67973366D01*
X145565164Y-69617795D02*
X144587014Y-69825705D01*
X111249721Y-62087827D02*
G75*
G02*
X111634838Y-61494798I489077J103953D01*
G01*
X114337692Y-74210716D02*
G75*
G02*
X113744662Y-73825597I-103955J489075D01*
G01*
X140667398Y-53790226D02*
G75*
G02*
X141052518Y-53197195I489075J103956D01*
G01*
X142030665Y-52989284D02*
G75*
G02*
X142623695Y-53374403I103956J-489074D01*
G01*
X144587014Y-69825705D02*
G75*
G02*
X143993986Y-69440587I-103954J489074D01*
G01*
X145950280Y-69024762D02*
G75*
G02*
X145565163Y-69617793I-489072J-103958D01*
G01*
%TD*%
M02*
